<mxfile host="app.diagrams.net" agent="Mozilla/5.0 (Windows NT 10.0; Win64; x64) AppleWebKit/537.36 (KHTML, like Gecko) Chrome/128.0.0.0 Safari/537.36" version="24.7.13">
  <diagram name="Page-1" id="VTXGHPfvLSqwxFVlf-QG">
    <mxGraphModel dx="1050" dy="583" grid="1" gridSize="10" guides="1" tooltips="1" connect="1" arrows="1" fold="1" page="1" pageScale="1" pageWidth="850" pageHeight="1100" math="0" shadow="0">
      <root>
        <mxCell id="0" />
        <mxCell id="1" parent="0" />
        <mxCell id="QjezkDxScHK8IgRQuDpO-1" value="" style="sketch=0;aspect=fixed;pointerEvents=1;shadow=0;dashed=0;html=1;strokeColor=none;labelPosition=center;verticalLabelPosition=bottom;verticalAlign=top;align=center;fillColor=#00188D;shape=mxgraph.azure.laptop" vertex="1" parent="1">
          <mxGeometry x="90" y="210" width="183.33" height="110" as="geometry" />
        </mxCell>
        <mxCell id="QjezkDxScHK8IgRQuDpO-2" value="" style="sketch=0;aspect=fixed;pointerEvents=1;shadow=0;dashed=0;html=1;strokeColor=none;labelPosition=center;verticalLabelPosition=bottom;verticalAlign=top;align=center;fillColor=#00188D;shape=mxgraph.azure.laptop" vertex="1" parent="1">
          <mxGeometry x="340" y="210" width="183.33" height="110" as="geometry" />
        </mxCell>
        <mxCell id="QjezkDxScHK8IgRQuDpO-3" value="" style="sketch=0;aspect=fixed;pointerEvents=1;shadow=0;dashed=0;html=1;strokeColor=none;labelPosition=center;verticalLabelPosition=bottom;verticalAlign=top;align=center;fillColor=#00188D;shape=mxgraph.azure.laptop" vertex="1" parent="1">
          <mxGeometry x="590" y="210" width="183.33" height="110" as="geometry" />
        </mxCell>
        <mxCell id="QjezkDxScHK8IgRQuDpO-4" value="" style="verticalLabelPosition=bottom;html=1;verticalAlign=top;align=center;strokeColor=none;fillColor=#00BEF2;shape=mxgraph.azure.github_code;pointerEvents=1;" vertex="1" parent="1">
          <mxGeometry x="406.66" y="40" width="50" height="50" as="geometry" />
        </mxCell>
        <mxCell id="QjezkDxScHK8IgRQuDpO-5" style="edgeStyle=orthogonalEdgeStyle;rounded=0;orthogonalLoop=1;jettySize=auto;html=1;entryX=0;entryY=0.5;entryDx=0;entryDy=0;entryPerimeter=0;" edge="1" parent="1" source="QjezkDxScHK8IgRQuDpO-1" target="QjezkDxScHK8IgRQuDpO-4">
          <mxGeometry relative="1" as="geometry">
            <Array as="points">
              <mxPoint x="182" y="65" />
            </Array>
          </mxGeometry>
        </mxCell>
        <mxCell id="QjezkDxScHK8IgRQuDpO-6" style="edgeStyle=orthogonalEdgeStyle;rounded=0;orthogonalLoop=1;jettySize=auto;html=1;entryX=0.5;entryY=1;entryDx=0;entryDy=0;entryPerimeter=0;" edge="1" parent="1" source="QjezkDxScHK8IgRQuDpO-2" target="QjezkDxScHK8IgRQuDpO-4">
          <mxGeometry relative="1" as="geometry" />
        </mxCell>
        <mxCell id="QjezkDxScHK8IgRQuDpO-7" style="edgeStyle=orthogonalEdgeStyle;rounded=0;orthogonalLoop=1;jettySize=auto;html=1;entryX=1;entryY=0.5;entryDx=0;entryDy=0;entryPerimeter=0;" edge="1" parent="1" source="QjezkDxScHK8IgRQuDpO-3" target="QjezkDxScHK8IgRQuDpO-4">
          <mxGeometry relative="1" as="geometry">
            <Array as="points">
              <mxPoint x="680" y="65" />
            </Array>
          </mxGeometry>
        </mxCell>
        <mxCell id="QjezkDxScHK8IgRQuDpO-8" value="&lt;b&gt;1. Collaboration&lt;/b&gt;" style="text;html=1;align=center;verticalAlign=middle;resizable=0;points=[];autosize=1;strokeColor=none;fillColor=none;" vertex="1" parent="1">
          <mxGeometry x="376.66999999999996" y="340" width="110" height="30" as="geometry" />
        </mxCell>
        <mxCell id="QjezkDxScHK8IgRQuDpO-14" style="edgeStyle=orthogonalEdgeStyle;rounded=0;orthogonalLoop=1;jettySize=auto;html=1;entryX=0;entryY=0.5;entryDx=0;entryDy=0;" edge="1" parent="1" source="QjezkDxScHK8IgRQuDpO-9" target="QjezkDxScHK8IgRQuDpO-13">
          <mxGeometry relative="1" as="geometry">
            <Array as="points">
              <mxPoint x="170" y="460" />
            </Array>
          </mxGeometry>
        </mxCell>
        <mxCell id="QjezkDxScHK8IgRQuDpO-9" value="" style="sketch=0;aspect=fixed;pointerEvents=1;shadow=0;dashed=0;html=1;strokeColor=none;labelPosition=center;verticalLabelPosition=bottom;verticalAlign=top;align=center;fillColor=#00188D;shape=mxgraph.azure.laptop" vertex="1" parent="1">
          <mxGeometry x="80" y="640" width="183.33" height="110" as="geometry" />
        </mxCell>
        <mxCell id="QjezkDxScHK8IgRQuDpO-10" value="" style="shape=image;verticalLabelPosition=bottom;labelBackgroundColor=default;verticalAlign=top;aspect=fixed;imageAspect=0;image=data:image/png,iVBORw0KGgoAAAANSUhEUgAAAO8AAADxCAYAAAAjrOBSAAAAAXNSR0IArs4c6QAAAARnQU1BAACxjwv8YQUAAAAJcEhZcwAADsMAAA7DAcdvqGQAAKaLSURBVHhe7f33l11XeiUI7uufDYuAdwRBkAToXWYyM5mV3kpKKeXVqmqVqlRGpqtn1ppZa4xW/TD6B3qpe9aqmu6uUqmqJKXSe8PMJNMxaQGC8CC8RyDsc9fP3ue+FwggYIJMkAiA74s47/pzzz3n25851tqwYUOOPvWpT7cc2d1tn/rUp1uM+uDtU59uUeqDt099ukVp0T7v5z73OXzwgx/Efffdh7GxMTiO073Sp3cy5fli2Mcyv1ESIbNz2OQdy+iNHEkcwUpy+JaL1PHQtizUXMBJ9ABDDCQZ0GAU57k/HnI/7CBPQ1R9H/WgxMBnfKAUAD6fzZikOE2QujYyywZPwUMIP4/hKL25jSR3EGYuYgaPrFzlTSnvS/me3hcpheLy4hkmgqnOmb7FkLXI+94o3XPPPd29RYBXoP3zP/9zrFy5snumT316YyS+z4QoIiG3BAJzVlCAxdNWShCHRCYP7MBGI81wrpPieCfGodkIB2diHG2mmMx8hE4ZoctASHpRB0NpG+vcDPfUHdw/HGDbkItVfkLgdfiKHBmIajdA5pQQW44RBBnfhyxhDClBncGxXQoUn0AvwKsUChQCr4Bv1JQ+QoB8i0C5WFo0eP/yL/8Sv//7v9896lOf3hwJtxnVWk4AWASv7RCkwgBPJjEvCC3CBjVlSKTsPHMez5+bwvaZCLsbGQGcY4YBdg12dRRubQCR7xnwVfMORtDGGjfEpkqGewniLcMlrK37WMe4hqU1bR8xQR8RpAKnSID0MoqAPIJt84jgloEgADOVDHyOz9rcl51gHjPg1c7No0WBtw/cPt0oEn4yglNAta0EnksESK0RvJ02TencgueXMB072HGugZ/uP4IfHzuDve0M4ylt4YTas8n7rRJGKgMoD1YQj7hwS2XYJQLPogBIQngMwxQMG4YHsWZwAI/ULLyr1EGJdnHFsxHwvR7NdkfqnoIk53szJs4RJs2P3sGEcVtoX/4RzRbvM4ESR5dvJl0XvDKV/+qv/qp71Kc+/XIk8PaCnadG+/Y0WER/NyRAMurRnx6axX989igOnB7HiUZoTGSnXEWZmtFrNVDrzGCQ2tYeoAe7YgBZpYZsYAhphWfdCmWBBzuyUCaWy3zX2hpw74oYm0c8PDgKbPRDDKFF21iONN/pDyNxXWO6eynNbAHTLsBbmMc6YSGVccAk2wSvI5DfRLoueH/0ox/1fdw+3TAS8ycJ4FOBCiiZKq543uKJkNvTM8CeIyfxte2n8Xe7WgQ5QUi/1vZc4yMnySy19jgfmITrdgjQGvLOKrjUruXVy1FdMYqgXiOwGFknghtG8JMULR43qLg3VFI8Mpzi0aEc9w052FD1UPd4IQ8QMW1KjI2E702paykcpJ1VqUYzW1dkPEvwiIy5fxNpPngXGAHSun3g9mmxpNrm6wXeRSDI3zVP0K906IP6aPDoOBXes6+P4wvP78dPj51EusyCP+YiqBJEaRNZcwpZ2AZcD6iNIKmP0d8dhJsECPIStXIZnuPRl00xm7dwjgAfr8xieixCuIyavWTjYCvGt/mi//J6jP982MaXzpTwwkyA4zTLG4w7zhNkEhR+QIFRpgntKcVMqkSMdC8Df7S90vddHt4ucoaGhv59d9/Qn/7pn2LTpk3doz716eq0aGYl1xtrVHjg7aljo0VcHJ8FXjg8ix/uPoEXjk7gSDtGVpYfSnUYd2BFHThZghIfLvllYslGShyrVskqWejYbYRWSAuYQKdP67k0rwk82yIQqZds+qnUr3xxgLZVwUQU4FTTwvHpGGdoljfThKY543ID+sJMG4NMY4vCRTXhhsw36qKga050t9emt6qp6K//+q+7e3zH5WZz32Tu02JJwM3kDF6H1GCj4NJ3zQmsBl3OI5MhXjxyAd997ThePt3EqdAx7aywqIrJ+DbjdbIUHoHjOfRLbfq5NIfbHRraLrV4nfE2eS/94tLoCoytWIvhkTHYNMWjKKE5HMOhKRwQnJlXIchtNCNa1SEFQtLEqBdh02iAdcMBHqx5eMS3UKc5PVwBKlTyakKypJFTVWzRfGa6CzyaVF6TBFxb0uotoGv6vLt27ep3wOjTosiAVw6t9o1RWeyJoXRUaFp6kWmEhGAql6umY8ShczN4bu9xfPfVI/jx4QlMOsPAABUG/Vy/VYAzc6lRTVstAzWkqTHqtrraBJQX83qcIQjqGCJ4h8dWojw0hITaN6bmVpMP74SbUijQ/I3oO2fk64xan0lg3BlCxhHS/37IaeLT9RCrhwewafkgVg+UMET/3KeDnjPdajrKu7XQc9+mPVNj3Tuh68UV+cV8TXHBoItbXeqSOdWleacXRdcE7969e7t7ferTReqZx5eYgzolTOkaOVaASTKCNYvg0w4lVAjukFqUAKcmSpxBvHKmhW+/ehLf33Ucu05No2V5xCxNYkXFn0wazkTJZ+RzGr9TW266W1V6EZHIk5SKxkNt2QgGVq9EdWzUmORJJ0aJYLIZ1FHLPDqPehZw8U05poIYzVKIjYmLx2hev69axRNDwJYRJrvMW4IQnXySoUTTegg+gekmIeVKC1kSG2vCpmCSz0yjAnrEz+jR08yntGAklAQ9ADPEPJ3w1RJFXjcti6U+ePv0hqgHXNECX454SuKY5+llyn/k5VRgNftqApLB7KCV2Hjl8Fk8vesEnjsyif0TKSZTj4D2zXM2NaPR0sKqqAdcvdsAuHuO8anN1YCXWt+2XdRGCd41K1BdPoqEQiLtgtdRxdgC6C4kj+n0iKqMZjKsBDUvxcoSsLlm474BFw/StF5fclHyGJsdMah7iM8kuKaNWjniCtCqGY9a/BYLjqnNZvZQohVWiT2nnE2K+KOzOn4jdM3a5j716Vo0H8jaM0YzlYtjp2RG6p08hEXNq+6QMRk8RIATbRc/ODaLr792Ak/vOYm95zuYtajFyoNGK2VUQ6kqhQi2RZPh+gI4xc98UiWTzPeLab0WufSFqw1CLHYxRX24lzLi2U4HX5mYxufPTOMrJ9r47ukUe6cSCiGa2hQiKdOa0dowWpyvsWleW1lIHz1idljMFxcJNXJMUz2iNRA7GWKL5jxzxVavLgbd9ctQH7x9uibNB+vlJDNXZqIttePoPh6RiXP6pxnN4RZPnW0DLx2fwRe2H8WPDo3j4GyGKQI3Dmq0LVUXTO6XP0uVa13jXZeTge7lyOXjBWi7tMjoQjuj352hI2vBDgi7Cj+jhvF2Ga9NO/j6eIT/fKaJz58O8dNzwJ5pC+MhhVOS0Hxuw49n4CStIkM8Gs1OmUC+VKbIAlEbci5DPmc+ZQp98PbpLSYDiG6YTzJiE8OU3JOPKmbUPQ61ju2A/I5Xjszi+68eoY97FK/PpmiXBpBX61R3NDkN8xK0dg5XzEzgvxmS/v1lmmaisoPZZR7CsoWA5vhIx8GKTgnDySDibBAHkxKejSz8PYH7v++z8OXDKV4518ZEs0mN26LVQdVNJOW0IkI6yTKl7SiHE2tYBP1y5pLN71Q/aZsGOqUWP5shdy7J2/lhMdQHb5+uSldipPnnVKvq8qfdDtFqhkjp1+ZqlvFqZvjeS4em8a3n9+Bne46haQWI3BJZmWwctpG2pmHHDfqXGQbIxyWL5mSqMYCLp146mKIF6XwjpGahKv1dDVTIGBLQ7Hf5bb6PGi2EYXsAIwTxbDyC5xrD+M4J4Mt7pvGN/dN47kyMU6GPjj+IFn3hjiKUHGE8iNuwOk14SYfmtDqAEqz8zWmV5LYZz8T3Fb7+/HxdLPXB26cr0uWMdDlzaV/M4+o8tZXtV5GUBjFNk/jQDPD0a+P4/s5DeOHoOE7TfrYJXFPflCY0jzN49P88+cZRE0lIlicTq4PEoojv1IACIsEAV/+G+Lg08PywGMrCGMlskz4vvXSCthS4KPnUkbR9nShC0I5Qa0UYsmxU6y5mrDJeminhyyd8/J/7bfynfRm+eriFnZOJEVpNvTaghlV/UDcw+tbRWMSEPi+tZnXJFMh7dsb8vL18ey3qg7dP16XLGal3bBFwLv2+gAwKv4xZmosHJ4Bn9p7Bd155HS8fv4DTkU1fkho35jNkWtUAlzyXz7igtYyQ4OjEKXWdKoBkUl6fzNslCZiOIi1FeowBTcCqtlfNRIsFr3pU2fR1Hb7fFiT4TWnUQdJpIaFwybMO79HY3w7NasKOCW/4AzhmL8Mr4SCePku/+FAL3zk0iWeOXMCLF5o4FFs4Sy3bcgJ+l5qKmB61VycRUgo7NWGpaW1+3i4GsPOpD94+XZWuy0wCEP1WXwMMuHvsQo5f7D+FH7xyAC8fPYfT7Rxtv4aUWlkurXw8dV2kzVjUURHsgkRKBg8JnojMvihSuuYFk0qjaQvNWxzqwOxel1zLR8muEpM+4oRuABPXpBndsRMk6jDiUNM7NG8zmsHhDK2NDjU0BQQ1tMB5KvXw6nSOZ04l+NaxCN88Rj//9ARenGrhWCejUKNgkjDJ6TTkbeYBfWWHQoCugvL4cgAvFsR98PbpimQ6Qggb2hAIxJoxVef4SjWr2rcdaDz9yYkEz9G3ffqlfXjh9TO4QI2bBgStBhQIRY4Hx/FpORLQ8pFbIc1HeoDlKqxynddLioxB8Zq3MlyB5p/Wrd2tSW+XBNwCu4tDr6bccVv8RuKpzXc3aTJ36gFi9ZUcLMPyHWPyqm3ZciiAKIncZAalZBYltPhdGVpuGccwgB3hMIGb4st7T+H7h8fx0tlZHJ6NMBGpkYhpsukyuDECK4RrR6aG3dTOa2ssB1VrFX/m+7rhStTvpNGnhSSkqiKYmjUhI8vEi8hJSRii5pXgi2M6GtZHRi8H2H0+wtdfOYHv7TuHXWdpbloB/IEqStQyafMCQpqhiV8nOxasZn7501WSpO4VcanebUidEkmGe3myu5VWEmNr0EEeJ5QdLqqjIxhauxKV5aMUFo7ppFFWmzGBEC6qOcZAhWnQX5e6aZtL4tyFK9PFyxaaMpcz+sdpG6uoYbcO2nhoeQkPryxhC/eHLWrwrEWfgWmMaXGoV5hH4UZXQj2uiG8ToeQjDXiTCIdBQmnr1q3Fa0h9zdunBaTpatTtTxyjydds+mluHKJKBlPt6Cy1Zofm72Qe4JXj03h2x0FsP3gU56easKRpNTig3UazRQa1bfiBfL4CGHNMTmbsHV92ZdF0Efyk7uPCeI/mX742XYStnjGBhz3roxf3tWjuOd48SLdgbe6hRmtjlkLkNQq6749P4gt0Jb7y+iSeO5nj6IUByj81mfkErQZs0O/PI4QaDKEXE5mqv/P5vEchdCXqg7dPC0i6qqPaJAaLst9PIwQEr5dS06n7YRDgdJzjxVNT+O6u03hmz3HsPTmBWZrDLgHvyXWNqHUjamdLA+tlEt9IItSI0vlA7YGvh7aLv28/MYfg2DF8CT8CuBW7ODYFvHQywveOhvgqwfuVsz5+PG3jGH2OKU1+52lYIgUd02yrSlpt3tymaYpUFQRXoD54+7SAcor81JjLYiCGnMxobLhUdU2YoUZ49cw0vrv7KJ7efwGvng1xjv5iyFuKjoF8RrYf/cPUVjfBN9Dt8Q1SD6bFQbE1G/10T7/dFNsJ2k53nHHuMO8CJHEVE+0q9s2W8MyEjS9fyPD5s0187dQMXpiMcLrJ/Atd+t9FhZ7Sn1gZ2lbM3Lyy6d8H7zuYejWblwfZo2o+CdXVUeaziP5YSi06ycOdpzr4we4jeHr3cew8n2DC0nxSw8ipPRJq6TzpoFTy4ZfLpg9wqDbOt4oMUBWY9u7uzSbNUKlciyjwiskxfboTNeTBMFreAE5lHvY2EnybiP1PByfx+T1TePZQC3vOJDgzayFKHGpij/npwqIQNZPjXYH64O3TAvCqu6OpXybPNNWBQUPbghpmbA8/evUE/uZbz+BHuw/jpGqUrQB5bRjuwJCZkyrJUiTykfmIfDlT95LeYEiZ6C6Nc+6U+QZt9B03h6qZj9G0Ao8gnWUOnHZjnCpFuFChGVzKMURDZC0T5+fDOBKtwY9PO/hvu8bxH3cex385dBrfn27hKAVoTHhWGUdJ+X8F6oP3HUpi7vl0CXgJvjxu0L91YNeG0KrUcYhm8Q8OTOCb21/HjpPTONO0EVllciABmtPApoY2xp1MZaK+FYU0A0PkMreLkek3lJT6+Wku6NJvulnUoZsxk1PoUfh5tFiqFkFIl6PcbsPrNAjqNnwvxkiphBWVGvzqKM5UluPndhVfaCb4L2cm8NUjF3DwfFT4KPGV3Y4+eN/hdCnzF8eagibQWNmcJhx91sMN4OkD5/HFl/bhFfpps+4gOk7NtNPCCmkfNpDGbaRk2lxT3TBkNJWzJDE+sD2/EfYG0BVj40mdn/cpN43aSDDJfImdBBUCdzRzMZbYGKYt7TNPoixGg35xlHfgJsWAfDsooUmz+mhWw8tToDZuYceFGOfU3fsq39QH7zuY5oNW1AOyKos1QF39905Mh/jp/uP45iv78MzB0zgZu4iCIaROFVo7xEsbRZtlRi5TO6yecxiD4xnu0mga9Sy64bQApb1jbefvv/2kiQVcW6OIJABTOMwXTcljUahZloc0Uz2AhTCbpWl8GlY6jUqUYiDy4IU1zDYreH3KwgtTEZ6dBY50qx0upz5430FEaJKdCoY2TYkyadUMYXBadPbnrqmsAjXuRCvC87sP4nu/2IFf7D+GSZpvbZrKjU6KLLXIoC6cNCTQ1TSiWBmfoufzmgjOpcloAE0/2MQ7L7xZmnv2skjMV5mfosOHwbY5fvupzu9fQbhWmL8hteykFWPcyzBDFyNRk5BVQjn2zSAIq9Zm5k/BmZlCbTrCaMNBNSxhNvSpgTv40pkLeGmqhdDIv0vh2gfvO4hiAmlGfQAF2Iic3aDJ22ybpqHIpg9rp3DJcG0rwE/SOv7ji4fxdz/fh13HZwmJOoaocUudHEE7QT23UfHKiJw6fbsKcaKJZNR/l5pWNc5xSICrDxYFgfozSyP3wuUkpHU1adG1UfcQhDxnrIPuNUMmCh2rKkyCx1SJ6UpBNPXF1lphSNteHNcM5sEbR8raFtOh+Ss1k5efO3RDLPjqXklBllHYpQ7zOq6g2lpBIbcMyUAJYV1T37bg+xSGboBzSRnPT9h49kyCfRPqVdZ9QZf64H0HUI9JHf6VqDmbGpMm27jqU0O6yBtN+GGEgCZd23Wwe7yBr/74MH6+exyHxjNMkYkip2ImSo+cHDEdtdiLyICaIUqartB2l5PO9cKiaNE33np0BZHFMukG7qtCWXLHyB4JKF3v5u25RgeHJhuYvix/+uC9jakH2h6psEtUVOo40SB46WIh1+JbqQ0vC9Dq2Nh+8gK+vfMQntlxFntPJzSVawi9Id5bQ0dTp1LTZQRtx+4gst7Y4Pk+XUrS+XJV5gZ8dMuqwK/sGJYZrZDzrRB7p9o4QUNpPvXB+w4iWZi02MxwNhpu6OTqvUPyq2gnFrYfn8E3dhzBt187jtfHQ0wkASJ/AFlA05haNxVzmUjEdgmSt6Ii6h1EykXVQci5KP4E2iKoX7MZl8z9iSTHvkaCQy0ezKM+eG9z6mlfE9TVMW3RdI5QSqg1wwTt1ME53vfceIIvbD+Cb2w/g12nI5rF5J4K/diyh1zjWc2zDPJHVaFFP04u5yXxXyXwp0hMny4hZUuW05IRgJVXQi1JWne+5m3SnTmZeTgwU1zvUR+8tyldCURR2kYrOgskbQQE34Bdx3Ts4UenWvhffrYD/7DzBPbPVoHycvrCDVj2LLJkEml4gUCf5nMxHMuFZ5doZpdgp4ub+aJPVyaB1cymYXRut8zMnmRkD8AWMq+MGaeC11kE86kP3ncA9cBruw68WqWrOUs4Q2Z4ZvdZ/OcfvoIfvn4G004NmT9Ec9iBmYdZczBTU0NTv2SRmVTct9XR3kGu9W010JfxXi/wt09XIeWNqZjqal2RdjVIX7XLqljXOk1R7uHM5KVuSh+8tzEJsD0y+9SauTNAbRtg/4UYTx88j+/uPI6XDpwvRrQEBLZNPzhqkYE0cZoP2/bhknlcxzUmnKZrTXL6u11PrU9vnorcmwdco227pIsmENpUzwkF5XTr0grCPnhvU+oBt6d1FTJK7zAt48BUim8fPIOv7j2Ol0/NIMkqqKCEIGpT0lMdOxGZpU6g1hlDnZK/Sr7yzfo6oRYNA5nIpRboW82/HBkVa34u0bxFyYm6CM5Yfsz8+LJxvX3w3gakIlaxKph9AZeh4A0yhk6yqDuJjaOTMGsFfX33Efz02FmcT1wMDq1EKbURzUzCszooVX2E1M5xolFCgQF9AodgFiNRBajKmsC13ugqWYsiJbYXCrr0qKDLj0Vz9/GntxUwrhsWe98NDuZP2tZoXHm3PK+09ALJ3KOyJHCLfmoXqQ/eW4B6WvRyMtqUhapZVbXKvJoB5RUlSYwkCs2sFw591DjVfBgujtJ9/d9ePYu/334Ur51qYLJtYTbNcKo9gwn6s0lliGb1MPEp83qaYRa53UCmNXMZg2m/cDTTP5GrrsyRmo147nqBpEnW5oK+Z36YI1kIuvey6wrd53pB54pt99Eedc9rsTMjxCh0rhtMzTmh8DYHK9NkdkWweueZFkuB5VUsf+ZpNDD/Mkwb8XyReHefbnXS6J081AwWOuDWzs3KezONBiZaMcLAJVhn8LWfvoIXdu7GwROnMNMiIF0HbrkEq0RAaoZEKyfoI/q8EgMEgfm9GPp0c+nyMuiD9xagoq/vlUlaRotoBNS5WbtJV5TASyJEGl/rBmj5Hp57fQZff+V1PLP3BE5MzGImSpBq2J4Ze0uNpvbbXOaw1g3qGeB9WurUB+8tTD0TUj6RVgFyU2pgmcwypW0PbZq4u89F+PaOQ/junpPYM5kitDzkfgUISgSrTdOX9m9HzUERzWwKAqpvYrpPtwD1wXuLUA+ol5M5l1NTZgmcso+Yu7FdQuiWcXAywpd/uh3P7j+B/TM5JuyKAa5VrsHyy4U/apbgUCdJmtrkBq0XdC1N36elQ33w3sLUA7MBmxcQflSb1UF0goAat4P//v1f4Ou/eA1HGxnalWFkGlzQDJF14mJeKZrOZjGsUgAr0Ar1tllzNo4F5j4tdeqD9xalniZWUBNC5vqYTj2cpBX8gz1T+JunX8YPdp9CUl+JUEuJqAZXpW2rWotg17hbwt0oWWpbNVTkmTph8Cb12evTkqc+eG9xEng1xeiFKMM5WsDf3X4Cn//JTvz4wAWMW0NoOXXY8nFVIRV34JVKsLq9pbQagtoPNR9zGqf0lQlarWinVf/6tOSpD95blHpaV5QQvOfbMV7Yfwzffn4nfnrgLE50fLTLyxFmPlJet9U3maEHWEeBmtfUTUkrE7xmhJ9F8Kott09Lnt40eC8fiSg2Mrx0WUh4UjyhoAYIjQk1DegMBbd0Q5cR+zSPlCVUmKmUIzWlJvNWP5tcNcOqpLJsdJh1Z9oJdp5u4EvPvoJXjo5jKif4ggHexwf0cLtlJkILXAudVgtZqFXstcg1cco4LNVUyZRWAeWmT4+Obli4ZtnqUi+8ETIRX9zOvWuOjFNwafxXCZc+d+vQm1olUKBNMcOPltxWB1f5US6yODddXk1mdGssL/CEKkLUZ0QskqkdMg7hkplKDs9pNnj6XFmm0S5kpO5z82s8expG9E6oCe1pVVv90Fs2Zko5woryL4GPJsozM3BLI4jdKnZMxvjSzpP4P3522qxrowqnROvbMBiRqvwyNchF3s7Py5tBC95/ybGERjHvlHoUmWsmFL2rBEceUL7oHBmN5r5mYxwYGcXQ6tWojC1DrB5loZbQdE3vslT3XpcK5bNkid/eS1/8f3u0u/cmNa+y2M2rNMHKNME85qNtVvsWk+Q+mUXB4DnFgJ2gnIVwkjbyuM0XWvBLNTjlQWR+nZldRidhHDx/NRLT9cLtRGLIq4FJ51OX1wf4/V4KP0sQ0FqpxC5d0hHmbRWvnW/hW9v34JnX9iKKYpaBLKEiv2yH4lINttKqPGlW/pN/e5uR4Yh5Wdjb1XZ+Z//bkd6c2axcIeDIXaZfppvbxCoZhrERx+hQLzfzEE1NC0rAlpIQpTSBJ+lJ/tE6xVFmgZBGTB8rc7ttjl263UB6PboagFMnQ9ulmZs14bVCVDu0YNIqTeUKfnFsAl/bcRDf3X0MezQyiBo3VZst4zJ9mglcBYsC1eSt3nGV99xyNO8zrsQpYs/bHbiiNwdekRFtxa5yUDyiyaXlj6UZA/8yjSaWz8WNY7vwHI0PpXnNU5pRP5XZw4sanHK7atdfhjKaySEa9FcTlNRZXWvf0Ot45ewsvrD9AL7x6hHsOhOhRTDLTDZTrXbLxGhfmsoKF6lXYLcB6VN6YR4Z4GrbDbczvTnwKoP0ZO9pg0ZyFTWtk8TUxJrkTJNKVxBaNIvzEjVxgDb1cyr/16OmJrD9PIKfUKtQsxT+zDuLeoLqSgLLnJPfGrdQ8Sj0SiVMMptfPN/GF3Ydxld3H8arp2fRTuool5fzicIv6pniJnTz1MTVC7cB6StM4Of19kU9Dupp3tudo94UeJUpWkY0ZgYlqXzZWe5o2FhMDUtgWgEz1kXEbD2alrG36WH3ZIrXp3Kc52007sxs+iVPTRYt2tmThtneiXQ14CrIHSmHapOtYool9ZMzLfynl3biv+7Yg6NtPlceI7BH4Mc+7y+KUhOamQWZu6Hn5xYVVm+quJccKcd64UokTtJX3+4c9SZrmwVTKdwYtvxaZlVROeJjquPg+HSIExMhzjdjnMxsNFsdRFFIUOcYqfhYNRBg3YCN9UMeVlQslJ0caV6bY1rR5UzdA/fl529H6mlO/phx7yfbDn58dALf3HsUzxw+wXylwKuMoJTVYc/aNHgi5JVQt5sxrHM6l1mltYPk9+qvF/fNpAXvv+RYqbx+bbMZnK7a5ljLrHiojI5icM1qyrJl6LiOqbzzLBe+aeO47H1XpJ6NskSJ39tL3/za5jcN3ki+rDrDW5lpCkqYWRciG7vONrH9xDR206Q7NRtjhoCNE4KT96uDQJkYH/FSbBj0sG3NEO5bP4ZNYxWMpgk1zEXgXg28qoy5Haj3Pb3t/O/VOQUtRjXRsvG9PUfxrQOn8PI55mmbpjRtwsAp0WrxEHVSJHECPyieU32zeV7x9KLsgVfHxetuGvW+d44uOV4ceG3tE7x5F7zVkVEMELylFcsQUon0wOtpzSQ9f126NcH75pCgHjlkIie2GYFvZrY7286w/fQ0nj54Ft88NIHvno3w41kHr06G2DWbYB818r6ohF1NH8+dB54+0sa398/gW/sb+OnxlEK0mBXCMF43iC4/vl1I36Pv7X3z5d+u40lq2Gf3ncS3Xj2A546cw6lGTmE5gEpcQcA8teIOEp82UKV49iIZqF6kXrwqt9uEev7ulUhfeXtxy5VpAXhlDtMgKZwGtd0aplCnDNV9ktl4LNZw6U9JSoY0i083LLxyooHv7j5O8J7BS+MdXKCvm5VHkVJD5AyZV0UcDKJVGsG0P4KjZMAXz2X41p5xfGH7Sew838JJmtlNjWkj49pmqJq0jBaJ1ArsFpOja0xOr3SUNp2TCcUL0jvFry7eBDLJUXq6x1cipZkgyplvpl2W1kuahSbEeYSY39lMbZydibD98Hl8+aU9eOnEBTBLqUk1X7IHh4ITnYjxMI98xkete8l3i6t71kuPw005Xithby0t6u1Mq7EWiExzv7a07BTkP1iy8nhOWlkrD5pOGrzRJX/oU2Oet2K6ctLUNnmB7tjtQwtzcIHZ/AOazXXmVb3N05ol3zBHMX9OwvOllGaKOq9bE0jtERxoA8+eAL722mn87MgJtGROBzXAq5sJuvNohq8sXmH4SLncpWLPonmTYcwL8dlty/G5Owfw2KDaM/nu1EdS0yJXhVDJqWmGqL1NBxA1Q2kiJYtXVLg0lzRJmlZmk0wqm+3bS2qqiQmqoMQ09sSiPtJ8PtOorQGv0kneizp0ORpqFSdwYyReDbm7kkKM5fDz0/jac6/hlYhCiwJB3UmLpiDGw0jlPpiea7ZD5rbNPFZLlYxVYIQHSUJFGx72OEH7oozfk7nMOJV9r/usEc4UUuRFlwD2WPZZRJdihufoMgRDo1i9bDWwbjkml5ew5nQbScVGk/twAlRm1APw1iZTCWnKnfv/98fNVrRA89YJgbJyM2DW+j4f9NHOSsRLBTU7QMkmE0XTaKNkVpN7bt8EXth7DMfPXUCm4WZBmbESONScaRReBtxi2ws9kixNmZSXjk7iS7un8J2TwLg9SHOwDDtswm5Mw+O25ProaOkN4VLdKtWBntpIqifPVcPtw6ZGs2Qx3AQSoALNUDE/V2WqGgbUxyvwHLWC5nDzKw7z1aWgqWEwWMksH8OuwxP44g9exQ/37MMZA1oVGnOIz6rXlOO6DPTl+C7BQJaQCndJk77ZfLt2rkbMJwn+kKBs0MxoS7z5KJfqqFUG4TtlYtpBp5VTUHmwBoaBWg0h+XWyNYPp9iyz2MXY2DqMVFcCLR/h7BLPl1+SFoI3asGl+ZarKYjmWKiujmQ8P7MQ8KRjWwhdCzumMjx7ZAI/3HscLx4+TX+Mpp/LTJVoVBlJeiZqLOqVm1itV3jFvjmn6HmmE1vYOwF852iEvz/YxtePhni90UZmJQRtRtGR05Smb+x0EDopIqY8Zlpix0VCoaKB6DZNbJ/IVrgppM/rvfoybWOCblBzjTHnOojiFk+7sJxhtNs1HDjcxjMvHcNP9pzAjnMzOB1pmJ7AqXxSjykBl2az8plAVk2yAe8S92UvlnUvHy5Sz8dX0GgnW93vtKIDy9QmSNPYBg0UxKZ+hW6DrVYJumL6ZFortpugUrNQrjFPKNQSzZQZUrhFPq03mWjmxls69BTg5bQAvIVaK/wH9YvXHSU+6zFP5WJNxy5ep/R7+ugMnjk6hZfONnB4NsEswZN51ISqDTbmjpnptyg0w9WiYt8czf1YLAj6eSycibSEvU0HP6D//IU9p/CdQ+dwsCmgFiaQlajCJqLfI6ks/1a/DIxmTrEx9Gqtbw4xq2nyGZ9MGtGkZX56VGcqUUOOlCnsVDBNSbTzZIhvvHgEP9l3DkdnLVyge9JJ5jV0SNPSorE1Fpdb7atwZLVcuWiXEJly0c+lOVGA9uJWP2JI36el55WYPRaidmJq1HM1/FD7uk7JNJ+h3cAgXbotK+vYdscyrFleZ+QxpmYaaDVDykcfAfnGRHuLB0OXHBS0ELxWlUDQXIRisTYlYcNIRD04S8y8NpnhW4dn8N0D4wRuiBNJgDAYAMpVal76uMZElBFMBqUPcyl13z6/BEkCYCgpSYBKM4032/jpsfP4wu7z+Aa10csTFs6HlMKUxCWaxAHj95lCydVeVHPfZvxfle7NIOYZ358xfao+6p6aI1nzlH8kmsBMYuBVMZXaePlshK/sOoov7jiM16YSNJxBWjBDvE+dL8Tx3Xycy7fuji7x+kXhuDTJpPCydF7Mlu6eAKx9ukOWFvwW74jvEuaYTtNlkruQq+zDFlalbbx/3TJ8+qFN+OC29dg4RrM6amCm3aJZnRa9+BhuB5IXqy+5/GucoaGhf9/dN/TP/+2fmd5TWn8V8RTc1oQx10AptmcW+MqBSfztS4ew90KIGfrCqS/gUup5dOIy6upu53hVpKjCit6d8t5QUXTdX7PpFaa0hxg1gm+rEiemL2PhON938HyIiSa1OP3b0aqPQZr0ZioXRqBaRY1TTeMOlVyMlJJXtYz6Wg2VuDnENKldtasZe9+oYXoCbsprMgBtWjApGfK5Y03848v78aWdr+MIlXGHgjBKZfrTBeB3puZ7lD+FhpWFbIKJlXET2Oo51cvjpUgGuEWBX0IXS79LBK4W+1a7dc5gLgQam+wxLyjt4gal/CxWkz8+vGYUv/9PHsUHH92AZfUSDk5P46VzF7DcG0N1sE53L2Y+duB0ZeitTgKwsiN7+j8WJ0gLRFPIMxE1rCp9Km4ZfnVITbr0b8fxjzuOUuOew7FOhQwkU1aVM2qnYLQdcl7IQEBZlJpitogMK5NIYDaSVVvDZsV+oaV1TBIe0xaceJqMy0yXCe4P4VgrwNPHWvj8zpNm3Orr0w6m2gHBoMoqVdpojKuaTTo8F6FDEHd6Wu9tpu6XFXsymxMKkyiiu6ExzTR5XeaLsophuuPiWy+exj/+eAee2X8MZ+QJVKv8ZoKePrEjt0N+CsGuZxSvmchAwor5ZnpSqTR1TdslTEp7Ud7dsiYVSZ4HagPwIn/otPIhfrs0p0DbmUQ0fhTDdM4e2TCI33j/A/ijTz6JD929AhvJfkPksyBOaXRZcIMyrRZGkbeRZu0i7tuUFoBX+spNY7iU/DnqmMhH8Oz5GP+w9zi+vv849k0xQ0qDzFgBl3dLDRA0JpCxukVFo5aXiKFebWiv8Obv60+eq35tOyIWVZOo2SEcpJoFggyPIMA4C+X5cy18Yd95fPPQLH5yuo0DjQyzGn8oX5AS22PBq+ZWlRo0BRhuBpn14vk18nkTGiG0BrozVhiQcRMyT45Ohvj6oTb+7hf78Sx9+7NTzC36c0YI8jk/YM54EcK8yXzic+Roo3m1L3nHPC/OK05xu8ISJpPWorz116MCt7JSChDrUENLJZQltBwK4nLcwmDaxPpKhvdsGMGvPrIZH3/8Lty9eRRemXGpNYLC0TXlXkOUeIiYyZYGycjWmcuoWztcqZQXgLecnmUWtOARPBdmbJp1HXx5/yS+f6aF/Z3UtCfa1CoOM1vdHR0C1hJH9fS6ACznztSAMnpted9c4V1hX89ogEJKICZOHSkDpQO8PERgt3hngrMsildaLj6/+yy+d2gCO841caqVEgx6Kc1QdYdjARY9Wm8OFV8lrc/MNpqkyG4zzQx3O8y88clJvHrkOP7m5QN47vQsznZsCjkfZfoqtirkyLA5tUaH3x050cX8UnYaUpxFMFlngDx3cUmSyRcjdZTg7skuKYsEW+WV7CiPtwV001xKfpeWXIVKYcNABU/dswmfeOhufOje9bh7dQVWjQ+7sfFvc6parWSYZTUKfZ5PbPJOoYj0uls9GLrkoKAF4HUz+hUE4gQt4JdOtPDl7Sfx/cOzOJZpxfRh3kA/NmwxIko3Ve0z8zze78ksNDXNLI0eM1F6Gj67jEw6+HMxMC4C1dwsU9ytmlrVgKawSzNaw/bVeTcqDeGF82384NgUnjk8iZdPNnB0KkOYFNpWizIZF5EFWPja3XRoI0wVuDJUXO0eLIpMQk3QpkfaNccMYj9pfzM9EF0HWQRqWhOH0qrDKVotrxw5hx/sOopn9x/FuNqoK0PMpgBWlKDCOHxGFkVtMiLtaEZTdGnsBZLy0+Rpcc78zU/QEiQJd4sWhbJCJEuCnENDgx8oIWcqHxPQ3eVFukPyFjoh6lmEO4dKBO4G/Mq7H8IHtm3C3SMlVPlYR3Uf/HaLZnLOfE5yj3rCldusrIfLY9Ut3BZ0leJdODDhtV040XHwg5MhvkYz9Rn6unF5EJbro63RLHGCoDZA02TWMM6NIVUwscTmxWfiLv7Nkdmx6cwMbADOnUElbODh4RI+fu9afHRbHRsoV0oW/ctogoxBk6myigzhEM6O6YRl7Hgxh9SyW5i3eofWYLs+6f1GIpBBqPHUZCM5pdNKF4OiNszJd2X0w+R55/TdvMQhM9VwmsLwqwda+Pvt+/DzQyd5rsJn6TR0wSntbGa+MDFRf1MwGr+WR0uZjEtwHbKzkEqhDa82jEbMjBPuVJYln0XB851pVG31MBvGVLaCUu4AKvYsnrp7DJ965E48tW0D1g/5pqRMJTTdq5A5XKZ5HPkl7B0H/ubILP7PU5NYG7HcHV4P2qaEnZTvuS51C3GJkjFqjYVJvvp/Pma2ogWiaZrM9uqx89h56AROTswwi+iDhiGiuEMGYyzMmJh+xlvDVkpgLzBppkLq4r7pgXP6NMqlALXREZzluW8dPIT/4+d78IPXp3CyTVlbWoaqPwo/pO9IYGj4WE6wprSjMs0SoC8mAN2EIXoD3yCLQqCVhcFdWYEpzWBpRh0b4DKkBG5Cc8+hSe+nZYQE7t7ZFJ9/6RC++dxLOETg2ld6r051NagRCmbv9iA7qCIfWInG+Rmg3YZboYda4YX2BJIGzzm+mayh1ZhFpXEYm9dV8Nn3bcOvve9BvHvbRqwdpltBDraTjrH60lhWGqnrlrxTaQF41VzxwtHzePnIGZycadP/lBmjipcILm1SzYCREcg9RrtRpAEI84NZM1VBmrMbHJ4vs+A0GZuK7ySB83Kzg28cO4cv7aYp+vo4Dk+q/rlGiV6mhKcJysLupE1+R2hCblPDqxdPRLGQLEbrFp+amC6XBbOY6iNqYlvmHpnKDF9T+zKP2/xzqB5cp4p26GPvaboeOw7iCzv34vljZzDdTOiZE+ESfyYLL+aj9gqhePHc7UAxtYYqkjAwYtyfnMI/bUyyHCPUArkZFtoUhGUrwbuWZ/jMAyvw6++6E++7ZwXuGPZoJsvqaVN+09hm3pquoV3gavNOhfAC8O6aBl4b7+DgVAcTqkD2yGjKIaoamwyqYGqWbyTJFM2cuXApcFW4RdA8WEN0eNK4jekOYUIwh94gTiUV/OTYNL6z5wx+9PoEdk8SbGSYDuOKpTGZ5mLYAtNtpuuRDc34e07YdUlwVe07SYijSSs/zlEjonGyGShQEvmpAjJdDGIUe8+08L2dx/C1Vw5i+6lZTKUuLYAKHFfd+wRTxag0dNPBw0srp24TMs0OFHaVCmyXvikP9c0BrRg1pVlhG2PVEh6/YwWBuxKfvG8VntgwgI2DNmo2yyumu6amN/U3YN5aLvnBZFk333pZaE4ydE/f7rQAvK+cD3GkbWESZSROUAw2YIZrsIeZvUD24qKZ/g2QQKYgkBjNq2MlrwCxATLNVqtqE7QEoRqjpcEqY0B5Jc62fDx3cgbf2H+avuV5MyzxOG8L3Qq1YNnUjNshn9EiW0KJXCGGAiwLw3wSTzjKAJGuKR+MtuW+mIpBy2omJtoSJsIcr5ydwbf3HcG3dh7CzmMziFKtzjfC9NcpcNRTqPsOxt3jOfNuWhPmGv8Ll+HWJ03Y4FshrKho+nJKAzSdh5FaHkKazcv9FO+/awU++64t+Pgjm/DQhmEs8xP6yRK0WhSNee2wsGgFag60uOdOdfNOuaRjs9WP2bv9aQF4Xz5+HuepIbLKADmxTL6UhnHg0VTJaW5qxkdXvaluQv6ov/VpmcAlgrmi6WIDOB0COuF+eRnO23X8dKKJv9m5H//rz17Cj09N4zQBrJpIjTJJZEoQv+p61+GpBqO5fBC8Ac4VqMckF4n30p0IqTmasda9JSCdEuLEwYtHzuO/vrADf79jN3aMN8h3I6h7o/AsdSdJGWi+q6JqDqAMOrwkDVdOx61IAb94IJ1ENjsOzyUvleu0ijy0ZlpYPVjDp5/Ygt99YgM+cs8YNq0cxYCvevtCKAq0Fu/P/ZLpQNQkjtVWbvKsQGpRMN3ddxItAO/RcxNo07/TYlSGwg4tQ/X2yWgZ5khpjtrUZDdcKxh0FHGaTa9gxMjdYDp4GCnMtzP4eUzwEhw0u8y4Vr9CTVvFycTFz8ZDfOU1mqw7TuP5owkm8wDu8CpYlSE1AyKk9k6J5EsBc5HmH2vXWNoiWR2qamZQU4dWn89LFTOi6lwb+PbzZ/H1F1+n/30WB2Y66Nge+a+kCm5YsSQJb+o2c1xOTAXfJc7UNeWHOX3LkzqqJPRzhyoBTeRZtE8fBqZPYdu6IfzRp9+L33nf/XhidRnLnA6/3EJCPiu6NJMHmX8ar6zsV65QjxRWoMkf/l4ljxbm7u1HC8Ar1jGCTUykLmqaW4qhGCOr2+mzUIMok28kaZaEXjBZry2D+mr1QlEkJaaJPmii2SeaTFKLQG4jzTu8pmd8062y6a/Ey6c7+PrOk/jK7pP4yfkcJ8gL0yx8rarnEkRlzXw5D7iXb+eIhxJc5vWGus/Q/8o9Hy0m7cR0hOf2n8Tf/HwvnjsyhfE202HXmB4XrTyk1ij6bJth+BSGjMDEIyoYUPEX4fLX3+qU09zNSsPma932BNb4TXxyyyD++T+5G5/Yttz0nhryMpSplSUkc+aSxuaqSjChsDaTybPM5DzRYBKku1Tw4Nzv1ZB8m9IC8A4M1ExbmhrVXQLYo6ZxmIHKFlUYWdQ0xXieG0iqsbXnBQNgBQG26D5pwMvStzKBV/ZuQgyHiAjcxCVw3W5lEYGtsZwZRjCV1LBnOsPTx8bxxb1H8L2jTRyaTRDTHKuSGfzuItJXAvAlxI/XYANDvJ5RLYR8NqfmVSrPTLfx4mv78O2fv4Kfnm/jGO3xJFZvL5rzqpTxElrt1PSOVo6IUZa/rtdc/qq5d1/p4q1LGtI5646waHxsGqvjkw+uxu+/Zx1+desQtg6mGLI1s6imOXIQJSxralpNzq8cVz1LwYsxPO77DIR4AdhukRiav/8OoQXg3TQ0hDrtEnWAT2yC1lc3BxseAaPFm1wycW5a2clcYjbDcL8csy3Id3NiYdxqs/VTTXmnyisjYRgIIpuWAc1oVWPYmgOrHSNqUwhozqygjgOtBN97/Si+8PJO/PTwSRyf7pBJ+Lx8Yb1rXgJMHNyqLkrv75mxVAoF8TijFRJTSKjb+ykq/5cOnsa3X96PH+45wvdV0WIKU+aXw3u0Ch+dXYJYFVoUQAS+a6yYgnqf2v3Ei3Slc28n9bRYNx3KD5mqZgWGuWuF0DOeBG9STyljPTk8TyGsvNN1VRbWmH8bR2v46CN34XPvvQ8fvncV1lYSgpG55ak8feYPY6F7puhVvJoD3HTD1evMK6WBIwPoggqBXhDLSa0WuofnimTPXbwtacGQwN/97L/DyakLOK7qeY+mS3kQfsfFcGxRj9BLpJaL7JlC+5lmGD01b9sjZrrp32sK/drhymcZDKOoTa8IijPVNDwGWYIZpXPuMxCEGa/rGfMIr0c0qy2a2+pzR2HUJlOcnZjB2fEp08vHqo9hcKRivkkd46VZJaSML2XgyzjIJBldh1S+tUxdMQjTYcv6oLl8gsD90vOH8PcvHMJPTyU0yYfpYlCw8X7NAGJWs2M8NhWtVvzTuk4pfbhEzR3U2uZtyh8F89auAOqeN+Dgxvy8jcGUm8wvvl/ukgb2OCxrz9ZsHrRqVBa8Vti4GXxKNs05ZpkunczPks184zXV7lPYbvI7+PSyCfz6o+vw8Yc24u7lg6jIIqGWteXmMOidUgyBL8AqDUyLfvjOYggot1QehQ9MsLMsLAIfeclMzrd9soWXpzU0IeT5MiI34h3U0uKNW5xMVpiWGHLgD/6D2YrEpZfQww96BOsFYFIVK0N8qkJmn0Kz3MQ0gUurk+eH+SOUcKMMNkHH5gQDSYynAr4JZJHzXWpjj+CVOWZrwjy7Sk1Zx/GWi+eON/DF7SfwhdemMclrHcuDHTLdHYIzIWCJtjY1ZUQGc+yAflZAQRah05mhyU2TmZ96ugF852d78eOX9uPMeMiX0r91GC75ZB7MP75J+fFGSeVWaEDlXdEpQmWrmvkkjkyrgyEKRd/LEbbbtMVobQTDtNYGkExRUl2YwKDVwcMjOT5890p8+P3vxkNb78LYYAXEJ7mHec34uo2+BXVZp0+LI2bjpbRqJMYH7l+Nh5eNodLI4Kq3QdXCeUxg0iKgNXAgqvNOFWihJ4oFrbjHwP8uiXFvFrPyvQSumdaOu5oSxbbV3DCCCxRIu2ZcPH28iS/sPYvP7z2GXWeaaIZdyc4P0AqHLdD0FoPJxA1pcSQhsrKPCZ56+fg0vvbcXnz3lUPYe7qJC9TAscYXE+ZGV3Y/u9hcdqxDEwrhdq0w9+DbTXqtvpvSXu6JXBKZAonqGRICU/OTUeMa7Zel8PyArgRdLU3zqY7dQYVaOsG9tQy/cd9y/M577sKDd63DqiEfVbKNyxdoUItYRca2oT5w3zAtAG8dU/jA1lX49NaNeLAeoNygFlZnxIC30jcpTJcSedydA60AO9/84xnze7PITMxGhjNNqfpR8xbNJw0bS90aplHCcarPF8+28N9+dgjf2XMB28cTTPIzQ/pdmiNaPpwZLCEzOKEmzgM0aI7tOtXAt146gC/+fDdeOTlLMEtza+VDaiMxtd4v7ud/sd/9nTvWTvdgSRPLzyRThavAQwkUmcNyIfS9BHeoykua0mbmEAo4n+7WujLwka0b8Lkn7sWn7t+AR9YOYgVlfpWxeQS9hj2qqk8ztJhlcnqs0tv2aVG0ALwe9c2WkTI+trWOj987iPVBk/4anQpPnTa0en2OckCzlCaTKhRMH1OVKQvWjIIxGkMRSxMviP5tIsv0DkvpKxnLTGZeklADyxRkmsQw9OnaiYWXjlr4xr5pfOnAOXyfYDzQpL7V+FqyV4n3q0Isot/cyAax61gbT790BN996TBePkZLJHEQaapXzbBpq/qKtnSXLgdwAdo3Rm/8iRtEBqxWt0xV08+U6BNVM6V9AdCcZ17a4gkXA/R1V1gN3F1q4qm1ZfwPTz2E33jqAWxdO4oSeUa9udUn3aEw1HhwRkYVLEXALaOcZzz3aZG0AF12WDHtn3eNZvjIfQE+88hKbCKDug3eGvvwA4HynBl72atYKYa2pRTKksqmSI1GVk2rivvtJtOoT/M+Nd07HaYvQRY3kYfTcOJZuCkFUt4ihi1Ulj2CVyc9/Oddx/AfduzH9w+dw4VpC16oOaB9mtoeGqUAx6aBL/5gL772473Yd6aNtL4cKJX5zRRsTgjLJ3g1ccA8ASamN/u94+61xQb+mOfeblKZSTDr/ZlMZYGNJ5VfRbmqBplwUyUKLZKK52EwmsC9wQx+/Z5B/MXHH8BH7x3CiNf9BD7jsgwUzPhmaWkJUfN8jmI1w+69fVo0LQBvRvAGqvXLJ7CmNoXfeHwN/uBd27CZBVi+cIE+8ASyiKa0UWlismJrWm2Y+Sp4s+3u3wwyjK8JzKQdxCNqutDIFKsYnBDQn62Qkcq8zyXzoTqEhlPBz8Zb+PLOk/jOyyex71SG0w0X+6cz/OT1s/hv3z6AFw+O40zLQsctE6x8rkTNoUkEwhmCuI2Ah3M0jxPN3i3EmXJ7LNOvnGlWulmQ8ntNcxxPE3rFBAw53YRwAhg/hEdWlfBPP3g//uAD27B1xIYfNpgnxegv5nyX9CQzSa6X9qXhu341o6ZgMDf1aZG0ALxBEDAzPQT0b0fInxtLET65qYrfvG81HtK4ShaKT6mZ0L+TRBZQlOe95hZjRpMIF2Ny3Qwy0/JozKcZ5ZMQwAQx+SXVgABNbEetbFsVYtlBe/o4rTfeX63TNa7jNfq+Xz8wha++Potv7G/gm69N4GsvHMHXnnsB56kh7AEt5UKPOGzyIykgjK/Hb44YNO1mlwrAml1Dlx8veRJoNQCc5almI5Wv+QDmrZhG0/oOoI219nn89nvuwu996DE8vmU9RirqF5CZPswOhaaYw1Qop3pe4GUw7bkyy3mOwC34poi+T4unBeDVLAVqx8syBy55cyDrYGs9xae2jeIzj27C/etXIw3pU1KzqduaqRBizhdNChqoXpSCmhpMp/+bUCJKgU/Q+tS0tsbvmmF7PMk0Rk4ZoVVDmNeRUOuW3Am6CdPw1OuJZnIzH8D2joevHJnB53eewze2n8cv9k3izMw4fdwGUjeFQ58f6o7ZEYDF3FXYaQVx59LsNN8+7/MvPdbO9cLNIWO2qw85SRVKGphimouYJrlH6gqhgSqbllXw24+uwK8+sgGPb16BlcsGYXsVdJj7kXqf0RxzaJloOKbaZmUqC6+KuVtXXZSLSBVhc50v+rQYWgDelD6cWgk0OibWmiK8xbPauGe5h48/MILPPHAH7qm6qNrqpsbsN36LurKpgKmFCRiZp0UBGa/YlM+CII09Lyye5jP3lYPi9+mUyy8XoxktYojfk9FqoGAKNdaXDFWu85z84RaBqP7LpRqmvSq2T7Xw05NTeJn+7emOD2vZEFq0NtqJZpTm16kTQ4faPc7oZlDbWD4Vvd58KQmwxeuLnJizTHjy8sCfhaH7TQom336ZwGhsajx1uNBxASMBpivg1K6mc7Qo7DyiS5HSNKZJS1NX0/+YqXzpcoyWLNyzrI6Pbt2AP/zgQ3hgVQ1DJWYdLTW3zHsdvxhHTS3tWLRWxBdipUsSw39tDRXfp7/F0tydvTi627lD3qD9ORfuFg7Fx87tzNGCOax27NpZ8AxJ5oxZWoN/MpHDsINOp4OTU238X39+HkemPExFFbTUy8lLEPgzjL/Jeylrqdk0daytwQN6aTdSkxhzbA6L8yxF45vOZf3VSEze3b0GmVgucsZVqVe4Bjzz09Qj3iCwaTnTcmsGncYs4rYAS9+Z11T5ojmUE2oY4yKq6UNLs5jYevHxh3EwJ00lkCwTXVOb6XwycJqX5OJYzV2KuCBzed539QSByID/OiTgejFNe49WvkO3x3RzFXD5rNaY0gQIFEYWv3dAE38l6vlUR+yVtI4hr02h4jTxq3euwW/dfy+evGsMA8MSANcmpXN+Wn9ZkrhhrsMjb6UYNGtc/acjk/jfj0ZYw4suRhCWWtTyvCdWedzaNCfcScn/6xqrBHpkQNf0LCKjkV16AtPlcUB/sRyUsHyojn/+7nvxsU1D2BC04UaTyGOaVFhGYbuMbyjBIdC9eILPdjUGf4riU0IMS3dBc3G7VEmun/ofpL6HXDP4lxg8ja4q2pJlfTDHyDS8STWzdBcsmZ3dSj1ttUxHSh/cdHTQPdf94KLAeoUm0t4lx2b/uhHNkU0/1K0HZjKDVFZDSqvKrbJc63A6LuyWhSAroYwqOhTKaVmjsyw0wwkE4SQeGC3j37zvUfzeBx7CtruH4VWvD9w+vXW0ALxGR0hScl+80WMWnVGjuiq0hqoVfGRlCZ++s473bwywaZDMGDYQTSZIOnW42QDNLT7LAp8Dr/m7SIJrwXq9vaVLOTVsQsDm/G67xlApmyakhPkhDzBT5QuDRaA6qdoyGQhWBU2NW8xAosq9oq90sZaRMkiRF+8wO/OyYd7uJYAVXQrghdevRhQbmM1a3KMWpdkfOAEqmlErpMXA025koaQFujRvtj2IhubpjhoYLGV497oB/N59G/D7D2zEE2sqGKnT5/dlVfXpZtEC8BoSL5hAFpPm6DKHQC2trHGXK5wUT6wM8MF7COC7yrhrIINvZk3kjTE1FP3A1Cs0d689+HLqwfYKl5YW0epI6dDlmr2jVmWomJk8cp8a2NXIJJsKN0caE6yqkaZmNYEmtfxj9dYqxirrS6WtCo1VfD/PFf/mTHdnAS0E6FVuvAapzRYJC8ihkKEV5arJRisRJjYtK/WS8mg154iSmN/De7M2VtQdPLV5OX79kU34zP1rsXXUxRAL2bGaNEtldvfpZtEVNO/C0BXvJhTdDRno942Rjx9eX8LHttXx8XuqeHDEwnDeNpOKaQaJvDrE54uOGkU8+inI7JqT87ZLlGQ7aPnSjNo2I2DzkqbdKcMuV8yk3wbANJ2zhKBUM5Uxl4t9UyHHGAr3o7e9lOYD2Oz3aN6u6HKNu+CG65KERgxLveOoeWXZa/wsxQzcSonfZaPFv2Z8Ab41iXuGHHzm7jX43Uc24zMPrMdmalzYtLBSTQqvyihqbFlp1wl9emtoAXjFIArKdOP3Mmhf51Rg6g2jydY0q6SqPEadBO+iBv69x8fwWw8NY9twhCCfoUSnaVaqGfa6em0yC/ZWKVtavqrQ0XwOqdp2ffr11Rr8gQE4lRqPA34LAUHAFoGamPmktm7TZGYsGH1u4UZcTgWAi3zqlcHcue55Ue9asX/p8fXIZbrL9Nk1hCKl8A3TGCEtgoygzSsW0oCa1JnljRPYNNLEbzy8Bv/6yfvwa1tGsabGVNttNNzEdAn13GHGw+/u002jK2he+byqFRVojcHbPdczgYu7NMuL2vJ0PESJflctxwfu9PHR+2p4ZJ2HkkOfaHzcDB/L1fZE5pXVqLiKiOZvr8TOS4cM8Oj/IaQpaSqiNK6YiScQHPrB7kAdVp1+IvdTuhQpXQv1SZCe04oIvaB8kPvbtZoXkIHg1YBozl+8tljAzif55FaYIuV3qCVH6+BmvoVONI3mxDH4yQTWjXn4xKMb8M8/8SA++9gGbB1S7ye+i9q2lUZ0hWRpDPA7qKlDZ067Xi/06cZTgcVFEouBBSFtzP08glmZL6/ATiiJOxbW0j96cssAPnLvIN67wsFg1qB7RU4Vo13CfN3C5PNzoXduCZJxVUP+qCeVVibsVlAlTLMWFEe5BLtGLVSr05Qmc5dKBDaDpitV5wRls6nQYt4xmK6H87NjHplT3WsFQOfdNHexoDcKYHWcSRK1wTMtFDLqKWbWgiEwNYj9oZEqfnXLevzeg3fjk/esx6bREu9rM+0NPhPBdbQWnxaI4fNqXZCb0KebRkLNpTQHtC71jrunpIHVxllGAwEluZOUkcXUPPkgakGAO8cCvGtdGR9ZX8UHVtTUpDgXxyUmnqSxgrTuEpfMagb1Cdwg10qE6gIpMPKfLkTEjJGmtUpdLVyt0n/s9n02XTEFYD2j9nI1vxUzaBQZ2s2Ly4i5ZP4u0rx9s3vx+I0AWN0cfabLpcWgYY+ZupAmEYZKLh5euwIfu2sjfvXOO/DBlWNYTxO7wqS3yzlmyxZCaml9e6BpiJIcASUasdynm0gLwXstMoDjI0b18ph8owEJwp9rmj5dDFKi3zXo4wMbRvDZrauxZdTHkEupnXRgpdRVYhpqAFXmGIvZmMw052hOmiDTjtdUS6vaWV01mo+ay2gvMuv1gkmYttcJRpgYIChchbqXVMGjUVKmGa0nbIwZXPi3ufJEHR1KFQKZ1oipzKL21Tn1xtKb+F15tx14jnqv7wZ9axH4DnOOPwrzb9LmkmPFTU3I/M3MFDx8h+Yf09Y0XWUGdIFFQVsaYmHROogI3M4sRp0Ij60Zwq8+ei8+dt+deHj1CMaYXisspsXNCNnc0vhtBnXiYJTmtR6FuKbEuEnEUmA6unwoYn6ZXQ00Mdmikp2XR7d0uDItzH2DKAblhELveC7ovDJthEwZmIXxtc62pLBuV0eF5eUaHl6zDJ+6byX+6NEhPDbYwHB6HnbUNBVgZu6jJKbVliLQkiEanN0mw9BNRkQG13U6h6rcMZGqkBIbuVaYu/y7rhSEDQqBxQT5s3PYuJx4TgysVtmOn6FtR9S0NDMlWJgX6vdrQEYQm6YiJjbSxOtehTxUhUUAyy82eZaH/MwG4nDGtJ1KeBVp1fczPj6vuaKMAKNrbQLPycc2s04wTzRrxZxgMw8XQRDTCB7ENHFpAsOmoPRiAi6iud+G34oxFHsIkjparRqilg2v2cQdmMVHVtj4Z4+uwu+9dwPuu6NKQLZpU7UQ16r8JhtlhjpBG6gMVMgCrJlQj0FlcxNIr5UFg0y13TxQNjCdJm+SIaNQxEOmjoHXbvVgvs989aUZLra6oWS0GYO0a4kF/MGNQ/jNx7fhqXs2YyX9wizMUKkso/9URjjVRHt8AmUBSf6XS7bkRglWBY96Isk0NdpKDGu+ZClTwVZGuJHRbZojrl+GbbRxlUCmxpMpreuaIMC0pRbfZYqGPyaQLzUDo2TlfJAaolrWnwG/pJTUtGrBMgKVbour5V0iastZWgQtWjc0k5NagIlyillrCn50GqP5JN6zeRn+8FNP4V/+1qfw1MN30ZelCzA7zSKIUKuqW6RS1KelTOSiG0fzgaugju2bvDaeWj+ET2zdiPdt3oD19AvRbMCJY/iOD98NTMWH5XcrUOZLdIG6C1idEjMvbVLaqZ0026H6hBOoDrWvX6XvX6nD6QFY7cICbkI3IlOQcJLeZlBnDgmqbqcOA975Qou7PUArO4xAUyky/9S052jKWWpZ9en1LfrftAIiyovQbtKoOYfNOINP3zOK33r3Fnzw3lXYNERXx6NAdWJUaUHZTEMsk1pxE8A9EPfBvPTohoFXoO1te4FqkwzaxupyhkfXufjQPYN4ckMd67wmqkmT1hcZ1Csjlg9G7BrgKhjzvBvEQNzKbZTFvaRJDC7gEsA5t7nW2fHkWlQI4hr94BrBS+HFc6q8Kvw25VnhC6sH1Fz3SQUCiTsGrAWIZQ9yv8hqs88fxUJNrbqE3IzmyejOWD4FBYVjkkQ0x0OCOMWWsTI+c98qfPrBtRSky7B5yEMdbdhxiwKEZjYzWf2fldl9sC59uqFwuBzAmtNKo1Q0Ydlq4vPxNcAn7i7jI3cGuKPagZM0ECa8zx8iC8oMJLOKZ0yFmNBK7cV9g2EzrEz3LGViQrtpV18qdYzMBGRpWtU+E7iF+UyN6Jdga8E2fqOBIN0DzbWl1RgMiAlmNe0InCYwL+dALM1stsUlc03t6bJ4mFlx4CL0LYTyszuzWEFn+vFlg/iVrXfit556BE/cuRxrKg7qToJADiL/Q1o/KouUpr5NU79H87XvfJoT0H26afSW6jJ1u5um6RZSC2mJitVeiA+sy/DP3rcOT91ZwwBNOTRnmQqfzBuR+QofsOBLJk01iGQcTV4ubWQm8u4x7RIkw+KG0RmYTGnCRIHfosnwNBJJNdBqC3a1Vq2pjVZTkswOkiwVmdPGz1c+KCgiglPbbjCY4U8PzKrQyjtFRZoZEaIFu7IpIJrAsNPGu5YP4He3bMbvPLAV2+5YgbGaDw+xKXzXkxApoZPaaNJtbtHsTkxzWAHcK1EftEuDbhh450vo3r5WGoyrgwi5VRNGOWtimdvE3YMJfuWxDfj1d23BHauoiSZPUAvHcKk9HPm/GhQvnJIXtcSoZuzoDadb2iRw9UBXBPn+CcFIXUotTHOUWlhmtFWpwaIvrEnsoAEONHGL9mAJLW4IWDVDFbXL5oQBcK+22dykd3Cr3nABtaXpA9eZAWbP0OI5j3XLbHz6kU34nSe24le3rsO2QQezM5O0inOUSgFixj8120CjHTEZdZSrA4zORRQWTXq98pxPfeAuHbph4BWpsIvpcHrBQklvIPMaLUpfDBq4H8a4a6iKX3/wDvzhQ2vw2EAHA66FMp8pkQWlPGw1k5CBC01MzSKGVTvKUibxtflWBjmmhvelKWU1CLw8kvPu0Q6h5tXSoMaMNqY0tTBNaQNiaj7LtGnreZIAY/aLE4r2Ys27tK8Fxy3DYxZ59HGXUZk/uWYYv/3IXfjtJ7fhibvHsHKUeRpkBK1MdT7G4PsuyhQeFb5brT8BQ5XpK7vXZou+ybw06Nql9CaoJ7EFXk1DU8sjVMi4WpMmRZVhgAVfxiBNxa01G79yRw1/8MByjJCBavS3StTS6napXk2GabsM22O4pUxmJs00JrDkMBRNPcyG3kWe4bcQkQKwfEuNUJLmLZqSKsYvVvOSVshTO6YAXHz/ZWEuX4p9yTkt8G0xrGM+PrV2FT63bQt+68EteGzdMMaGqLtLbWRei4BlguTnUhhqJpCAQPUclpfKiBaOSwuHdtKc1r2S9u1RH8A3l94SOPQAXBR8CpfMoTWDVNSpgOnW4JAxa0mIu+sWPrNtlWlOumfEx7BPTULmSkxjJ01BamppbWM2ahyqNLri5pkCDvzjgQnz/m4GFd+rd+sbmLlKpwnKZl2bu2r6RWfyg2lGqyulQ9C5AYGsmmieyynENAmAmpIyuhRqTpJnbEsIyCfmVnHruzPVJnemsbbm4j13rsXHH7gbH9l2Jx5cVcOgq/WatOhahES9QGzFUqTF+Mtmr7BuLoZr51/xnRe3S5uKHL+Vg37nDufRW6vLxLQ2fTr6cnqRS6bQmr8Cp2pFM5mQBPZY1cG/f2o5fmerj82joalwMf6fM0y+ol8Yi4nVLpyg7HjwVQstxjFMxiD70uCje04VPHz3zQi2q3msVIPc80yZdgkcddogWGngGk9AtfDqAWTmqOI1mc2qyNKA/7RUQlaiZqZ5nUUd5AyqD/D5nEuhl0dyH6gtXb6HWAysDh4IpvArD67Eb394Kz74rrVYs8pHkjEf1XlDg+3TEvyc2t2i62J6nPOdNrd6twSlESQUlBQeRqAwL68Ezt55WVZXur7USOxwqwf99P7mk1j+phN5nm5fhoc2juJX7lmHT6wZwPL0AnBmN9M9DW9gkLy9AnG7YiqAFIyJegmRkXp26lJnKlMG0nDcMKlaW8mknSasmo9sTcOokUlmnqwY9VVjcAa0WmMH7cYsKtTUNYLenmogmO1g67Jh/I+feRc+9vhG3LO2imFZ4Jq312U+Mc6cIE8ITk0536fbh5YEeMXICRpYV0rxodV1/O5dY/jspirG6rPUGuOIwybCmFohHUSadMGryiwjli6SIEt9YMzV+ZJrqQX+6uciGQAzF6gFs8Cnt0Dft0o/eGQQWLcOs50OmgStmpLUGSOeuoD07EncVfXxuYe34V985El8/NH1eHBtCctLHWiuRztvUyhmxk2JqGU71K7RnAPep9uBlkRpyn/LosQsQbKhnOHJ1T4+c/eI6ca3mfxbStvItVAzggK0BrjFswUJtiSe0x4Nu+JgqQaz6aaR3y5Am5koqX2lJc3cWNS+drUOd3CMpi21sEtt7GuSgwxVAnPbygp+5eGN+N0nNuNj9wxjzUCAAY9+sdZO0tzSArqxQOTZ9ul2pCUBXo3McTP6fNKbdkSzL8Gj62r4rQc34RMbl2NLyUaV/psZ4laorm5lkJJPBjXcX4RboRmjgFQRBODirwtgA2KbWlgrDtBszmgDD62CNbQcpXINw/USHti8Ep/9wAP4tfdswns3+Vhbjvm8jSS2kDLkqUY70cc2gbhnoDgwnm6fbh9aEuC1adLVPPX/raNFH22Wfp7GLzy1aRk+ccd6PDxSwTIvhONoCU2xKZURmbxX61xwvkzptKiJNT7xRSAvucDkzo1V7kLYnJwLPMcgECIqY9nIegzUl6FKTbxh/Vp86hNP4TMffxT3bCyjYp8FOufQTjSn2AAzZgi2O0jzusY88cy0N04YwY8z0w7cp9uHlgR4DbPSKpZhHBHEMTVM6ml2DvLlxAzC8fOw25OoeBHNQTK9GFxsT/Dyp8vw/DHbnkZb+iQsCcwm3TpQ0ORX6kimkDuo+FU0ZlpotRPYpRpKw6NISiXM8N6OfNgKTepqldqahUnVSmVtSpXyy6z1nWkFBGOV8MSCSr4+3cq0JMCr0TOaKzhqa+FlNaaUMBFZ+P5r5/GtV17DjsPHMDkxDZCJNb5XFVZiRoG4ALKJxFCvbbUH5KUZ1ETEHQWdmDvPoI4ZCgbECTrRLEL6sJroPfRL2DfewNee243v7jyFvTM+zmMUDWsQdHc1eQa1NYUgga+BBpF6dqnvtILm2jJuRp9uF1oapamhgUELgRWiTMbrTGfYvuc0/tszz+H7h47iaCtCo5Vi9vQEUo286fq2Yn6y+JymFWgVBOBLEbEEg1Bmgo5JRuDQ56cVYgIBrC6QuRMid2OETo4GVeuFLMD+yRTfeeU4vvbCcTx3NMe5jlY6mIafzcJOGxRwDdPGK22c+S4Sj/4w9zV/Xp9uH3rLwHvRv9OMGJkZXUOI8sim1hGj6uU80hq3GTUuGUzzIY/PtLH9wGl897k9ZNDXcXSyg5ZGHZG509kZZK0Z5G36vpHmxIr5fLEygT5ElTNGEyvIQlQwx+JaBmkeE7TPU6Le/W9r0M+lRKgWf0xbN7Wm+6Ln81gdj+nPK/8yv0INPIRdZzr4xo7T+ML2c/jxkQTnWiEakebTkvCyzeAD9UhTpigbzFS0C19bkM738suY2Fe78RageUk3Av7SjL8lg37nDufRmwZvD5yXk84VnSiKrVgupEkc0vcyQ3t5j+ZGUu8iO0vgJB3koeZNquNgw8Y395/D3/ziAL6x6wymOzXePaBevvD9COXBBPnESVjTZ+A0xuF2ZuDxeU/dD/g+m0xn5n2KGcw0rXycwWgyw9AMGmiuDhFCh3JD3/C2B73ciBsGkxBTRLl6npneZ8w7Ak+3OZmLMr+wbLsoKc/CBBGRGNaW4fWsii8eGMf/+vPD+OrrwPaJGqZ4zvEqKHt6KmJ+NJg3EQJmvGqcexhVMuYYQkEnNZqL5rbmzbpa+S4pMhbWpWRSzJ9e2k123+JBP72/+fSmwbsYkl/XbHeK9Y18By7BnLVDBHS/VHnSIiO2c8esRvf6uRg/f+0knn35IHYePI3pJlAeXonBZWtRrQ4jTR20aT4Ld5psLY4jKt8O4jA0g9iNxlK3SfXdVUWOUcN8D8+bj+b7JEw0xLCYBF5pUCqXNpmacwqlYqI8gUoJ14ViIzo+0cB/fnYfvrvrNPacSTDV1lmtTk/AUlipNl9yTMIzpaViliVlBEa+KTC7cpUJtbxGPKmnV5+WPr2lpSRAub7fHUygDvLUAAx51ILjEszVAYTeAA5PpfjqLw7iey8fwcuHp3BihsC2K8i9KmLq3Vj+H01nzy+TrwS8BCmBm7TbiBlSrWqvsa/mpfwkBfUEVDAgLpjfaBQN2ePWDMXp4mCpkoSOlpZJuoDTFLP8AiMUM32T7uFHN6hTX4sH8fU9Z/GF5/fgx/tO4uRsRMAGvJ/5R2HHaIxMUwymjqHrXyg+WUcRj0xgfPEVNFqflh69tSJW4HW8Qluo3UL+LRlHM2aoK2CD/HNgvIXvv0Lgbj+Ml05M4xS1Rpug1WJeHTJpiyZ1h1pWKQ3U60gaVpyYqEq1A61On1K7p9LAMYHJa4b39GUMBstkVMOsSodMawZhWmEpk0w/s94Rw9y6RzxXwLZHFhLHR1QaxZG4hOdOtulynMXXd57Ci6ebmNS8kJZnlhvVhAcab1xMIStdzDw0wYgE7gnEdG8Y+rT06a0FrxiNfFB0aRRwGIgsLVI2EQK7Ts7iBztex7de3Ic956ZxNqTG1aiWska36HkiWasOgsC0tL6OGE7+K9HJuI0GDQnsdosAZiDQNXxOmlkjl2y7F/ihfESYviQYlN8MWpzU0CfOAXZuW0DXhF7ytaV5nFSGcDyr40enUvzdjgn8447zeOlMhAvM6ywTcLkT82bhVeN/ZbFE8ouLMbwFMzBmvbhPS57ecvBG1IgCSS6/S1OsWCU0nQC7T03jW8/vxteeew2vnp5Gx9PSmeq/S+ayyV0ZnV6b4C2RqQJphTb951myGK8zLseWk8bk09+V9kWriUyh0yJjqm9vQs0qo5F8zUcU5rDKnd4QvptGAsj1AoFk/rivI9Hc2e45A+Bcw/4mkFNQzQbDOGWN4RdTFXxhbxP/8MIRvHTkPC60mUf83lzVVhojrUrDkHkXxrApAFUfwdynnrYpN29ivvRp0fSWl1Jg8JUisXxkpQqaro9XT3bwjV/swdOvvI5951o8VzfmtfoSOGresKQqCF5pXmrbwlcjkWETrftL/9dm0PqwvKEAsEzoUOCdMTMmagysRdPapnZWTbSAa8BLFaylSYrQQ/PSJYoZ84kLaE4S0UihS+DbIfKZC8wD5l1tFBjbhNP5AL76ylH8lx+/hm++dgL7Z3LEFI5aGdDSCocsDy0epiyXFSN3RGOuvSu+sE9Ljd5S8ErjBp6FOE4wS5P4VAN45ViIr/xsN36y9xROtGyEpWFETsVMPOfEZJw01wxOQjEBzOTF1Lq07qQT4A/QfPaphV1055XgrwYBkvvkwyUFgNO22oLVBEVGNhObkzHJlCKjtfiXkuFV03rTSMm5XtDG2PvMB217gfkqjWsC71FllvLYDRwz+MjKKPTCaeYf8z0Yws5OFf+wr4O/eek0tp9s4SjLYYbPRp6DPAjoxkgIys+VW6KtQp+WOr214BVrEVSu62GqHWHHgZP45o9fxrP0c49NJ2jaFcRujUzo02RzqHDp13Yi2ASsJ82qRZCMiSdTr0QerjLSovNullGDkMcEXY9aVNa2Q2bNI/rIHWptAlcr9Bvk68YueAtQ6KcXbhbNT8PVgnBKLdkFrHK0e7LYiribMxdyzZAhrRnNohSehxtPMEP47dSuJ/Ih/KJRx3eOtvG9V3bg5cMncXw2hYZ5xBpDrAnxKMzoVRc+dh+8twS9YfCaxm+GuRpLBhV7yj+tlC9tYEw9alB1ig8JtnOdDNuPnsN3Vav86iEcmhFwy8g0TlXMKV605RNbpidWqjVsaby5Mo/NEpmFlhWTqtnHkLY81CwyqqxRKCqgeF7NQe02feAWTWhuaVLnBLGZC1nPmTgYzK5Se/GPZxjm0RVOvZ1kfNue4FGC51HvWpEvtEiY52lEfz9pw6cf7FsCoXq0eWhnJRxoOvj2gUl8Y9dp/PjAOA6O00em+ZFZJZagjTiNadUUlYOq3TZrRZlaacUzL3TL3dRGLmGay7ZbnMxn6Oey7xHrX0KXMstF0rlezynTVmqaHRi0pCSK1fNC7qu5QS+xqfRigvYETdzvHTyDv/vFPnxjzxkczOpoDa5BFAyYtJTIZFrYeZa+bRhQC5QJappyERETEshqxDBOmSqx6AtrXgib+7bLNLhkVoaI2NYsEfKH4ZR5L7VQs4G8MYNklqExa2qjydl8I9NnAKm3k2VTmt4UFm7uGBPc7tmiJg8YDNi7xzcyLIZ0nwROL/SenXeuKIuU1grzhH+J66PD7+9krpbeZTnwfNxi9k0zP4FX07vw5X02/u7n43j6lRm8fgpomaqFEgUc48poseQhQrobMY+LlRuY96Ybq6qpdQ8tHAUD7KVNvSy7lYPYUCJaf/NpAXgXQ7l8MLdMyeyppYEaNqfZa6OiGlxyTEJQZz5h5rr46o9344cv7cX+42cxrdpgcVRKBiGTaCL1iMwXigm7cb9x6mnMS0kTwYkyMnXSCRk63I+L7pPmZdrK76XNQICaYLKHHG6u6R7tKoveVDYtPRInEIxeNcAxlsVXXnsV/+GZ5/HVXacwTtPcC4bhR1U4DXWqcc1C3I7WO2KeNdshWnRpMjUqORKuLHvVSfTpptGbyn2xtyo8OgSIan7NWrJNasWERcvj2TjF7rPn8b3X9uKrL7yO5w+Nmx4/EXWbSy2pnlaORu/a9K7INMkbaLIRpoxyFF67295+L8hH9OjLGeWqDh4ELlSBxaBjWx081I9XZh/Tk9uELG/Wsiomrjngdg3p3vEtTnI8HJrSWub4rLRwI8T3Tl7Al/acwNd3XsD+szKoyhR8deafQ2HH40hzUDsoBWWCu2S6PtOgYhw0x1WYfbpp9KbAK17WkFNxtopP05FamVAQoJE42DfewXdeO4L/+vPXsPNcgtNRCW0yhCYXd11qZ3GF2ia7JqyWAVk0dd9rfub2RfOPNTUpgw7UQURgNSvBtwlgms8Es8NjA2J9gDHLlRZuTeA5faTRVAzGdlnKpDQWm2sFVSA6dkrfluauVq8oDeO8PYSXx2N87ZUj+M6uk3jpXI5JFo+qD9QHRh1slI/q4qrJ2TVbiZaf4aU+3WR6U+AVE2h5Toc+pC0/0pjRFYSphX3nYjyz/zy+vvsMvvf6JJpWHWkwQkYZKlafI1ekfMb0+On5THOgWwx1b+a/mTJ13qmi5ouB//LNTS2tKrO0lY8oG5/gVWcObW0BugvYYhXCbjw9EtMLvApLnAqP6Pp/qYSUvke10/4w4C3DhbCMl07N4tuvn8EXD53Cj053cG6aGlp5QQvG5ElC1yNsUtbRYKap5Wg+aAK5TzeP3hR4ZX5V0YAbzxj/VROkd8gPB6eA7+08gW++ehIvnE6QeqvIHHUD7JySPstdU5usThtaRMsASjJc20Xio2cmG+CKqcy2F3RcRCX/VV+nARCWRsoIwKpgo/ZFp4WcwQo7tAISKt3UdOQwk8Lz2TkMMwop3SWveBdJspZS1UArLxIaw20bbodfnJXRcOrY3ozxj0eO42937sFz+49hXB4Hsy6yHLQp+NqtWbo8CUouhXemWm26IX26afSmwGsAlzThBi7sag3TjOZVmlv/+NxB+rgHsf3YDMFD0I6s430FYLIwNLWX6mBhqf1WvQnUEeONkBA1D6SX7nePxZj8qkRMquFwBK4rAPe0ryrMpHHVgSMi87UI4g5N6Cg2vbE0JthEofhEAu4tgN6ekLlWMKQ8574lt6Hdhheq6smmoA1Yjj5O0aF95tg4/vanr+FrFMIHZoEZPpJWB+FqcXBRnmkhfgTqc9qnm0ZvCryGD+jjZnaAU3Qhf3JkGv/w3Gv4+kv78fp4i8DVchkuJXsLfkpwJOpvLDOLvrEquNwqmYjgVYcL1VDPqbpF0OX3CbBXIK0UIDfcTAUj09gMI+IFc780fYKcacpnZpHONpG3qIXJyDatAjPaSAyul/UExFImUyDXJ32PpfVRJMQcCqpyEXInoUyTMONNeQ2dbBg/ueDg7185if/+i6N45lATx1mEYWkQbWhpUL2SAlFt8H26afSmwKvHUgLw1EyMF18/je/vOIgf7D6KAxNthI6Psu+jSp/Ib0xiALFZG9CsUWTA4BM6PhlITESuo0rg3hujywF7pWNqXbXyFIPPaUSrZlm3UVvYPC/TXx030CRXyg/uaE2gmIKmq3270XR/GG59MgP61dhLsyIPckRBgo5Hi8il0GK+eJmLStuFmw1iZuQuvDrr4Dt7TuKbLx/Ez/afxLGpjmlDTpwyS9WjC3R75MutSgvA2yGzkqWRqU3AzFtTVHTIDNWgbZlMmhzteLOCFw7P4oc7juDne47ixFTTLFnpeOqZTNFMf8jWSgdG60njsqD5bzqAGB9XwOWL6MAak05hPgk0vdA7NiDqhjl1feVj1TXnFx3k4jxRq0W/int5WoCOCN6EWieWaU9fmNpYfq/T7dXFPd5PDcNb50IvrSZ9uo9BGk1hKZPSLYFp/AIjvgrhxq3ruqabqR1TcGkdpNoAEreMw5MxfrL/HL79ynH8aM95HJzIMEN/2YCXz8WgpaWKK9VdMW+UPb1uO8xYSc/i2ltCKldStzx6fJR3eUDU27tWuBXoSmktuHgezTBQB5GRmfFtwjgpwKt5GTo0NeMkQbud4ukDIb65fRw/2zeO4xMt2IGPWk3d7CI04iaaeYy0XMYF2q0NMnhMX8sAOSNQtCSHirnL+OoOeTnNz1zTv7cX5v9dFcBkTKPZBSjVljJoCCFDzn01Tan1Ut9FhxeBHcJimpP2jAkO0+kK5FLdOT1Cahs/taBOXY5GKSnwURqO/NM7CG71v06LtuW3Peir9fnXC/wcZYV5hsVrxfyChC4O0y053bYzNEspImsW3swxVPjBVmkIxzs1PHM4xj+8eA7f2n4Oe8/kmGERqmNLSE9ZnXKEUwXJfHXliGhgI+dNOvFWgber+fk5xU9XEeQ8r1Ccu35Qfix56qV3HonbLyG/MUPfr43ET5FUeLdDNifjVjMfaRTgWDPHz89N45s/fRnbXz+Fs20WoFMzvhCtaITSPm4Jtl+jwtKSkt2IbxrxG3pavkuCnLhZs3JUaF4nNJuT2Un6vxNImtOIZqeQUgsT6vA9ByXPQ0kryFfK8Cmk9Hgah6YfsSZ38+0EnkPT05K2ufVJDQFhlKPF8rTLNVSWrYI1uAzHpkN844Vd+PLPd+KZg1M4PUOBna1gObu44M1iPGe+RU1UIxe15iCyVoA25VrILOvTjacF4B0mk3vq4khGjF2aylQxGrQty/LcrIVnDpzH//f7z+MXB8/ieCNFy64iCeqU1gFSM8ZOop373HZML6Yi3rebpGkuIQNgJYZGFa+pE4cmq5MGLgUBavUaAs3g0WmgfeowOuePw2mch9+egNW8gHaHAi2lJpJpqZ5FRjPTcKTWsbMOffo2w+3RdKJvtDSjCU3eiGZ0aPn0jWuYZFnvnUrxw8MX8OWdx/DtXePYdwo40aDLYXdQDToo5XRDJmaNttVypS2qtVnacn268bQAvGp4L0l5ksnjLEYzjtFxXBwYp6n86lF87fkD+OnrU5ihqRXSnIzV91Xmr3wp024rrVbEk6sG86ZRNx2i+QLEoNoY3TxtI0zpu1klOLQWfJvmMs1nN5rCpnqOR9ZU8PgaH3cOaEwxvbiIAo1qyaxo72t8Md0ECoGEIDadTt4y+/DtJVkknqmjYEgTatOO6YOe+GVEA8twIg3wi1Oz+OJrx/C3O45i17kEzZYLm76wchVlBmJfdWMe86t8BTbr0y9PC3OVfKlC8+iHOom0p4f90zG+ufsAvvTSbjxHzTsb1+HQjNQwvkSFK7WsYLo8aiJ0rSmkpiE5QvOR8/ZRD6KGAYsDQ2a3u59rmlh/iEwW0EyUexBjjJi8f3UVH79/NX790XX4tQdW4KmNVSwfKKPM3NJMlanaSjSCKajSpZbwco0A01Q/twVRCFssz8CjleLIZ2XZxtSedDG00HlUGcCZ2MLzZ6fwDwdPGg386sEU58YpzHMKtFpOTT1Nn3gGdT4ul6tPN54WgDetlqiNyOCxDx9VTEU+vvTyHvzt8zvws+PnMJtVUPNGoVX60rRDjaQ2XAaEBEYMlyakuk2qQSjwFH0XKW8nzUNosct0mFCcM9YzyczzPLCCzGqb+Z/rxOMDG5bhV951D37j3Vvwaw+vxKfuGcaHtwzj/Xevw8ahACV+H1oNfq4cQj7g0q93SkjVhKLj24A0L3YWtVCiJVKnBvXoPhnBnLQoiskcrgRXBSmtlWONBJ9//iQ+/+I0fnzMw8FmgPNRG1E+iXKQEPzMdxlkfbrhtAC8Hdo7WTCIDk3JI+PAt58/jP/+7A7svdBCWh9BZWAYndkGoqRjTEXXzlDybdRKLs1tooISO6OUtlhiJTUb3QTszhFfbiaaowloBip0AaxaZjMBO12CvDEBRA2srHl47K51+PSTD+HX3vsgHlxdw2ovwiqvhQdXBPitx+t46o5B3FlNaFZPA7NT0IB/0xTSbSrKr1BrfiuSLQ3re2YAQtF0FtOMpr/P8k6aDTNXNjOSN9JMScvojGzA95iN/9uLx/HfXjyFk1MBas4IrNxD5lDIy5rr0w0nZ2ho6N939w39s//xXyD3POw6E+EffrYTf/ujFzFhD8IZWMnCdMjnTfK/nBn1sLHgOOp+SIBwX26vWgYyMrNZGNryyduLE7vGV7pRRL4qmpaKrZnrWSDuXpZZaGbVIGN6M6exZayM9927Bh9+aBPec+9arB+poEJzUf2e9Vw5CLA8cFB3UmqjjILAVkMI2on6aFMTGV+/SL/eeauTpeGU9OfNSoN0EUzTsCrqGLTihDmRyy92UfFpKtOCaZMPGrx/YraDqUlVUGm95SqvFW3JgQTndUhltRjqcYqlPvJ87/kmsGMyxCszMepJjeWdI3FDJpGcmC1Sctwi5Zb/6P/X3bsCeP/dn/zPePn1c/j69j347r7j2D+bIXEGmAkBfUKNe6VJ5VJ3aRZHFoiZ/oYFqpn9U7WL2j4zNGAGU3KrrU1AXwS9JeDln4BbgFelw0CbWasMCnBVWn/vWVvGRx6/Bx98aDMe3rQcawYDVAVcCp2YDCpzWGNbq8kExgIbQ8OD8KsD6BCzk80OGZw7JHVw0Cohi/vapU3qC6fWAjPpglwLfpspIeZb4XK4BLLLfHGLb6ZPTFjzz8Vs5ODYRIwjZ9X+G2G4ZmMZrRpPvLEIWgyA++AtaEGOtnnmJzv34Yc79uMoM8Ouj9H/ydFpUuPSbDJ+LLWPerEoEzWqz8yQQhcwM+BVv2aiQgVvSroLmuuEXoFcj1QLbjNe8249ayqJ+C6ixqIQ0fzD5SxFLWshyELaALpTTUKuES5aeW+AIFw54OPB9cP4ww/eh197YjPevXkZ1g951LiM1cTPOM13dOMnmOtlF/evrOFDd47iowxPLPOx2g5RSml+W0yZVnrg3aY5id+vPtKauaPocskgK8RkGE3QRf7dFDImlIQSv7s7h1gh75TfhQaWRaI5xyTE1JHHSRJTLi26DsdbGb5/eAJffu0svrVvGjvPdtCKQgpDecy2EQrKX7NapAGrck0ankqA8UkAFoGCVudNX66uWFSe6nbRgt4VveP5Ny2SdPtSDYaUT5fywwLN+9gf/Bm+8tPt2H+2jdQbYdbRB45pJNoEMkErjZTLNmbmK38Kn1LSWd0iBSKeNMzJe3nDfEa8+l+Pegm8cmDsKDNFkgl6QwEuBjEB0+QStGWmr8LCruWzJn1mqlgFwV6gdlNsGvHx2KZRfOzBdfiDd9+J5dQMZSJNzGdSQ2a1+U0agO7qkO+FU2Vk1CD8vjFq5tUlC1XGOj3dwnhoYdaqIfNrvLkNLaxGFjfCxEw9Sw1hlty0mHb6j2JEm+lWvNcLc2X3NpLwZMqOeamJBi/W8DF3zEWlSxPUsRxSukbKWwkvcz81HiJqxBzn6ezumMgx0QhxV4Xa2acprXoQFaSiZLkZpa6uWZqOiMCPEuacqhC67zCLr4if+F7bDKrQ/SQlgxojp3A538wLzTsboZ7WGSd9c7fDOFimt4XDzY/thvxH/9GcEZmsm0+vHZ/ChdA2DfNaKVMTkBnbiAVoJqFjBNlNahIRD0XS8kyDpD8RoBIsvoIWgXz12AvQcso4i2G0/BG0czIVNeOAFWHEbmK1M4snN4/idz74AD77vrsKZuySmVxvXuiR9kz/E72HweG7lg1X8MCWjXjq4bvx0LpRDGcNYOIUhsp1OOS8KI7pTlDTuARppcy0+UW+kUHt26Vii3nnUbopUF4xENyqXVa5MKPkM7faMV46dA7/y/d244eHpjFOC00NiJqm11NH3PaMyauISsJyXZTUqkSWS9WmzpAl6oAqQccXFPxbhD4t1LzR1k/j4NkZTEVkQHWEJVRKAq+ZMYOMTA2r9kyzcNeNCosmJkAaXsA1BSgkK7C0lTaK9ISFHKuHV2kFwWNRc+YIkhaq0QQeWl3BH3z0EXzi4TuwdXkJw+IHAk0AvgSs3X2d74FbXTBkcsuikMCQj1um9q0PaeVCArPdQHN6EhOTdC/4p95FmTha+oPaWgurOcZH1CyVqtAr4r0evZHcebtJmlnjtTWTpNHSSi0/S+UjHjHT9roO2vQ7T7dsjDciNBttDJYDjFSYF7TobF+rJLmIeI/snsBmCVILKyqH1olLN8yRdcf8MnNKM++llZXHqlAsNO98n5eal88XPi/N+cX6vEuaxCsFv8zXvAvAe3rdh3GhlTLD6S2Kc5hh1YA+YxwaizgzPlAB6sWx3w0kMbzMZJJM4Nw42uoYIu1LoBDYJih99D8R0YTtTGNdJcMHtq7GZ5+8F09uWYk7hgPUzWCENjVFycQnmq915wNXs3boLfKfJR6Mk09TLqCmUI/KCrXqgKeOLQmOnZ01IOcPYtnchUri02Rocl0xxawqhK4PSzHpUiazCkWqvGD+K9+UXn27caP4zepGyrJQ19mGXUMjSjE1PYvJyQk+lmJ0dITZJHOb1ggB6hJ0jtViXMotl+e6TY08Tmijmzmk6brppJyoPngvA++ZDR9GaGoGGVQ4LJha4NKE6ZgKityRXaMMkdd5fQZcFBXpWgTpRha28cO6IKIklqlmmEVpVqCU8ahtB9DC5hEXTxG4v/Lue/H+rWuwjNrSS+nDaxpYSXS3AG9P284Hbi8IvKps0Wgjm+80E+hJ45NKZD7VWi+vlTFSrWA28ZnKCG0KjlAMrYEMmrtLDiKZl6qDDCsRwP3F0KLz5u0n5bba+ZVEAUU5KO1paqkZtDVXJUyZzx1+++RsE6cvTGOiSeAxX/xSBSXPQYUmt2YVTTTqjHymOoHiDSZSJKrJKoZyMUaWm0IfvJeCN932GYKUZp6YWYEZUPIdRJEqIlgg0rwmU8nENwq8hhbDpbxHrzTAVdoIBEp3Y87KbMsUUvjUxmPhWWxbHuCz79mKX3vyPjywtmbaaVW90m53kNAXDioDjKLLIJfRfPDqPTJzxYpqYtJKEUbrSBPw+RI160jZwoqhEkZWjtAYSDE9O4lm2DGWii1/V8Clwy7rRb6izL9F0WKy5SaR8j0w7f3qGiqzllkiJWz+umVlzDWWl4BGQReGOSayspnI4cCJc6jVBzFQ9lCjlSJBIPeEkOPT1MaqoFKciod8aMl9U3noGu/og/cy8G7++B+i3WwgpGbKqCHkv6gOItE0qdyXSVRoKVM8N5CuHxuLCx4ToyYEqkGCgn4TC08z/SeNBk3kJmp5hNWlFO9enuGf/spT+NCDG7FhmP4pQZt2GojiBF6pBiuomknDfcZj4iZTXCsYiBvOLDppWPRpjTksDEqrUluUaDoPDwIDFf4Q2I1WCxMXphDOkLvIuE5QgqfnyFTquHBdulhmS5JkJqs+2GzJE3MCX7mlPOpVbKYxnLhl5n1OSwMAta7csqw+gj179qAxPW1Gdg0M1akogsJX5rOFhZUWbCchwR1pcikRlUcfvJeB91N/9Gc4e/okZpv0B72AGUCTWY3h0jgyT8nIRdW9CulG0vW5VO5UheUqhjE1t5oPi+nTighup4XVvPjAmmX40P134p9/8hHTU2qkJLNWhZ0R6DY8NyDWqBnIcT6lveLUN4nmg7UXzHkGI+n1J00tbjL2GxlKJiFJs2HKj1Mt6nDNxUCdWp33zDZauEDwOnyvVvZXU4lpv1TPrOuRXlwkYUmSeCKjUE9lIs8llFseO9SScg+UvwGzqkrwqbLKzN5Zr8KqltGYmcY082eqFWM8tNFOWFZUDjaFomSca8qH7o0sLVNQdDdSgleym0XwTgevuPASeuSOMYwFGYI8BBUJ84vMpi5yYl8VioppMVrjLSAjc3MaVqokMQDU4mQqHBeD5QruWbOSmnYr/dsHsWXVCFYOlFBWh5JYneqVZpU4QUtG0CJcqt/sUQ+svW6ApimqR7qNz0teSZtoedGQ4O8wxMyT1GFMrkfhYKFszWCZH+OuUQdPbF6H92+7B/dvWIsqGThsN9HWdDvqvXFbUAEogyQKJaKtsEaYUQWwNQIr5HeHaBGgJbk4BKWtKYPbk5J4Ziz4kbCCHxyN8PWXT+BnL+7F4RPTaLPIZNTkBG+cMc+SjgGtMDy/aN7JtEDz/sX/5S9w4sQpTFBbNCnlWuIzDYGjJDV9mVVVn2iik64uUvnpQYGJ2kQAVwcHFaq605ny1fVrkLG0ZHqyZARFzaFczOKYUYIrKsat9xK4uSVJL9Od72CySmSS1RUXT2waw4ceWIun7l+Be9f58MkYmgVDCTRmvsBpUsLA0i+0qs5fnRPma94e5+ictIwYS1eKrpcFQ5kmLIdMq1vJpfUSMFKrELguWtQw0x3N+ERzUc1GySz5XDHr/dqqCUyVcXzYNH3JPOd52aRLlpi27sebQR9MelGY2vKfZWNaBViWaZLRXfENtjUDiRnwQMCrPkBDH5qUyTOzHbSmmpiOmcNUvaUS3RotBE7Na+Jg3tjqwWdexX3Fz7wcb1jYPplg+3SCoaRmKhYTu23ucXJVIF7/b2mT0lek8Zpm8//jf/4zZpaNZkez5k/jgpaQI1MRCcwoMqsy0khBlgKpZxqZDutakYCZKT+UO8YXLXR7t0CvRdLmjEt12R41q0Op7VDqynTSSoAZ9/kC4pURsgADRlmj2bSeO09tWYHffP/d+OD9I7hzVMMRKdWtOt/KhAlcAhWD6ZbXBV8v9AB6NTLXFYydVtyrT3K57zEoF3SsK6rUalsBfWlN3t7CkJvQ/1ZvLNssCdNOHEwmPjoUhg4mmCSa3cpHS+Z/oFgNk5oKHlsmIVOoebiWKJncUNHye4tJ9IVYneySblDeq8mIwl/93zXpvmqfJdxM/vOvd0tIoB1vlbH/vGqj2/SRA9QrZZR9ujss+SRqkyeoIFgW4gNNkp8xD8dpNm+fyLBD4I0rXfC2+B55x+QopeN6YUnTxUReE7x/+q//DEPLhuCUBjFBbXHy7HlkfmAqG1RASaTufcxpAZTMahOsHk1GDSOTZJTWoDzkNQVGuIiMkYlaHxpBTBMrptBIWCheqWQ6ObS1xi7fCdeHWxpAKfQRX7iAWtrAAxtq+LUPbGW4F1vGShhksgIyuzoumuaKRdD1wPtGSDFRr5omD0udWiiEPDLX0EANYysHkXs1TE2dx9mJC4iqq5FOh4b5Sj7zkIIpmh7ndzuoD9ZpKhIQ9BEtaqbbg8QPRV4XkC1oLv912ec3VxK0wwamJiYweW4aYSNDrTSMlaM1lMmDdFiYwwSwOm+k3Cf/yed9eaKFX0w04LXJNxSaaYVCUHUd9KNvfVIeFfl0TfD+yR/9sRnLWa9XMDw4bEbUzE5Pod1smR5LuVsmkGgPChvUEuo9xGxi3stMLvakpUytPkPPiroeOYxHs3KY28nQMeNIJJJZOKZjBt/tdDJUpyNsHCrhyXuW45OPr8MHH1iBzUM5ht0MpZTmsGZxlFm9SL/yRoJX1oNF/8ymyStFLVdAU+i6zK8KLYhqyUXd7dAP7ODgRAl2jdYBLZmk02BWhgRthdsUrZmGsWz8So3KrDDQbyeaD97iSL/MLidC4s+a/gTNto3paRuT03TdGtTRVongtRGUyGkU0soVJ2yb9ZQmaBy+OhNheyNGOdXsJhnCEs11XvNi3nxdWiST3jTq5RBTei3w/vmf/EsqjMTMmDgyWMLY0JAB7tTULFodMhp1hBawljtZjO1k4Lcb10xIdWU2y6fUJZp/8wrnakGkdXQNm4rr5RjJjmIpUXaawQBulKDMdN07EuC9D27ARx7biHffvQwbBsDzDTOaiIasecYIFm4EzMWEG0f8/pRWgoSOqdiib2wW79ZUsg5qXoblNVoZ1QAn2zTv4gaiTpN5So1D6yZlnsfyDmhiu7Jo+Exyu4BX+dwN88u92C+OUtPKq3nPqBwcLb5eQSuyMDHbxMTUBIFKd6oSIChX4DMeh4JOrgeVLl6d7NDn7aCekSHobkQeLUTyo09X5danizl2TfD+xZ/+W2oP+pvMylrgYfmQj1JQQ6cTYabRoUTUlNqECTWbzGNjnho1w0DeVYO9al3V3zUNQ2buYkbPqIG+22VQBSy1rZpLamKb0rXK7XJaA5vH6vjIE6vx5IPr8eCmMawbYEFSc9lh0XnRPKOmGGGHZxZDNxa8JH6CgKvFuVL6skYAEX+q4vLd1HTmGK2VUC9VaBaPUyA2QU8OiVehltUSMIFpovNlNsf08U2l1m1A8z7DYLi339sq36gBco0CovVk08JTu3hMK2ayNYNTE+cwSwHfscpwgzJG6GqUyXuW42OKmnkHbWeZzgPxgJGdsRMzboL3thpVdB3w/tmf/5np/OBQ4lvUIgH92dXLyzRXhtAhSGZmpumX0oRmRqqmNaBP5nqabJ1mszSxAQMZT21wUWgy12g4nr1aUE+dcllr4KhGuYhDviPas/Ca01hbdvHQxlX40CN34aMfWIWNq2oY8mlCCeuZfG8yvXxw/iemNlrDExZXaDcWvOZrEOU2mcw1teLqu+tJqBhzgG4F0zZATG8bpVC0QmqWFOfDHNOhLIYalU5VYgiuKgWTEKl59jYgwwM9HVvklNkKtNoyuLlPTVmjGyG1QFHu0xpjaKOD6U4bF3j+9KyFiNp41CfPqJ2fvDrdcvHqhQ5eGW9gIBpgntu0YmT35NTO19e8Ji29BC1JUuKKBF4TvP/m3/wrA0qZrbo97XQMQJfRXB0eGkWJ/kRr+gJOnZkgc6njA8HrFn5mQkDLD57zcyUZybzXyxfVOso8NEqLN2vmQpugDVrT2Dzo4wP3bsBn3nMfPvT4CiyvRJS4psqM76dWo7SWtpfW1YJiKc0ues9w6SP1zOJrhRtK/IBc9QIeA6PW9ygItswJkx+SSRqh5WIcW9ashB1UMdGMqVlaCNVmrYH9zVmmLUWp5FMQ8P5bnZTPxb8O5v2Kuh/IjZP58FJaICy/jJDNLbWJ04ymUIZXRisJcHoyw5nzU5i5cA4xM6c8PEQrBzjQ9PFaI8VQPGi8rsSh8hCfLKK23qTlYoKWIClxRQKvCd5/+if/ivdRb3X9Ns0SOTvTgE/tumzQxYrBMmoE8GQYIEtyo4Ejglg9niTrTHMBSYDSNCm0euZefbVghsxpnSBq4IDvq/Gh5dSsD61ehk88ejc+9uhdePiOYZpKLJRwxvjj+rMICc3/JoVvkktwmL+coO72fHq7SZpEbneXJQlmMhEtFolCdfDIKGQ0RxSsiMLHQr0+jBVkwAE+M3nmGCKaiF7JowBw0dHH3WgBczNoPnjNduE36Yy6jMbMFzugHUfNKpIwpO/AUi0zT8kAFHvT7Q6Ojo9jcmoaHZb1dFTBQWJ8f2xjIJP7kaPjqFY6owX5DgLvv/iLf0d/Q50gCjNYDe0ya7Ueq0fnreZnWDZM06aykWZ0jKmZJhrqDkPt7FA6yh/uAdho8MVUNzN+aStolT5qnuWlAA+tX4OPPbYN79+2HveuqhK4IZxoFiVQsrIQixUPhFo1G/CtVHUa5G6poNUl7vpl9taQLGNTBSWfK4ZHQSSWU8WK1kiSd95h4swabk6AKkE6VnKwgq5Bnd/SoQ88RbDPqs2XFo0ZAHGLU2HldA9I83YL0ifyOzP6qblPbau5omW10V/VWkpItJVYZhm74hXH9G4bnxjHTKeBaVouh8IMB3nPIDW32pM7rprhaBkuonukSduCRC0lupjAa4L3T//izw3fS4MIuMpZPwiILwE5MSBWu2VtuEKpRmYMm6ZDR5saWHWFAqIJlKLqv6vODIV5Sj9YspDnDTtSC6k/lWqIteogqFGHCODNozU8sWk1PnDfRrxv2yrcMeZioES1mrZoUcaUyAN8lvfrn2nSrunlpCjNUEbtMHR3337i1ynz+K1Kl6vvVCcXglfugXJUnxtZdDfkD+cJqjw7osrBunoHOWiGKWYoGDvKP+a38tnlBymoA4I6q2TqJqqPVKUY89BWMxX3rhUMze3cADIFuQgy5c/N3P2XPWgu80egpbmry1ooTB1UDG9IGWQp85PuEAWcOgtpwvyw1cI082pWnV9yD20Kw0pepgsWQR17lP+2nu+93/yS5na6ZG7RySUa+PnicB3lz1wDvP/Tv/23ZBbTamu0mzqJG/9NJimZTbXHgt1YxaIZ7Zi2tzDqmI4Hrdmm8T0dMwKEzxBsMnj0Vg2BK0bSiH2V+QQuGS/PGF+UYWz2FJ5YvxyfePgufOKRTXj8zlGsqmu8LO9XWyifidUzxzQhKQp9CmWxEQLa8qTOS/JoezPIJIk/tOFNXhnTnQlS2pheJZmKwwTdpqTmmTp0xNTOFobLJYwODZs6hE5rFtPTF+gHa/mZMuFZgivrgnlh0SRMtP6PqVbXvFllAqOtFFyb+M7LYPP2kbEgemEeMU1zQQVnapuZM7xfdRdmDhPNn0bgqh5ALRBWrIkUZO2VEdoVtD0KvaCOkVKV90qJJKaiUNMeFAqoyHsDAGl0vcy8U1uzw7B0SUKvl8L54H1TbE7owYsa2Ejt++TWjfjwI1vw2J0rMUhfxYqaZjJzLYuJ8gAiSj4tVpWmfJUm6Q4GYVdo+tLMTrMO0s4FCtYZvPexO/DkY5vxyH3rsXkDC4IKFmkbYTiLWGvokol9n1raZPatTxKOWd4xIbVCmsgd8mKOsWHg7nV1vPveVbh3zSCiUyfNCB3Vpk93Msy2aQqWBlApE7TUMH7eRJ0mYp9ub1KbdTEU9yItNJv/9E+7e1cngdc2o45y1H0fI0MDWLlsFGXPMx3w1aEjaVEzSONUBVgG0yuL/ov86GYTeWcGZT/FimUlPLRlOf7pU1vxwF0rsWGsgiHiPqD09ChpfWGegFW6Uz7rmH7TjLoL4lsRzMo/TRwgf10DLXJqC/ntqnRzXQ/lkovheoAaNfFk7iNs0gduaZgb87BaN+5JEoXwaUqW0ojKJkJETXNdWupZZRRzj0G55X+R5GK/u1f8Gs1MYvl7vjpuaFYO5g95TpNJqD+7YQ3lM3e0X2jeW5FfLlL+7DUmXf+zP/sz84HXDIpOutx0sCc/0V8bqZepNaguadbEYYemNE0btfWKObUfRXDCCB7NnSDtYHnVwn0bhvC++9fhQ49uwnvvGMVKMqzWCzITtdKU1LuMb6xpUnOH5UCfT01YOt+l+fu3DNH8lX8u2abmDLklyk85AMrPkmNjwHOZpxWMjY1h9sIFNDvqxxsgU6Vgh/ClHxjwHpvgjdWZwyPjXo9uiawSMLtbUpHkYr+X/mIWkz54rwje65IygxArVrTP6cPlqNC0GxsMMFgpYajkYMC3yIA5ap6NQfppQ/R1x6hGNwyUsXXlIB7bOIon71mJJ2kePsr9MXJthdFpgTJ1JywqKZhs1RYKvPQfFdQM06NbErg9Ek+pBlp+mWErjZXW9wrAGhfM/GM+rhwSQIu5i0NaHrMdCkfNdO74FGSeUVQaqaOa6evSrZBdAh43xjopzpAMTC+S7nkHgfeS758HXmvDhg2X5IymJbkeKVvVMC7oqnLQSqlZVZHCTAzh4sx0B4dOjePwqQuY6DiYnm4ibKu/dAnLR4axbvkQVgw53HcwWleHfZtmtjSJT0WrWBk581z9nWlImuYBo5JIqlC+JfN/PvHbZPvmtDJifo8O1UrupQSlBJZhW+WDKvk6OBu7+NnRGXxvz3n85FADR2Y8ZH6dMk0VYynznuCmxXM9MhWP3f23nSRlrkcCHcEmo447POSOCd19XdA96tOsvgV6hGAt1+oYGB5BdXCQ9ziIKORstafrexMx6ELwdqF/a5AUWTe5+f/nXcUOaQF49+7d2927OinTtKin8CR5bzQlTWHzBnVvMRmYox0xg2nqaUhwFNIstC3UKBxrZTVu8DYNm0uKyqjMUZ9UIZPPi29FRT5fJB33rt3KpEp3ZpcGQKkZU2TqpZWxuibSd2pd3PZ5oD6I86mH54818N2d5/CDnZM4NGMjK9V5rWaqEtCeNo9di24F8NoEnqE+eC/SVcD7pqCgh4g/OGI05aAyxA1MCOnXtltNw3j1wII6uy2r5lg1AqwYJnArzLYsRpK0WQ58WEMMAwLXJ/s6mmI1ZuZr8APv44tMBxkGjeGMtID37UBkwtwj83XBJHYyIxh7B/xetZYktGRQHkPU7mDAbuNdG8r4jUfW4JP3juK+YRdDLgsgbpneabcDCZv6fBO0r/wgFXUCxb623dPvKJLwMgJsHr1JPaY+oyG1bgiHYEuzBCGlg0bSZH6FYGTQ5HWmiyTNQTeB6xF4bhOJ3UCqMa30iVOfHi4Bn1EPq1dyJhOQWkQhczMkmr8obyPJm4yrDcdTPettQEKqR6vDVX+rrqpVuXTLJiGDqtWWIhCtVKOMqsyhCIOYxb0UgL/62J342EObsHFEHfl5V6g7bw/qAfaa1APyO5zeJHhFzOX5ErFLWmRLM2s4xpZj9JKUkhqqVJH6p7I1VTLqcaTKBd5l1kQycVnGdHZ4rYiaJpIpTBk86l20iOaQW4SKftjFnF1mPmh9sEpDgftqB1Yeh7JsmJ9ykC1agIPcvX+dh4/dP4oPb6zi8aEIY9TKmVs1A//tLEKJQs83835ZFIiShnwPBawrN0VWksJ1yCwDc8OCibEbLqPiM4tA0ucWh/Pu7103/FME/RkTWNab2ddnqUmR++oBw5iMZUfqafFubEXMvXO3QLgavUnw8vPV4UIdMdTjynERELRFRz3yGoOsXSkYLeOoFeM1dM/NSvDzMrzMh0P1Yqm3TK7eMEWPGPVIUp2r2Fq9Y1zG6NlluFaFZ6jNNUj7tiBlO/OAuaV+QPpqg6cueJV/FeZxNdMsHASm6gRyjZKqwWWe15m5D6ykBr53EL+1qYJ3D/MhR2VBkOYR81dLm1Isqv5AfgfLwWU+qwmu4FwF/vT2DYlLumHe7o0JEr3F57HUL2VMmYLdoI1pYOBpwzfdBOrP2M66oMEaAjAPzAR+muCO+6Y3IF8gC67Y8o/3mfeYWAqaf3xLBZZXz1/vkfLzLSO9rDeN6vVCnxaStLO6SmpCPwlIWSRmQAavlSkl168axGP3b8G77lqBVeHr2LZmiN5KDdNNC81mgpIkaHsCWUTXI6gCtWWXAacbRJcf92nJ01uOmisB9UqhTwvJDGygRdNzM1STbyQwzUFp54EysHFlFR97eCP+35+6B6s6p6ixqXHL6lsaoD05YRYE9wJ6zFS6zXYKs9wPg6yi3n7vuBcMsPu05KmPmluACixR31ITG7VLM1pLa2rergpRvHHIxcc21fGbj9+B+0ZcDNkdY3s71Tp9Zj6g8cOKJY4u0bzXCn1a+tQH7xImYUh1LuokpCFyhBX/DXqpIbW0iuaojlFzEqyu2PjQ3cvxq/ctw3vX+FhTTswSpKlbMXPmE+2wnesPG+yFPi196oN3KZNBr4CrEUjaEaykfbml72sm2jRjmjNozuxVBOxnH1iB335kBR5f5aOq/m5uACvNUc0jDLiac7uIVtTbvzz06dagtxy8vcbl64U+LSS1eGiKXc9VTaMaj7rgpQ9cmNA6zpFQMzczl5ZyhOV+Ax+/exD/7H2b8O41JdgTJ8xkbVX6wunsrMG/qbjtbq8W+rT06S0Hb59+OZrzQwko6lgzfY6WU4mJME1Op8EK6rqidYAyLXzO+6ro4IGRDP/mAxvxx+9Zg7H4AuJWCLs0XDTFLCL0aenTWw7eXvvU9UKfrkAEZ57oh/vKIgZ1QChqnl1oWl0tA2PWX6JzHGtmEqcMzZu9yg/xyGAbn906hA8/sAnLRpdjOux1/Si069w+g4m/T7cU9TXvEiY6FAQZoSXQ8lhmtIL6JqgJVzN7qu1XM32qE4Z6bJlqZs1nTGAP+i7uW1XHx7Ytwye3VLBtVGOrU9MhxlUPLwLeyjp8Tp0xNXlCAstMY0Q/mWd6oUfzwf5GgiHuGO9IHSy6++b4kqCTxf7ce+eumaOLNHe+6Igxf3sxHv1c3DW9/PjNWVYMdLjpwaRucaR0p+qgMo/64F3CJIvENos+dY8ZVGDzA/UvfAJRM454UI81VU8TwFYVCIZQLwd4aAXwB/fb+B/u97Gs4kGtwCU6ym6SQIuB29CQTo0KS+FZLoNn4u6BV8GwjUmHgcLFQCa8XjCMqhpzMp/ZMlzsLdXdV+Dh3Du1P+9Y7c+Xvpo/JhT7F4HbPSZQzTkRj3uAMdMMLwjdR9/mUPxcn4ppC1MzK+Z8Uhn16RYn8cBcuXYZQ7XTktZij4FqFevWrMEHHtqC/+kDm3FnfgH2xDk6zw794BVI7FHeW0fAP0dTFE1PFnH16S0lldOcFr5GkPRS/WQhwS5SH7y3AUlDa4kPU5yqP6BtLSzH1KyJBviT1Oa7adDHb27I8MdPbMAH7lhODWwhmggJYmppf4TC3YUdUhvH1OB8RqHQZF1GuZR3+vS2kRwiDdjpHnapD97bhliUpo2HBa0+0GaKXNvMbxVFHZqqKSqIsNGfxkfuW4FPPXoHHl9Ps9qJ6O7OMHSKWT6dMoFcMUDtAbgH4jkw96gP5reFioE9Pt0jDfu5SH3w3hZUgFamsjSuap8FXC14bog2tSqnXItXvRzL6zYe31zHxx4Ywz+5s4wV/hTQPAMtbNZxS+h41UsAOxfmA7gP3BtCvay8VsjMKiABav6lo+r64L1diKWsWtRUgUA1M5EQaQ4BrLWBVUNt+jhXamjFLayuAR++t4bffHQMT60HVhPAtq1aZz7b7aUxH6jFGZKO+3TjqJu/1wqq4FMXnOVlDbq9SH3w3i7EQtboI1VcqVZSqy7K301pLqum0qZW5i+mrDJiS8ujtrGxmhrN+zvvXo+P3jeGDUN8OKMJHTcW1PbOad3L9vv01pNcnsDJsG64e6JLffDeLkQ02VSvtllqRtOfZojThGBOYdZNJpC1BGsYJqhW6ii5LuxOC5rC/YlNK/Eb79mKj24ZwUPLc4yWL84VdjloxTDmuA/gX5qYhVesXb48wApRKVHYriie61EfvLcBqfOB1qoVMwhQ6getzhue7yIIfAS+Z8YF+zShqwS3R4awLQ9a1bHslTDk+9i2ahgf3roWH9o0gHsGrSIeRd6nJUARSkFoJnGcT33w3iZkUS0KbCpQ9b7S1Do+fz0zTZFn/F0tM1ox0w11b6T21RpIaj4ccS08vKKGT987hk/cM4ItIz68pI2I2jpVbKrBTkJzLlBNtqv1cgNKDkY2LxhNTeFg5l+m1tc0rdqXYLmmRNANV7vJnOdZc+niNVkVutgTNfINc6VBH8et9i/Gd62g525cmP8dV7zee68WLchUUsxb3cuQMK9jO0DilM1+FKdY6cd4oB5jjYZlz6M+eG8DUn9n12fxkx8ugldbsbHO9IKYRDOXkFGIWK3caAYhkKG8JMGqkoXH1w7ik9tW4KOba7ijlqFE6BYgUI0nYZzFZoUMs2yplhc1c/Mybt0jxlSgJTAHYE0cIFQpih5197VR6M3eYY750wOpiY7xaFuQLuiStvThu+DV+5VG+fumWcVyebY4V8wf/PYGvfuiQCvS0QvFPcW1LPcYSnByzdbGMlOeMSNSzT3NvI2Yt0lqYXPdxQfGHKzlY/OJMfXpnUrzB4T09rVdUfOM9v2dJzZSG7uoxFMI2x1YtWVISkNozM7AbZ1FkE/zAaPu+GQBMUHNHCk6mulaInauyepNU9f3675jyROTqeSaJJNkC/T+RL1rGa2elNZPlkbwkwaGMI2RfBLVcBxonAOSyEwov2JsDGtXDBcrZ86jPnjf4SSwzgeuaJjW8LtWOvi9R1fhtx9ejsdW+qhZEdox0HG0Bq6LUtpgmOE+n+mpTrUyS8v2AExmzRin9t8IGaB2gza9CMz+LUCFACsSqyy9PIh03bcSWjaRWcK2EUagU4Lcq8DzPdSdBOsrHTy0LMa2FR5WDlCIFo/OUR+871DqAbVHPRAraFkaj1bxqnKMj2yu47MPrsD7Ng9i0EtAJ4yWsgdL60oJuAKtuMiAuLs1UQt4xQgeWtGLph5ALz5y2cM87AHj1iDlR1dAKnS1r8hJWgiSaXiBj3xwNaYqq3EiHcKZZgY7nMZDAw383uYU712Zo8byuLSVtw/ePl1GYrLcLFtB9RuHuJOm2kfvGcSvPbgS79lYR82XZrXRQZl+WamolCJI1Zva8CfBW4D6IpO+MZU5H7bFfuH3CrU61tacXrI078uLdJttQfMFj1ml36HZ7Pho5j6m1VOVPm6FmnfzaAnvWeXi/aNt3FFpU0trOd2in3qP+uB9B5PRBt3t/KCVC6d5KVZtqJNi07BNDVzDZx9YTgAPYLRs85qHdkJ1QH/NShJTmeUQXGaiWjVVMdgMjLAIb4AMewuo2ukB/yLP3wJU5KNBsT5DwqcbzHeYLLGQOCW07DraBG08PYlyawJ3llp43/oKPn7fajy2fgij6nuetOmZaPJACc6L1AfvO5zmg7YXNCdWgxYyKvSyHIemcgNrvCY+dY+HP3z3GrxnwzBGPGpo+mmOVuwTcM1Wy62oH7XWbO62NdM/drRywyLJYFSMbo6uQALAUieD2+JPZIBL30FB1Ls2Syk53uS5dhPrs9N4qnYGv7exgz9+qITPbS1hw+ggwryGKKJ2Nk9eCtc+ePu0gFxK+aqWFxU5NI8zB1GnhTHE+PA64LfvH8Ontwxi26iPiuui5NBH1q1q09WSmnGKnEGzVtrkukUzmdFMVwCnOXeVa0uQNFm+FhLghqkuQFuMrzZHBty6Xksb2GSP42MbPPzJe1fjXz+5Gr9+VwkPViIzYYKa+9zKkFlFM6EVpIXY51MfvH1aQL4VY8ieokK4gCZ9sLQ0CNsvUx1PYiSaxvvX+maK2ffdtRzVUoCypzWlHFPpnCcpsjhGyqD9YvaMGwC6WwO3XaJeFXJFBrTaXNyKdPnxdRX8q3cvw2/dX8dTG8rYNhZgVc1DzbPhUui5lIMSiHJHMsu9zOPtg7dPVyJqBa217JqF32j+qheWVyYDUb+S98YqOR5ZU6IZPYTfuGcY26o5BmQ6SzN4HlJPHQ06yFXJQpPZLEEnzjN9KqiVjEnNd0gzmdpogtwicxeqqhsMpxf7oi4WRMWu7u2G3nEv9M6bZ01k1wl6zuHr1JGCu4IF06LdLFfvsGIhM4tmhL7Jcnk/LY6E36FVHDWbp+6yed2h4HPykBZHBIv5lnh107yW0Dap8vqWSohPLG/hjza18IdbMnx8k4dHV/pYW3NR95lTEoJ8t5nOSBlmKgNzxlukcj71wdunKxDBZg/R5R1EiUyrZVXUoyov03zzq2TgHMOlFO9Z5+OPHxnGR++o4Y66j7J6XdkerIChRDAQyxlBmhPAlvF7aUoSIKZZmEcGJ4ZJuacaagWix/TO0j290P2b2zOAFesqFOdNMOdF889xc51g4lT61PtJaTSVbap6I2yYPAHayBX+pEyQatMle8zDArcCjzMiLHZsglmDQGh5pBk8PjfAn3VVCw+NWvjEegv/7G7gz7Zl+OiaBCuDFINeStDqbcwzvr+QWRKAhC/jy1UGEiAsh/lkbdiwQZ8wR3v37u3u9alPYlyZewWLXL7VyKUO+elU5OOLz0/jay8exb6zLTg1gn6wjOn2FJKkRaVG35imd5zInC5GOhlUCF/6ERLUC0vmtdZT0mm9wiBHDMsDk45CC6nbpdZrMtY49ytDoxgaXY5ytW7WenZoxicEjrS6I/Rfh0yTjelSybgFTiFVb+L7UsVD4OhUkmuKPwelPEJJXSq4tSiJUtdHx6tgyimhKRS3Y1RbsxhGE+v9Bu4laO9fXcN9a0ewfnmFAhEImSziFtLJ16NeRaJo69atZitiNH3q07Wpxzw9Bupt5YXVnDZW14EPPTKITz++EQ+vHoU/EyOZyOFrOp0aNZrbRqvdNFPyyEQ2YGQctuPC9YppaC0tqERg3xwiQGnu2jbNd+6naWKChJTjOHApfKT7Apq0AzJr4wxxO2VyHWrHkmmnjSkoQgI2mpmAF03iznqCj9w1gD9+ci3+5IlR/MadOR6uXMBwNFWAjlmY01DpCcdrhatRX/P26brUY6D5jKR9W7XLBGTDTTHr13Bk0sEvXmvh+784i93n2pgZyNGsUvNqRf4mTWmZ1QRtT5nK99Wc06B2UwVXKh+PGtiIBr3qbdK8xjZnMvReGQUpv4tvMcMoPfUko7bVIAiNqnLzmGANkGgBN/oFYRQh7szASaexvAYsHw5w73AZ942UsHG0jDuHbCzzY9Q0L7YiZ2whAR9ZgTGSfSPMrk0Slr1lcO+9916zFfU1b5/eFBlNLN84qyEg79esCdw50sBT95fw6fesxiMbBjCYU5M2GRILgVsEV36tKKWOSwhXaVy1EZOR5WXeDJJMypgG05zDPyVD5rOEhoRUxu+QJk4QI7QjtC26C7yaEj0lWg6rKy4eHPbw8TU+/mBTBb9/V4BPbXDw8DILwyXGYntoOxQs3pBZtVF9mmvJFEpZy4DyeqFn6VxOfc3bp0XRlcw3i6AElSpKCdo4jsShBsUyXAgH8exrGb76wgG8cvYCpsn4vh+oysVoqyjtaV8JgNy0Kwu8Gp4YCziK3GDn7dG8Zu4vrThBk1i14KZ7Z5f02dLECprLPvUsZFGCMlO8ohJgYz3A5kEHW+oZ7h62sH7AxUgQU2tHyNWDKnUouxgfvQdpSrWHazACUs0XRj/bvny4wbWpr3n79IbJaNrLguEew0HyW0tmrK+PCawM2vjYwzY+++4NeN/aQaykqRnNTKE9M4moRW3DJ7wggF8uE2ieqoMIHpqqizAh3wqSiaxxwFoDWX64BE3A9DmORSGgKXFbNJtD6l0e0/TXUqn3Vmfw8RWz+MMtMf7lgy5++34fj6zxMFK2EFMlt0LlkYsKrY06gVumFHASanCGkLkUOYNIneqCPL1emE998PbpTZNaZhIyZks9qqxl8O018NIKrNYEltshPrathN95fA2eumsZBks+/TvCJCEEqDI9x4MfaE0lVfrkZsK89Ara/e0grd3k0ZyVesy6nUokSNI0RkI/V4uSV2se1pZiPOY38et3DeFfv/dO/OFjq/FP1rlY687Aa0/zWd6vMR00o91y1RgPshTUL5m2ACrMq5KrnlJAO8logfxy39sHb5/eNOV2jMxvmDbdOPUQhXVY8SAqXonm4QxG7Wk8foeLjz56Bx7etg3rVq1CWeYzfd1OGKLdoTaLaULSbNWAfTNR/E0gR9qWaZb2jaIUIdPWYdrCqEPNG1ILuxgeqeP9m4bxr7cN4LfvrOHxZTAzj/gUYBJiOd1/yw0J1ibdgDZ8AlnmPf+Liq2c+UNNLDgHBHLNYbzMP7kj1wtXoz54+/RLk/xV9WE2KkVenVWWcwibmmW4bOOJdRX84QM1fHJTgK2DGQboIedRRBNSD5OhqY3Uc8lMa5OrvdVn8IpAxjcmrfGPjevI93Gf561c/qlrKro0NFEJ0AyaiUWtxpDaTBdNTXV8SNW90Pa59ajhqf3oE2uRtZIVo5K34CVTdKM7aCY5phOXFkWAsYEq3rO2RrACf3LHLH5nQ4gn15SwZQAYZkLkq6dMV8I4My2vqpQRa7IsTGJ5prtDk7fY01co/ep5ZkZd/RLUr7Dq05smVfQk9OEu98VEPY2hrdqD8yTC9uOz+NaeSfzocBu7JoHpnCCnVgO9QCQNBu5aREavwkhqSwgnyARMi4CU0VlUBBOQvKZpdiq1GmqDAygNDMAKTHWQ6bLoEiABAZLQrJdcKXpO8VECPWe6VZnl0yf1sg5y+rUdlBB7NVSrZawZ9LF1FHh8NMRjQzPYVGpSclTo9142efIVSDXEah9+K+iee+7p7vXB26dfgkwtbZpeFbxzJl+mqh7eW6pj9wTw7R0X8K3th7H92DgStwSrViUwqJMYlxOL+aWf+LwxO9X3WZPNKVIhj3EScBbtVQ1J1Dm/XEG9PohabdDsUx2bkFIrpwRS1p6FkzSpZVN4nrptqicUDfushA7t3SDvYLk1ixU1G3dRpd4z5mDzCH3ZAZrLFRslAlGf6DEtJQmU61CvieetoD54+3RDSOAUuK4F3uIeNetkcEsVeoTAvrPAj3efxPe2H8QrJ6Yw6xK89WXwpLFmJ4127Q0+F1bVkBTThE40W6UGRzg0ke2W+ity30VQGcBgfQi18oCZ6jaLKSiSDLGVIHMJOAK2EqinFGOmRm7z+kxIv5vAzd0Am0ZKeM9KYEM5wf1DIe4djLAyoBRxFX8JLWsQtAvUqo2BRYD3SjXDN4r64O3TDaEeOK+necXuqliNOyFdXA8R/drj0yGeOzSOb24/ipfOtjGelsiNAUFLc5ea2iNcHXXyUC00I4hoJmsu49ylqZ1T4ybT3FK7lauoDQxR846gSuGgMUxpRNDSVPbchMCWUe6jlTloRjmSKGb8HSwrZbhjWRnrRyu4f6yMh5ZZGKRcGPMTDLoRzWuC1/isDjKb5jSFhr5SE9Zfj94q4Ir64O3TDaMeQOczbO9cD8C5Xcy+lLYaZP4ErmujnQc41rLw48PT+Pau03j+yATGW2pLGTFmtsDrq2WV+2kSIyKCVdlkUVNa9IGzSAMePLjVOqpDwyhT85bKZVNBZSZ6p7TwnJzCwsIMsa7A06h6GdbVMjxIsD66wsaWUQubqhY1rc24pdXlg6vjYuEWaN5pWQJFTRSvmRrjm0fXBO+uXbveMme7T+8c6gFXlNH/VO8pLw1hxW0zcgi2j3YwiOORhaf3TeNpmtAvnGjjXCLwqoIqhWvnRvtmcchHOoqUvFkMVHe0vEupBHdgEB7B69VqcHwBK6OA0HKmMtdtdBLXALDMSyuqNu4c8XDfmIv7l+W4qxZhzGubphszSsALmK6SGbesFCj1Gr6o+ExtmvGllzB4f/SjH2HlSjoAferTL0nSXGbLoLomT/o3pznaahotCPqqHQLmCB3KnUcu4Du7zuAbe1todaLiOjUr0cpneBAR9FlEn5bgTAXgEuxaHf7oCNzBQXUypgucIA1bcJIOAu4nOc1sZwB3ELAPr9Sgd4fABTYO0HdVDTcBmbRbTCf9Ya8KU8ek6mhjReiAGpi7Soq+QWduLnQvBa8zNDT077v7hh577DFs2rSpe9SnPl2bpF2v5vP2yLS0amWFjPcadUbf1qeJSxNVbZ41YnTDsI/hikO/uIkK2qaDREfT6BBYcKgRZSLT3Nbqhi6ftarSuIME7hDsCkFK0OU0r52wjSFCbdRzcC/92Q/eUcMHNwT40Hobj44kuMNvopTT5BYkrZKZ6SJhfKnMZZvpURo1CiojuOVzy2hWzbX5DsH55tJf//Vfd/euAN4y/YYPf/jD3aM+9WlxdLVKmgLcpveyqXiS35o7PjlPMCB0aUr7aQHYUYJ35bIhlK0YzU6IBk3jlsxZgVfT8njqCcVQryNYtpIAriL2fXRo1kZRBCuKzYJpW8ZGcf/aMXxwfRmfWTWJB0dSbKimqNPf1fKnmu3DAJdpCYlKyRPNeKEvSCRqZB5rRhATivktHFoR2qqt+GbSfPAuMJtFfdO5T4ulnoa9pvY1PqPaa6WDHQMI3W60sOZ9pjksTZh4HsYJqtfPzuDlY9N49XQbBy6kONm0MEnfWPNIa/kUO6jCqdb5SAIfEQYIyrGShbV1F5tHytg8VsPqYeBOYv4OaxqOul3aDAZ4RVA8pncUJYralT318uKVXpKVPt2pFBstLRdgqfu8os997nP4q7/6q+5Rn/r0y5FAXGjgAuBXq5lOrRShujXSO56ka3xssoMDZ9vYPx7i6CxwIfbRyDzE6oroEHD0bZdRY6+v5Ngy6uOu5SVsGitjtGahxHgEMyeRYV6822yLt1Fw9CrUBF4KFPnXtwBdF7yiv/zLv8Tv//7vd4/61Kc3T4sFr01/FR2iNCgTdRrF7qGT2pik6zml5h5um1SCbZnffIaKFcNUhqPE3TJa4mqnhSs7uMMbiH76sVFQM23HfCn97ovgNdaAzitdxpS+2VVRi6NFgbdPferT0iaZ9X3qU59uQeqDt099ukWpD94+9ekWpT54+9SnW5KA/z+KQF2R8DJQfAAAAABJRU5ErkJggg==;" vertex="1" parent="1">
          <mxGeometry x="130" y="660" width="49.59" height="50" as="geometry" />
        </mxCell>
        <mxCell id="QjezkDxScHK8IgRQuDpO-17" style="edgeStyle=orthogonalEdgeStyle;rounded=0;orthogonalLoop=1;jettySize=auto;html=1;entryX=1;entryY=0.5;entryDx=0;entryDy=0;" edge="1" parent="1" source="QjezkDxScHK8IgRQuDpO-11" target="QjezkDxScHK8IgRQuDpO-13">
          <mxGeometry relative="1" as="geometry">
            <Array as="points">
              <mxPoint x="650" y="460" />
            </Array>
          </mxGeometry>
        </mxCell>
        <mxCell id="QjezkDxScHK8IgRQuDpO-11" value="" style="sketch=0;aspect=fixed;pointerEvents=1;shadow=0;dashed=0;html=1;strokeColor=none;labelPosition=center;verticalLabelPosition=bottom;verticalAlign=top;align=center;fillColor=#00188D;shape=mxgraph.azure.laptop" vertex="1" parent="1">
          <mxGeometry x="560" y="640" width="183.33" height="110" as="geometry" />
        </mxCell>
        <mxCell id="QjezkDxScHK8IgRQuDpO-12" value="" style="shape=image;verticalLabelPosition=bottom;labelBackgroundColor=default;verticalAlign=top;aspect=fixed;imageAspect=0;image=data:image/png,iVBORw0KGgoAAAANSUhEUgAAAO8AAADxCAYAAAAjrOBSAAAAAXNSR0IArs4c6QAAAARnQU1BAACxjwv8YQUAAAAJcEhZcwAADsMAAA7DAcdvqGQAAKaLSURBVHhe7f33l11XeiUI7uufDYuAdwRBkAToXWYyM5mV3kpKKeXVqmqVqlRGpqtn1ppZa4xW/TD6B3qpe9aqmu6uUqmqJKXSe8PMJNMxaQGC8CC8RyDsc9fP3ue+FwggYIJMkAiA74s47/pzzz3n25851tqwYUOOPvWpT7cc2d1tn/rUp1uM+uDtU59uUeqDt099ukVp0T7v5z73OXzwgx/Efffdh7GxMTiO073Sp3cy5fli2Mcyv1ESIbNz2OQdy+iNHEkcwUpy+JaL1PHQtizUXMBJ9ABDDCQZ0GAU57k/HnI/7CBPQ1R9H/WgxMBnfKAUAD6fzZikOE2QujYyywZPwUMIP4/hKL25jSR3EGYuYgaPrFzlTSnvS/me3hcpheLy4hkmgqnOmb7FkLXI+94o3XPPPd29RYBXoP3zP/9zrFy5snumT316YyS+z4QoIiG3BAJzVlCAxdNWShCHRCYP7MBGI81wrpPieCfGodkIB2diHG2mmMx8hE4ZoctASHpRB0NpG+vcDPfUHdw/HGDbkItVfkLgdfiKHBmIajdA5pQQW44RBBnfhyxhDClBncGxXQoUn0AvwKsUChQCr4Bv1JQ+QoB8i0C5WFo0eP/yL/8Sv//7v9896lOf3hwJtxnVWk4AWASv7RCkwgBPJjEvCC3CBjVlSKTsPHMez5+bwvaZCLsbGQGcY4YBdg12dRRubQCR7xnwVfMORtDGGjfEpkqGewniLcMlrK37WMe4hqU1bR8xQR8RpAKnSID0MoqAPIJt84jgloEgADOVDHyOz9rcl51gHjPg1c7No0WBtw/cPt0oEn4yglNAta0EnksESK0RvJ02TencgueXMB072HGugZ/uP4IfHzuDve0M4ylt4YTas8n7rRJGKgMoD1YQj7hwS2XYJQLPogBIQngMwxQMG4YHsWZwAI/ULLyr1EGJdnHFsxHwvR7NdkfqnoIk53szJs4RJs2P3sGEcVtoX/4RzRbvM4ESR5dvJl0XvDKV/+qv/qp71Kc+/XIk8PaCnadG+/Y0WER/NyRAMurRnx6axX989igOnB7HiUZoTGSnXEWZmtFrNVDrzGCQ2tYeoAe7YgBZpYZsYAhphWfdCmWBBzuyUCaWy3zX2hpw74oYm0c8PDgKbPRDDKFF21iONN/pDyNxXWO6eynNbAHTLsBbmMc6YSGVccAk2wSvI5DfRLoueH/0ox/1fdw+3TAS8ycJ4FOBCiiZKq543uKJkNvTM8CeIyfxte2n8Xe7WgQ5QUi/1vZc4yMnySy19jgfmITrdgjQGvLOKrjUruXVy1FdMYqgXiOwGFknghtG8JMULR43qLg3VFI8Mpzi0aEc9w052FD1UPd4IQ8QMW1KjI2E702paykcpJ1VqUYzW1dkPEvwiIy5fxNpPngXGAHSun3g9mmxpNrm6wXeRSDI3zVP0K906IP6aPDoOBXes6+P4wvP78dPj51EusyCP+YiqBJEaRNZcwpZ2AZcD6iNIKmP0d8dhJsECPIStXIZnuPRl00xm7dwjgAfr8xieixCuIyavWTjYCvGt/mi//J6jP982MaXzpTwwkyA4zTLG4w7zhNkEhR+QIFRpgntKcVMqkSMdC8Df7S90vddHt4ucoaGhv59d9/Qn/7pn2LTpk3doz716eq0aGYl1xtrVHjg7aljo0VcHJ8FXjg8ix/uPoEXjk7gSDtGVpYfSnUYd2BFHThZghIfLvllYslGShyrVskqWejYbYRWSAuYQKdP67k0rwk82yIQqZds+qnUr3xxgLZVwUQU4FTTwvHpGGdoljfThKY543ID+sJMG4NMY4vCRTXhhsw36qKga050t9emt6qp6K//+q+7e3zH5WZz32Tu02JJwM3kDF6H1GCj4NJ3zQmsBl3OI5MhXjxyAd997ThePt3EqdAx7aywqIrJ+DbjdbIUHoHjOfRLbfq5NIfbHRraLrV4nfE2eS/94tLoCoytWIvhkTHYNMWjKKE5HMOhKRwQnJlXIchtNCNa1SEFQtLEqBdh02iAdcMBHqx5eMS3UKc5PVwBKlTyakKypJFTVWzRfGa6CzyaVF6TBFxb0uotoGv6vLt27ep3wOjTosiAVw6t9o1RWeyJoXRUaFp6kWmEhGAql6umY8ShczN4bu9xfPfVI/jx4QlMOsPAABUG/Vy/VYAzc6lRTVstAzWkqTHqtrraBJQX83qcIQjqGCJ4h8dWojw0hITaN6bmVpMP74SbUijQ/I3oO2fk64xan0lg3BlCxhHS/37IaeLT9RCrhwewafkgVg+UMET/3KeDnjPdajrKu7XQc9+mPVNj3Tuh68UV+cV8TXHBoItbXeqSOdWleacXRdcE7969e7t7ferTReqZx5eYgzolTOkaOVaASTKCNYvg0w4lVAjukFqUAKcmSpxBvHKmhW+/ehLf33Ucu05No2V5xCxNYkXFn0wazkTJZ+RzGr9TW266W1V6EZHIk5SKxkNt2QgGVq9EdWzUmORJJ0aJYLIZ1FHLPDqPehZw8U05poIYzVKIjYmLx2hev69axRNDwJYRJrvMW4IQnXySoUTTegg+gekmIeVKC1kSG2vCpmCSz0yjAnrEz+jR08yntGAklAQ9ADPEPJ3w1RJFXjcti6U+ePv0hqgHXNECX454SuKY5+llyn/k5VRgNftqApLB7KCV2Hjl8Fk8vesEnjsyif0TKSZTj4D2zXM2NaPR0sKqqAdcvdsAuHuO8anN1YCXWt+2XdRGCd41K1BdPoqEQiLtgtdRxdgC6C4kj+n0iKqMZjKsBDUvxcoSsLlm474BFw/StF5fclHyGJsdMah7iM8kuKaNWjniCtCqGY9a/BYLjqnNZvZQohVWiT2nnE2K+KOzOn4jdM3a5j716Vo0H8jaM0YzlYtjp2RG6p08hEXNq+6QMRk8RIATbRc/ODaLr792Ak/vOYm95zuYtajFyoNGK2VUQ6kqhQi2RZPh+gI4xc98UiWTzPeLab0WufSFqw1CLHYxRX24lzLi2U4HX5mYxufPTOMrJ9r47ukUe6cSCiGa2hQiKdOa0dowWpyvsWleW1lIHz1idljMFxcJNXJMUz2iNRA7GWKL5jxzxVavLgbd9ctQH7x9uibNB+vlJDNXZqIttePoPh6RiXP6pxnN4RZPnW0DLx2fwRe2H8WPDo3j4GyGKQI3Dmq0LVUXTO6XP0uVa13jXZeTge7lyOXjBWi7tMjoQjuj352hI2vBDgi7Cj+jhvF2Ga9NO/j6eIT/fKaJz58O8dNzwJ5pC+MhhVOS0Hxuw49n4CStIkM8Gs1OmUC+VKbIAlEbci5DPmc+ZQp98PbpLSYDiG6YTzJiE8OU3JOPKmbUPQ61ju2A/I5Xjszi+68eoY97FK/PpmiXBpBX61R3NDkN8xK0dg5XzEzgvxmS/v1lmmaisoPZZR7CsoWA5vhIx8GKTgnDySDibBAHkxKejSz8PYH7v++z8OXDKV4518ZEs0mN26LVQdVNJOW0IkI6yTKl7SiHE2tYBP1y5pLN71Q/aZsGOqUWP5shdy7J2/lhMdQHb5+uSldipPnnVKvq8qfdDtFqhkjp1+ZqlvFqZvjeS4em8a3n9+Bne46haQWI3BJZmWwctpG2pmHHDfqXGQbIxyWL5mSqMYCLp146mKIF6XwjpGahKv1dDVTIGBLQ7Hf5bb6PGi2EYXsAIwTxbDyC5xrD+M4J4Mt7pvGN/dN47kyMU6GPjj+IFn3hjiKUHGE8iNuwOk14SYfmtDqAEqz8zWmV5LYZz8T3Fb7+/HxdLPXB26cr0uWMdDlzaV/M4+o8tZXtV5GUBjFNk/jQDPD0a+P4/s5DeOHoOE7TfrYJXFPflCY0jzN49P88+cZRE0lIlicTq4PEoojv1IACIsEAV/+G+Lg08PywGMrCGMlskz4vvXSCthS4KPnUkbR9nShC0I5Qa0UYsmxU6y5mrDJeminhyyd8/J/7bfynfRm+eriFnZOJEVpNvTaghlV/UDcw+tbRWMSEPi+tZnXJFMh7dsb8vL18ey3qg7dP16XLGal3bBFwLv2+gAwKv4xZmosHJ4Bn9p7Bd155HS8fv4DTkU1fkho35jNkWtUAlzyXz7igtYyQ4OjEKXWdKoBkUl6fzNslCZiOIi1FeowBTcCqtlfNRIsFr3pU2fR1Hb7fFiT4TWnUQdJpIaFwybMO79HY3w7NasKOCW/4AzhmL8Mr4SCePku/+FAL3zk0iWeOXMCLF5o4FFs4Sy3bcgJ+l5qKmB61VycRUgo7NWGpaW1+3i4GsPOpD94+XZWuy0wCEP1WXwMMuHvsQo5f7D+FH7xyAC8fPYfT7Rxtv4aUWlkurXw8dV2kzVjUURHsgkRKBg8JnojMvihSuuYFk0qjaQvNWxzqwOxel1zLR8muEpM+4oRuABPXpBndsRMk6jDiUNM7NG8zmsHhDK2NDjU0BQQ1tMB5KvXw6nSOZ04l+NaxCN88Rj//9ARenGrhWCejUKNgkjDJ6TTkbeYBfWWHQoCugvL4cgAvFsR98PbpimQ6Qggb2hAIxJoxVef4SjWr2rcdaDz9yYkEz9G3ffqlfXjh9TO4QI2bBgStBhQIRY4Hx/FpORLQ8pFbIc1HeoDlKqxynddLioxB8Zq3MlyB5p/Wrd2tSW+XBNwCu4tDr6bccVv8RuKpzXc3aTJ36gFi9ZUcLMPyHWPyqm3ZciiAKIncZAalZBYltPhdGVpuGccwgB3hMIGb4st7T+H7h8fx0tlZHJ6NMBGpkYhpsukyuDECK4RrR6aG3dTOa2ssB1VrFX/m+7rhStTvpNGnhSSkqiKYmjUhI8vEi8hJSRii5pXgi2M6GtZHRi8H2H0+wtdfOYHv7TuHXWdpbloB/IEqStQyafMCQpqhiV8nOxasZn7501WSpO4VcanebUidEkmGe3myu5VWEmNr0EEeJ5QdLqqjIxhauxKV5aMUFo7ppFFWmzGBEC6qOcZAhWnQX5e6aZtL4tyFK9PFyxaaMpcz+sdpG6uoYbcO2nhoeQkPryxhC/eHLWrwrEWfgWmMaXGoV5hH4UZXQj2uiG8ToeQjDXiTCIdBQmnr1q3Fa0h9zdunBaTpatTtTxyjydds+mluHKJKBlPt6Cy1Zofm72Qe4JXj03h2x0FsP3gU56easKRpNTig3UazRQa1bfiBfL4CGHNMTmbsHV92ZdF0Efyk7uPCeI/mX742XYStnjGBhz3roxf3tWjuOd48SLdgbe6hRmtjlkLkNQq6749P4gt0Jb7y+iSeO5nj6IUByj81mfkErQZs0O/PI4QaDKEXE5mqv/P5vEchdCXqg7dPC0i6qqPaJAaLst9PIwQEr5dS06n7YRDgdJzjxVNT+O6u03hmz3HsPTmBWZrDLgHvyXWNqHUjamdLA+tlEt9IItSI0vlA7YGvh7aLv28/MYfg2DF8CT8CuBW7ODYFvHQywveOhvgqwfuVsz5+PG3jGH2OKU1+52lYIgUd02yrSlpt3tymaYpUFQRXoD54+7SAcor81JjLYiCGnMxobLhUdU2YoUZ49cw0vrv7KJ7efwGvng1xjv5iyFuKjoF8RrYf/cPUVjfBN9Dt8Q1SD6bFQbE1G/10T7/dFNsJ2k53nHHuMO8CJHEVE+0q9s2W8MyEjS9fyPD5s0187dQMXpiMcLrJ/Atd+t9FhZ7Sn1gZ2lbM3Lyy6d8H7zuYejWblwfZo2o+CdXVUeaziP5YSi06ycOdpzr4we4jeHr3cew8n2DC0nxSw8ipPRJq6TzpoFTy4ZfLpg9wqDbOt4oMUBWY9u7uzSbNUKlciyjwiskxfboTNeTBMFreAE5lHvY2EnybiP1PByfx+T1TePZQC3vOJDgzayFKHGpij/npwqIQNZPjXYH64O3TAvCqu6OpXybPNNWBQUPbghpmbA8/evUE/uZbz+BHuw/jpGqUrQB5bRjuwJCZkyrJUiTykfmIfDlT95LeYEiZ6C6Nc+6U+QZt9B03h6qZj9G0Ao8gnWUOnHZjnCpFuFChGVzKMURDZC0T5+fDOBKtwY9PO/hvu8bxH3cex385dBrfn27hKAVoTHhWGUdJ+X8F6oP3HUpi7vl0CXgJvjxu0L91YNeG0KrUcYhm8Q8OTOCb21/HjpPTONO0EVllciABmtPApoY2xp1MZaK+FYU0A0PkMreLkek3lJT6+Wku6NJvulnUoZsxk1PoUfh5tFiqFkFIl6PcbsPrNAjqNnwvxkiphBWVGvzqKM5UluPndhVfaCb4L2cm8NUjF3DwfFT4KPGV3Y4+eN/hdCnzF8eagibQWNmcJhx91sMN4OkD5/HFl/bhFfpps+4gOk7NtNPCCmkfNpDGbaRk2lxT3TBkNJWzJDE+sD2/EfYG0BVj40mdn/cpN43aSDDJfImdBBUCdzRzMZbYGKYt7TNPoixGg35xlHfgJsWAfDsooUmz+mhWw8tToDZuYceFGOfU3fsq39QH7zuY5oNW1AOyKos1QF39905Mh/jp/uP45iv78MzB0zgZu4iCIaROFVo7xEsbRZtlRi5TO6yecxiD4xnu0mga9Sy64bQApb1jbefvv/2kiQVcW6OIJABTOMwXTcljUahZloc0Uz2AhTCbpWl8GlY6jUqUYiDy4IU1zDYreH3KwgtTEZ6dBY50qx0upz5430FEaJKdCoY2TYkyadUMYXBadPbnrqmsAjXuRCvC87sP4nu/2IFf7D+GSZpvbZrKjU6KLLXIoC6cNCTQ1TSiWBmfoufzmgjOpcloAE0/2MQ7L7xZmnv2skjMV5mfosOHwbY5fvupzu9fQbhWmL8hteykFWPcyzBDFyNRk5BVQjn2zSAIq9Zm5k/BmZlCbTrCaMNBNSxhNvSpgTv40pkLeGmqhdDIv0vh2gfvO4hiAmlGfQAF2Iic3aDJ22ybpqHIpg9rp3DJcG0rwE/SOv7ji4fxdz/fh13HZwmJOoaocUudHEE7QT23UfHKiJw6fbsKcaKJZNR/l5pWNc5xSICrDxYFgfozSyP3wuUkpHU1adG1UfcQhDxnrIPuNUMmCh2rKkyCx1SJ6UpBNPXF1lphSNteHNcM5sEbR8raFtOh+Ss1k5efO3RDLPjqXklBllHYpQ7zOq6g2lpBIbcMyUAJYV1T37bg+xSGboBzSRnPT9h49kyCfRPqVdZ9QZf64H0HUI9JHf6VqDmbGpMm27jqU0O6yBtN+GGEgCZd23Wwe7yBr/74MH6+exyHxjNMkYkip2ImSo+cHDEdtdiLyICaIUqartB2l5PO9cKiaNE33np0BZHFMukG7qtCWXLHyB4JKF3v5u25RgeHJhuYvix/+uC9jakH2h6psEtUVOo40SB46WIh1+JbqQ0vC9Dq2Nh+8gK+vfMQntlxFntPJzSVawi9Id5bQ0dTp1LTZQRtx+4gst7Y4Pk+XUrS+XJV5gZ8dMuqwK/sGJYZrZDzrRB7p9o4QUNpPvXB+w4iWZi02MxwNhpu6OTqvUPyq2gnFrYfn8E3dhzBt187jtfHQ0wkASJ/AFlA05haNxVzmUjEdgmSt6Ii6h1EykXVQci5KP4E2iKoX7MZl8z9iSTHvkaCQy0ezKM+eG9z6mlfE9TVMW3RdI5QSqg1wwTt1ME53vfceIIvbD+Cb2w/g12nI5rF5J4K/diyh1zjWc2zDPJHVaFFP04u5yXxXyXwp0hMny4hZUuW05IRgJVXQi1JWne+5m3SnTmZeTgwU1zvUR+8tyldCURR2kYrOgskbQQE34Bdx3Ts4UenWvhffrYD/7DzBPbPVoHycvrCDVj2LLJkEml4gUCf5nMxHMuFZ5doZpdgp4ub+aJPVyaB1cymYXRut8zMnmRkD8AWMq+MGaeC11kE86kP3ncA9cBruw68WqWrOUs4Q2Z4ZvdZ/OcfvoIfvn4G004NmT9Ec9iBmYdZczBTU0NTv2SRmVTct9XR3kGu9W010JfxXi/wt09XIeWNqZjqal2RdjVIX7XLqljXOk1R7uHM5KVuSh+8tzEJsD0y+9SauTNAbRtg/4UYTx88j+/uPI6XDpwvRrQEBLZNPzhqkYE0cZoP2/bhknlcxzUmnKZrTXL6u11PrU9vnorcmwdco227pIsmENpUzwkF5XTr0grCPnhvU+oBt6d1FTJK7zAt48BUim8fPIOv7j2Ol0/NIMkqqKCEIGpT0lMdOxGZpU6g1hlDnZK/Sr7yzfo6oRYNA5nIpRboW82/HBkVa34u0bxFyYm6CM5Yfsz8+LJxvX3w3gakIlaxKph9AZeh4A0yhk6yqDuJjaOTMGsFfX33Efz02FmcT1wMDq1EKbURzUzCszooVX2E1M5xolFCgQF9AodgFiNRBajKmsC13ugqWYsiJbYXCrr0qKDLj0Vz9/GntxUwrhsWe98NDuZP2tZoXHm3PK+09ALJ3KOyJHCLfmoXqQ/eW4B6WvRyMtqUhapZVbXKvJoB5RUlSYwkCs2sFw591DjVfBgujtJ9/d9ePYu/334Ur51qYLJtYTbNcKo9gwn6s0lliGb1MPEp83qaYRa53UCmNXMZg2m/cDTTP5GrrsyRmo147nqBpEnW5oK+Z36YI1kIuvey6wrd53pB54pt99Eedc9rsTMjxCh0rhtMzTmh8DYHK9NkdkWweueZFkuB5VUsf+ZpNDD/Mkwb8XyReHefbnXS6J081AwWOuDWzs3KezONBiZaMcLAJVhn8LWfvoIXdu7GwROnMNMiIF0HbrkEq0RAaoZEKyfoI/q8EgMEgfm9GPp0c+nyMuiD9xagoq/vlUlaRotoBNS5WbtJV5TASyJEGl/rBmj5Hp57fQZff+V1PLP3BE5MzGImSpBq2J4Ze0uNpvbbXOaw1g3qGeB9WurUB+8tTD0TUj6RVgFyU2pgmcwypW0PbZq4u89F+PaOQ/junpPYM5kitDzkfgUISgSrTdOX9m9HzUERzWwKAqpvYrpPtwD1wXuLUA+ol5M5l1NTZgmcso+Yu7FdQuiWcXAywpd/uh3P7j+B/TM5JuyKAa5VrsHyy4U/apbgUCdJmtrkBq0XdC1N36elQ33w3sLUA7MBmxcQflSb1UF0goAat4P//v1f4Ou/eA1HGxnalWFkGlzQDJF14mJeKZrOZjGsUgAr0Ar1tllzNo4F5j4tdeqD9xalniZWUBNC5vqYTj2cpBX8gz1T+JunX8YPdp9CUl+JUEuJqAZXpW2rWotg17hbwt0oWWpbNVTkmTph8Cb12evTkqc+eG9xEng1xeiFKMM5WsDf3X4Cn//JTvz4wAWMW0NoOXXY8nFVIRV34JVKsLq9pbQagtoPNR9zGqf0lQlarWinVf/6tOSpD95blHpaV5QQvOfbMV7Yfwzffn4nfnrgLE50fLTLyxFmPlJet9U3maEHWEeBmtfUTUkrE7xmhJ9F8Kott09Lnt40eC8fiSg2Mrx0WUh4UjyhoAYIjQk1DegMBbd0Q5cR+zSPlCVUmKmUIzWlJvNWP5tcNcOqpLJsdJh1Z9oJdp5u4EvPvoJXjo5jKif4ggHexwf0cLtlJkILXAudVgtZqFXstcg1cco4LNVUyZRWAeWmT4+Obli4ZtnqUi+8ETIRX9zOvWuOjFNwafxXCZc+d+vQm1olUKBNMcOPltxWB1f5US6yODddXk1mdGssL/CEKkLUZ0QskqkdMg7hkplKDs9pNnj6XFmm0S5kpO5z82s8expG9E6oCe1pVVv90Fs2Zko5woryL4GPJsozM3BLI4jdKnZMxvjSzpP4P3522qxrowqnROvbMBiRqvwyNchF3s7Py5tBC95/ybGERjHvlHoUmWsmFL2rBEceUL7oHBmN5r5mYxwYGcXQ6tWojC1DrB5loZbQdE3vslT3XpcK5bNkid/eS1/8f3u0u/cmNa+y2M2rNMHKNME85qNtVvsWk+Q+mUXB4DnFgJ2gnIVwkjbyuM0XWvBLNTjlQWR+nZldRidhHDx/NRLT9cLtRGLIq4FJ51OX1wf4/V4KP0sQ0FqpxC5d0hHmbRWvnW/hW9v34JnX9iKKYpaBLKEiv2yH4lINttKqPGlW/pN/e5uR4Yh5Wdjb1XZ+Z//bkd6c2axcIeDIXaZfppvbxCoZhrERx+hQLzfzEE1NC0rAlpIQpTSBJ+lJ/tE6xVFmgZBGTB8rc7ttjl263UB6PboagFMnQ9ulmZs14bVCVDu0YNIqTeUKfnFsAl/bcRDf3X0MezQyiBo3VZst4zJ9mglcBYsC1eSt3nGV99xyNO8zrsQpYs/bHbiiNwdekRFtxa5yUDyiyaXlj6UZA/8yjSaWz8WNY7vwHI0PpXnNU5pRP5XZw4sanHK7atdfhjKaySEa9FcTlNRZXWvf0Ot45ewsvrD9AL7x6hHsOhOhRTDLTDZTrXbLxGhfmsoKF6lXYLcB6VN6YR4Z4GrbDbczvTnwKoP0ZO9pg0ZyFTWtk8TUxJrkTJNKVxBaNIvzEjVxgDb1cyr/16OmJrD9PIKfUKtQsxT+zDuLeoLqSgLLnJPfGrdQ8Sj0SiVMMptfPN/GF3Ydxld3H8arp2fRTuool5fzicIv6pniJnTz1MTVC7cB6StM4Of19kU9Dupp3tudo94UeJUpWkY0ZgYlqXzZWe5o2FhMDUtgWgEz1kXEbD2alrG36WH3ZIrXp3Kc52007sxs+iVPTRYt2tmThtneiXQ14CrIHSmHapOtYool9ZMzLfynl3biv+7Yg6NtPlceI7BH4Mc+7y+KUhOamQWZu6Hn5xYVVm+quJccKcd64UokTtJX3+4c9SZrmwVTKdwYtvxaZlVROeJjquPg+HSIExMhzjdjnMxsNFsdRFFIUOcYqfhYNRBg3YCN9UMeVlQslJ0caV6bY1rR5UzdA/fl529H6mlO/phx7yfbDn58dALf3HsUzxw+wXylwKuMoJTVYc/aNHgi5JVQt5sxrHM6l1mltYPk9+qvF/fNpAXvv+RYqbx+bbMZnK7a5ljLrHiojI5icM1qyrJl6LiOqbzzLBe+aeO47H1XpJ6NskSJ39tL3/za5jcN3ki+rDrDW5lpCkqYWRciG7vONrH9xDR206Q7NRtjhoCNE4KT96uDQJkYH/FSbBj0sG3NEO5bP4ZNYxWMpgk1zEXgXg28qoy5Haj3Pb3t/O/VOQUtRjXRsvG9PUfxrQOn8PI55mmbpjRtwsAp0WrxEHVSJHECPyieU32zeV7x9KLsgVfHxetuGvW+d44uOV4ceG3tE7x5F7zVkVEMELylFcsQUon0wOtpzSQ9f126NcH75pCgHjlkIie2GYFvZrY7286w/fQ0nj54Ft88NIHvno3w41kHr06G2DWbYB818r6ohF1NH8+dB54+0sa398/gW/sb+OnxlEK0mBXCMF43iC4/vl1I36Pv7X3z5d+u40lq2Gf3ncS3Xj2A546cw6lGTmE5gEpcQcA8teIOEp82UKV49iIZqF6kXrwqt9uEev7ulUhfeXtxy5VpAXhlDtMgKZwGtd0aplCnDNV9ktl4LNZw6U9JSoY0i083LLxyooHv7j5O8J7BS+MdXKCvm5VHkVJD5AyZV0UcDKJVGsG0P4KjZMAXz2X41p5xfGH7Sew838JJmtlNjWkj49pmqJq0jBaJ1ArsFpOja0xOr3SUNp2TCcUL0jvFry7eBDLJUXq6x1cipZkgyplvpl2W1kuahSbEeYSY39lMbZydibD98Hl8+aU9eOnEBTBLqUk1X7IHh4ITnYjxMI98xkete8l3i6t71kuPw005Xithby0t6u1Mq7EWiExzv7a07BTkP1iy8nhOWlkrD5pOGrzRJX/oU2Oet2K6ctLUNnmB7tjtQwtzcIHZ/AOazXXmVb3N05ol3zBHMX9OwvOllGaKOq9bE0jtERxoA8+eAL722mn87MgJtGROBzXAq5sJuvNohq8sXmH4SLncpWLPonmTYcwL8dlty/G5Owfw2KDaM/nu1EdS0yJXhVDJqWmGqL1NBxA1Q2kiJYtXVLg0lzRJmlZmk0wqm+3bS2qqiQmqoMQ09sSiPtJ8PtOorQGv0kneizp0ORpqFSdwYyReDbm7kkKM5fDz0/jac6/hlYhCiwJB3UmLpiDGw0jlPpiea7ZD5rbNPFZLlYxVYIQHSUJFGx72OEH7oozfk7nMOJV9r/usEc4UUuRFlwD2WPZZRJdihufoMgRDo1i9bDWwbjkml5ew5nQbScVGk/twAlRm1APw1iZTCWnKnfv/98fNVrRA89YJgbJyM2DW+j4f9NHOSsRLBTU7QMkmE0XTaKNkVpN7bt8EXth7DMfPXUCm4WZBmbESONScaRReBtxi2ws9kixNmZSXjk7iS7un8J2TwLg9SHOwDDtswm5Mw+O25ProaOkN4VLdKtWBntpIqifPVcPtw6ZGs2Qx3AQSoALNUDE/V2WqGgbUxyvwHLWC5nDzKw7z1aWgqWEwWMksH8OuwxP44g9exQ/37MMZA1oVGnOIz6rXlOO6DPTl+C7BQJaQCndJk77ZfLt2rkbMJwn+kKBs0MxoS7z5KJfqqFUG4TtlYtpBp5VTUHmwBoaBWg0h+XWyNYPp9iyz2MXY2DqMVFcCLR/h7BLPl1+SFoI3asGl+ZarKYjmWKiujmQ8P7MQ8KRjWwhdCzumMjx7ZAI/3HscLx4+TX+Mpp/LTJVoVBlJeiZqLOqVm1itV3jFvjmn6HmmE1vYOwF852iEvz/YxtePhni90UZmJQRtRtGR05Smb+x0EDopIqY8Zlpix0VCoaKB6DZNbJ/IVrgppM/rvfoybWOCblBzjTHnOojiFk+7sJxhtNs1HDjcxjMvHcNP9pzAjnMzOB1pmJ7AqXxSjykBl2az8plAVk2yAe8S92UvlnUvHy5Sz8dX0GgnW93vtKIDy9QmSNPYBg0UxKZ+hW6DrVYJumL6ZFortpugUrNQrjFPKNQSzZQZUrhFPq03mWjmxls69BTg5bQAvIVaK/wH9YvXHSU+6zFP5WJNxy5ep/R7+ugMnjk6hZfONnB4NsEswZN51ISqDTbmjpnptyg0w9WiYt8czf1YLAj6eSycibSEvU0HP6D//IU9p/CdQ+dwsCmgFiaQlajCJqLfI6ks/1a/DIxmTrEx9Gqtbw4xq2nyGZ9MGtGkZX56VGcqUUOOlCnsVDBNSbTzZIhvvHgEP9l3DkdnLVyge9JJ5jV0SNPSorE1Fpdb7atwZLVcuWiXEJly0c+lOVGA9uJWP2JI36el55WYPRaidmJq1HM1/FD7uk7JNJ+h3cAgXbotK+vYdscyrFleZ+QxpmYaaDVDykcfAfnGRHuLB0OXHBS0ELxWlUDQXIRisTYlYcNIRD04S8y8NpnhW4dn8N0D4wRuiBNJgDAYAMpVal76uMZElBFMBqUPcyl13z6/BEkCYCgpSYBKM4032/jpsfP4wu7z+Aa10csTFs6HlMKUxCWaxAHj95lCydVeVHPfZvxfle7NIOYZ358xfao+6p6aI1nzlH8kmsBMYuBVMZXaePlshK/sOoov7jiM16YSNJxBWjBDvE+dL8Tx3Xycy7fuji7x+kXhuDTJpPCydF7Mlu6eAKx9ukOWFvwW74jvEuaYTtNlkruQq+zDFlalbbx/3TJ8+qFN+OC29dg4RrM6amCm3aJZnRa9+BhuB5IXqy+5/GucoaGhf9/dN/TP/+2fmd5TWn8V8RTc1oQx10AptmcW+MqBSfztS4ew90KIGfrCqS/gUup5dOIy6upu53hVpKjCit6d8t5QUXTdX7PpFaa0hxg1gm+rEiemL2PhON938HyIiSa1OP3b0aqPQZr0ZioXRqBaRY1TTeMOlVyMlJJXtYz6Wg2VuDnENKldtasZe9+oYXoCbsprMgBtWjApGfK5Y03848v78aWdr+MIlXGHgjBKZfrTBeB3puZ7lD+FhpWFbIKJlXET2Oo51cvjpUgGuEWBX0IXS79LBK4W+1a7dc5gLgQam+wxLyjt4gal/CxWkz8+vGYUv/9PHsUHH92AZfUSDk5P46VzF7DcG0N1sE53L2Y+duB0ZeitTgKwsiN7+j8WJ0gLRFPIMxE1rCp9Km4ZfnVITbr0b8fxjzuOUuOew7FOhQwkU1aVM2qnYLQdcl7IQEBZlJpitogMK5NIYDaSVVvDZsV+oaV1TBIe0xaceJqMy0yXCe4P4VgrwNPHWvj8zpNm3Orr0w6m2gHBoMoqVdpojKuaTTo8F6FDEHd6Wu9tpu6XFXsymxMKkyiiu6ExzTR5XeaLsophuuPiWy+exj/+eAee2X8MZ+QJVKv8ZoKePrEjt0N+CsGuZxSvmchAwor5ZnpSqTR1TdslTEp7Ud7dsiYVSZ4HagPwIn/otPIhfrs0p0DbmUQ0fhTDdM4e2TCI33j/A/ijTz6JD929AhvJfkPksyBOaXRZcIMyrRZGkbeRZu0i7tuUFoBX+spNY7iU/DnqmMhH8Oz5GP+w9zi+vv849k0xQ0qDzFgBl3dLDRA0JpCxukVFo5aXiKFebWiv8Obv60+eq35tOyIWVZOo2SEcpJoFggyPIMA4C+X5cy18Yd95fPPQLH5yuo0DjQyzGn8oX5AS22PBq+ZWlRo0BRhuBpn14vk18nkTGiG0BrozVhiQcRMyT45Ohvj6oTb+7hf78Sx9+7NTzC36c0YI8jk/YM54EcK8yXzic+Roo3m1L3nHPC/OK05xu8ISJpPWorz116MCt7JSChDrUENLJZQltBwK4nLcwmDaxPpKhvdsGMGvPrIZH3/8Lty9eRRemXGpNYLC0TXlXkOUeIiYyZYGycjWmcuoWztcqZQXgLecnmUWtOARPBdmbJp1HXx5/yS+f6aF/Z3UtCfa1CoOM1vdHR0C1hJH9fS6ACznztSAMnpted9c4V1hX89ogEJKICZOHSkDpQO8PERgt3hngrMsildaLj6/+yy+d2gCO841caqVEgx6Kc1QdYdjARY9Wm8OFV8lrc/MNpqkyG4zzQx3O8y88clJvHrkOP7m5QN47vQsznZsCjkfZfoqtirkyLA5tUaH3x050cX8UnYaUpxFMFlngDx3cUmSyRcjdZTg7skuKYsEW+WV7CiPtwV001xKfpeWXIVKYcNABU/dswmfeOhufOje9bh7dQVWjQ+7sfFvc6parWSYZTUKfZ5PbPJOoYj0uls9GLrkoKAF4HUz+hUE4gQt4JdOtPDl7Sfx/cOzOJZpxfRh3kA/NmwxIko3Ve0z8zze78ksNDXNLI0eM1F6Gj67jEw6+HMxMC4C1dwsU9ytmlrVgKawSzNaw/bVeTcqDeGF82384NgUnjk8iZdPNnB0KkOYFNpWizIZF5EFWPja3XRoI0wVuDJUXO0eLIpMQk3QpkfaNccMYj9pfzM9EF0HWQRqWhOH0qrDKVotrxw5hx/sOopn9x/FuNqoK0PMpgBWlKDCOHxGFkVtMiLtaEZTdGnsBZLy0+Rpcc78zU/QEiQJd4sWhbJCJEuCnENDgx8oIWcqHxPQ3eVFukPyFjoh6lmEO4dKBO4G/Mq7H8IHtm3C3SMlVPlYR3Uf/HaLZnLOfE5yj3rCldusrIfLY9Ut3BZ0leJdODDhtV040XHwg5MhvkYz9Rn6unF5EJbro63RLHGCoDZA02TWMM6NIVUwscTmxWfiLv7Nkdmx6cwMbADOnUElbODh4RI+fu9afHRbHRsoV0oW/ctogoxBk6myigzhEM6O6YRl7Hgxh9SyW5i3eofWYLs+6f1GIpBBqPHUZCM5pdNKF4OiNszJd2X0w+R55/TdvMQhM9VwmsLwqwda+Pvt+/DzQyd5rsJn6TR0wSntbGa+MDFRf1MwGr+WR0uZjEtwHbKzkEqhDa82jEbMjBPuVJYln0XB851pVG31MBvGVLaCUu4AKvYsnrp7DJ965E48tW0D1g/5pqRMJTTdq5A5XKZ5HPkl7B0H/ubILP7PU5NYG7HcHV4P2qaEnZTvuS51C3GJkjFqjYVJvvp/Pma2ogWiaZrM9uqx89h56AROTswwi+iDhiGiuEMGYyzMmJh+xlvDVkpgLzBppkLq4r7pgXP6NMqlALXREZzluW8dPIT/4+d78IPXp3CyTVlbWoaqPwo/pO9IYGj4WE6wprSjMs0SoC8mAN2EIXoD3yCLQqCVhcFdWYEpzWBpRh0b4DKkBG5Cc8+hSe+nZYQE7t7ZFJ9/6RC++dxLOETg2ld6r051NagRCmbv9iA7qCIfWInG+Rmg3YZboYda4YX2BJIGzzm+mayh1ZhFpXEYm9dV8Nn3bcOvve9BvHvbRqwdpltBDraTjrH60lhWGqnrlrxTaQF41VzxwtHzePnIGZycadP/lBmjipcILm1SzYCREcg9RrtRpAEI84NZM1VBmrMbHJ4vs+A0GZuK7ySB83Kzg28cO4cv7aYp+vo4Dk+q/rlGiV6mhKcJysLupE1+R2hCblPDqxdPRLGQLEbrFp+amC6XBbOY6iNqYlvmHpnKDF9T+zKP2/xzqB5cp4p26GPvaboeOw7iCzv34vljZzDdTOiZE+ESfyYLL+aj9gqhePHc7UAxtYYqkjAwYtyfnMI/bUyyHCPUArkZFtoUhGUrwbuWZ/jMAyvw6++6E++7ZwXuGPZoJsvqaVN+09hm3pquoV3gavNOhfAC8O6aBl4b7+DgVAcTqkD2yGjKIaoamwyqYGqWbyTJFM2cuXApcFW4RdA8WEN0eNK4jekOYUIwh94gTiUV/OTYNL6z5wx+9PoEdk8SbGSYDuOKpTGZ5mLYAtNtpuuRDc34e07YdUlwVe07SYijSSs/zlEjonGyGShQEvmpAjJdDGIUe8+08L2dx/C1Vw5i+6lZTKUuLYAKHFfd+wRTxag0dNPBw0srp24TMs0OFHaVCmyXvikP9c0BrRg1pVlhG2PVEh6/YwWBuxKfvG8VntgwgI2DNmo2yyumu6amN/U3YN5aLvnBZFk333pZaE4ydE/f7rQAvK+cD3GkbWESZSROUAw2YIZrsIeZvUD24qKZ/g2QQKYgkBjNq2MlrwCxATLNVqtqE7QEoRqjpcEqY0B5Jc62fDx3cgbf2H+avuV5MyzxOG8L3Qq1YNnUjNshn9EiW0KJXCGGAiwLw3wSTzjKAJGuKR+MtuW+mIpBy2omJtoSJsIcr5ydwbf3HcG3dh7CzmMziFKtzjfC9NcpcNRTqPsOxt3jOfNuWhPmGv8Ll+HWJ03Y4FshrKho+nJKAzSdh5FaHkKazcv9FO+/awU++64t+Pgjm/DQhmEs8xP6yRK0WhSNee2wsGgFag60uOdOdfNOuaRjs9WP2bv9aQF4Xz5+HuepIbLKADmxTL6UhnHg0VTJaW5qxkdXvaluQv6ov/VpmcAlgrmi6WIDOB0COuF+eRnO23X8dKKJv9m5H//rz17Cj09N4zQBrJpIjTJJZEoQv+p61+GpBqO5fBC8Ac4VqMckF4n30p0IqTmasda9JSCdEuLEwYtHzuO/vrADf79jN3aMN8h3I6h7o/AsdSdJGWi+q6JqDqAMOrwkDVdOx61IAb94IJ1ENjsOzyUvleu0ijy0ZlpYPVjDp5/Ygt99YgM+cs8YNq0cxYCvevtCKAq0Fu/P/ZLpQNQkjtVWbvKsQGpRMN3ddxItAO/RcxNo07/TYlSGwg4tQ/X2yWgZ5khpjtrUZDdcKxh0FHGaTa9gxMjdYDp4GCnMtzP4eUzwEhw0u8y4Vr9CTVvFycTFz8ZDfOU1mqw7TuP5owkm8wDu8CpYlSE1AyKk9k6J5EsBc5HmH2vXWNoiWR2qamZQU4dWn89LFTOi6lwb+PbzZ/H1F1+n/30WB2Y66Nge+a+kCm5YsSQJb+o2c1xOTAXfJc7UNeWHOX3LkzqqJPRzhyoBTeRZtE8fBqZPYdu6IfzRp9+L33nf/XhidRnLnA6/3EJCPiu6NJMHmX8ar6zsV65QjxRWoMkf/l4ljxbm7u1HC8Ar1jGCTUykLmqaW4qhGCOr2+mzUIMok28kaZaEXjBZry2D+mr1QlEkJaaJPmii2SeaTFKLQG4jzTu8pmd8062y6a/Ey6c7+PrOk/jK7pP4yfkcJ8gL0yx8rarnEkRlzXw5D7iXb+eIhxJc5vWGus/Q/8o9Hy0m7cR0hOf2n8Tf/HwvnjsyhfE202HXmB4XrTyk1ij6bJth+BSGjMDEIyoYUPEX4fLX3+qU09zNSsPma932BNb4TXxyyyD++T+5G5/Yttz0nhryMpSplSUkc+aSxuaqSjChsDaTybPM5DzRYBKku1Tw4Nzv1ZB8m9IC8A4M1ExbmhrVXQLYo6ZxmIHKFlUYWdQ0xXieG0iqsbXnBQNgBQG26D5pwMvStzKBV/ZuQgyHiAjcxCVw3W5lEYGtsZwZRjCV1LBnOsPTx8bxxb1H8L2jTRyaTRDTHKuSGfzuItJXAvAlxI/XYANDvJ5RLYR8NqfmVSrPTLfx4mv78O2fv4Kfnm/jGO3xJFZvL5rzqpTxElrt1PSOVo6IUZa/rtdc/qq5d1/p4q1LGtI5646waHxsGqvjkw+uxu+/Zx1+desQtg6mGLI1s6imOXIQJSxralpNzq8cVz1LwYsxPO77DIR4AdhukRiav/8OoQXg3TQ0hDrtEnWAT2yC1lc3BxseAaPFm1wycW5a2clcYjbDcL8csy3Id3NiYdxqs/VTTXmnyisjYRgIIpuWAc1oVWPYmgOrHSNqUwhozqygjgOtBN97/Si+8PJO/PTwSRyf7pBJ+Lx8Yb1rXgJMHNyqLkrv75mxVAoF8TijFRJTSKjb+ykq/5cOnsa3X96PH+45wvdV0WIKU+aXw3u0Ch+dXYJYFVoUQAS+a6yYgnqf2v3Ei3Slc28n9bRYNx3KD5mqZgWGuWuF0DOeBG9STyljPTk8TyGsvNN1VRbWmH8bR2v46CN34XPvvQ8fvncV1lYSgpG55ak8feYPY6F7puhVvJoD3HTD1evMK6WBIwPoggqBXhDLSa0WuofnimTPXbwtacGQwN/97L/DyakLOK7qeY+mS3kQfsfFcGxRj9BLpJaL7JlC+5lmGD01b9sjZrrp32sK/drhymcZDKOoTa8IijPVNDwGWYIZpXPuMxCEGa/rGfMIr0c0qy2a2+pzR2HUJlOcnZjB2fEp08vHqo9hcKRivkkd46VZJaSML2XgyzjIJBldh1S+tUxdMQjTYcv6oLl8gsD90vOH8PcvHMJPTyU0yYfpYlCw8X7NAGJWs2M8NhWtVvzTuk4pfbhEzR3U2uZtyh8F89auAOqeN+Dgxvy8jcGUm8wvvl/ukgb2OCxrz9ZsHrRqVBa8Vti4GXxKNs05ZpkunczPks184zXV7lPYbvI7+PSyCfz6o+vw8Yc24u7lg6jIIqGWteXmMOidUgyBL8AqDUyLfvjOYggot1QehQ9MsLMsLAIfeclMzrd9soWXpzU0IeT5MiI34h3U0uKNW5xMVpiWGHLgD/6D2YrEpZfQww96BOsFYFIVK0N8qkJmn0Kz3MQ0gUurk+eH+SOUcKMMNkHH5gQDSYynAr4JZJHzXWpjj+CVOWZrwjy7Sk1Zx/GWi+eON/DF7SfwhdemMclrHcuDHTLdHYIzIWCJtjY1ZUQGc+yAflZAQRah05mhyU2TmZ96ugF852d78eOX9uPMeMiX0r91GC75ZB7MP75J+fFGSeVWaEDlXdEpQmWrmvkkjkyrgyEKRd/LEbbbtMVobQTDtNYGkExRUl2YwKDVwcMjOT5890p8+P3vxkNb78LYYAXEJ7mHec34uo2+BXVZp0+LI2bjpbRqJMYH7l+Nh5eNodLI4Kq3QdXCeUxg0iKgNXAgqvNOFWihJ4oFrbjHwP8uiXFvFrPyvQSumdaOu5oSxbbV3DCCCxRIu2ZcPH28iS/sPYvP7z2GXWeaaIZdyc4P0AqHLdD0FoPJxA1pcSQhsrKPCZ56+fg0vvbcXnz3lUPYe7qJC9TAscYXE+ZGV3Y/u9hcdqxDEwrhdq0w9+DbTXqtvpvSXu6JXBKZAonqGRICU/OTUeMa7Zel8PyArgRdLU3zqY7dQYVaOsG9tQy/cd9y/M577sKDd63DqiEfVbKNyxdoUItYRca2oT5w3zAtAG8dU/jA1lX49NaNeLAeoNygFlZnxIC30jcpTJcSedydA60AO9/84xnze7PITMxGhjNNqfpR8xbNJw0bS90aplHCcarPF8+28N9+dgjf2XMB28cTTPIzQ/pdmiNaPpwZLCEzOKEmzgM0aI7tOtXAt146gC/+fDdeOTlLMEtza+VDaiMxtd4v7ud/sd/9nTvWTvdgSRPLzyRThavAQwkUmcNyIfS9BHeoykua0mbmEAo4n+7WujLwka0b8Lkn7sWn7t+AR9YOYgVlfpWxeQS9hj2qqk8ztJhlcnqs0tv2aVG0ALwe9c2WkTI+trWOj987iPVBk/4anQpPnTa0en2OckCzlCaTKhRMH1OVKQvWjIIxGkMRSxMviP5tIsv0DkvpKxnLTGZeklADyxRkmsQw9OnaiYWXjlr4xr5pfOnAOXyfYDzQpL7V+FqyV4n3q0Isot/cyAax61gbT790BN996TBePkZLJHEQaapXzbBpq/qKtnSXLgdwAdo3Rm/8iRtEBqxWt0xV08+U6BNVM6V9AdCcZ17a4gkXA/R1V1gN3F1q4qm1ZfwPTz2E33jqAWxdO4oSeUa9udUn3aEw1HhwRkYVLEXALaOcZzz3aZG0AF12WDHtn3eNZvjIfQE+88hKbCKDug3eGvvwA4HynBl72atYKYa2pRTKksqmSI1GVk2rivvtJtOoT/M+Nd07HaYvQRY3kYfTcOJZuCkFUt4ihi1Ulj2CVyc9/Oddx/AfduzH9w+dw4VpC16oOaB9mtoeGqUAx6aBL/5gL772473Yd6aNtL4cKJX5zRRsTgjLJ3g1ccA8ASamN/u94+61xQb+mOfeblKZSTDr/ZlMZYGNJ5VfRbmqBplwUyUKLZKK52EwmsC9wQx+/Z5B/MXHH8BH7x3CiNf9BD7jsgwUzPhmaWkJUfN8jmI1w+69fVo0LQBvRvAGqvXLJ7CmNoXfeHwN/uBd27CZBVi+cIE+8ASyiKa0UWlismJrWm2Y+Sp4s+3u3wwyjK8JzKQdxCNqutDIFKsYnBDQn62Qkcq8zyXzoTqEhlPBz8Zb+PLOk/jOyyex71SG0w0X+6cz/OT1s/hv3z6AFw+O40zLQsctE6x8rkTNoUkEwhmCuI2Ah3M0jxPN3i3EmXJ7LNOvnGlWulmQ8ntNcxxPE3rFBAw53YRwAhg/hEdWlfBPP3g//uAD27B1xIYfNpgnxegv5nyX9CQzSa6X9qXhu341o6ZgMDf1aZG0ALxBEDAzPQT0b0fInxtLET65qYrfvG81HtK4ShaKT6mZ0L+TRBZQlOe95hZjRpMIF2Ny3Qwy0/JozKcZ5ZMQwAQx+SXVgABNbEetbFsVYtlBe/o4rTfeX63TNa7jNfq+Xz8wha++Potv7G/gm69N4GsvHMHXnnsB56kh7AEt5UKPOGzyIykgjK/Hb44YNO1mlwrAml1Dlx8veRJoNQCc5almI5Wv+QDmrZhG0/oOoI219nn89nvuwu996DE8vmU9RirqF5CZPswOhaaYw1Qop3pe4GUw7bkyy3mOwC34poi+T4unBeDVLAVqx8syBy55cyDrYGs9xae2jeIzj27C/etXIw3pU1KzqduaqRBizhdNChqoXpSCmhpMp/+bUCJKgU/Q+tS0tsbvmmF7PMk0Rk4ZoVVDmNeRUOuW3Am6CdPw1OuJZnIzH8D2joevHJnB53eewze2n8cv9k3izMw4fdwGUjeFQ58f6o7ZEYDF3FXYaQVx59LsNN8+7/MvPdbO9cLNIWO2qw85SRVKGphimouYJrlH6gqhgSqbllXw24+uwK8+sgGPb16BlcsGYXsVdJj7kXqf0RxzaJloOKbaZmUqC6+KuVtXXZSLSBVhc50v+rQYWgDelD6cWgk0OibWmiK8xbPauGe5h48/MILPPHAH7qm6qNrqpsbsN36LurKpgKmFCRiZp0UBGa/YlM+CII09Lyye5jP3lYPi9+mUyy8XoxktYojfk9FqoGAKNdaXDFWu85z84RaBqP7LpRqmvSq2T7Xw05NTeJn+7emOD2vZEFq0NtqJZpTm16kTQ4faPc7oZlDbWD4Vvd58KQmwxeuLnJizTHjy8sCfhaH7TQom336ZwGhsajx1uNBxASMBpivg1K6mc7Qo7DyiS5HSNKZJS1NX0/+YqXzpcoyWLNyzrI6Pbt2AP/zgQ3hgVQ1DJWYdLTW3zHsdvxhHTS3tWLRWxBdipUsSw39tDRXfp7/F0tydvTi627lD3qD9ORfuFg7Fx87tzNGCOax27NpZ8AxJ5oxZWoN/MpHDsINOp4OTU238X39+HkemPExFFbTUy8lLEPgzjL/Jeylrqdk0daytwQN6aTdSkxhzbA6L8yxF45vOZf3VSEze3b0GmVgucsZVqVe4Bjzz09Qj3iCwaTnTcmsGncYs4rYAS9+Z11T5ojmUE2oY4yKq6UNLs5jYevHxh3EwJ00lkCwTXVOb6XwycJqX5OJYzV2KuCBzed539QSByID/OiTgejFNe49WvkO3x3RzFXD5rNaY0gQIFEYWv3dAE38l6vlUR+yVtI4hr02h4jTxq3euwW/dfy+evGsMA8MSANcmpXN+Wn9ZkrhhrsMjb6UYNGtc/acjk/jfj0ZYw4suRhCWWtTyvCdWedzaNCfcScn/6xqrBHpkQNf0LCKjkV16AtPlcUB/sRyUsHyojn/+7nvxsU1D2BC04UaTyGOaVFhGYbuMbyjBIdC9eILPdjUGf4riU0IMS3dBc3G7VEmun/ofpL6HXDP4lxg8ja4q2pJlfTDHyDS8STWzdBcsmZ3dSj1ttUxHSh/cdHTQPdf94KLAeoUm0t4lx2b/uhHNkU0/1K0HZjKDVFZDSqvKrbJc63A6LuyWhSAroYwqOhTKaVmjsyw0wwkE4SQeGC3j37zvUfzeBx7CtruH4VWvD9w+vXW0ALxGR0hScl+80WMWnVGjuiq0hqoVfGRlCZ++s473bwywaZDMGDYQTSZIOnW42QDNLT7LAp8Dr/m7SIJrwXq9vaVLOTVsQsDm/G67xlApmyakhPkhDzBT5QuDRaA6qdoyGQhWBU2NW8xAosq9oq90sZaRMkiRF+8wO/OyYd7uJYAVXQrghdevRhQbmM1a3KMWpdkfOAEqmlErpMXA025koaQFujRvtj2IhubpjhoYLGV497oB/N59G/D7D2zEE2sqGKnT5/dlVfXpZtEC8BoSL5hAFpPm6DKHQC2trHGXK5wUT6wM8MF7COC7yrhrIINvZk3kjTE1FP3A1Cs0d689+HLqwfYKl5YW0epI6dDlmr2jVmWomJk8cp8a2NXIJJsKN0caE6yqkaZmNYEmtfxj9dYqxirrS6WtCo1VfD/PFf/mTHdnAS0E6FVuvAapzRYJC8ihkKEV5arJRisRJjYtK/WS8mg154iSmN/De7M2VtQdPLV5OX79kU34zP1rsXXUxRAL2bGaNEtldvfpZtEVNO/C0BXvJhTdDRno942Rjx9eX8LHttXx8XuqeHDEwnDeNpOKaQaJvDrE54uOGkU8+inI7JqT87ZLlGQ7aPnSjNo2I2DzkqbdKcMuV8yk3wbANJ2zhKBUM5Uxl4t9UyHHGAr3o7e9lOYD2Oz3aN6u6HKNu+CG65KERgxLveOoeWXZa/wsxQzcSonfZaPFv2Z8Ab41iXuGHHzm7jX43Uc24zMPrMdmalzYtLBSTQqvyihqbFlp1wl9emtoAXjFIArKdOP3Mmhf51Rg6g2jydY0q6SqPEadBO+iBv69x8fwWw8NY9twhCCfoUSnaVaqGfa6em0yC/ZWKVtavqrQ0XwOqdp2ffr11Rr8gQE4lRqPA34LAUHAFoGamPmktm7TZGYsGH1u4UZcTgWAi3zqlcHcue55Ue9asX/p8fXIZbrL9Nk1hCKl8A3TGCEtgoygzSsW0oCa1JnljRPYNNLEbzy8Bv/6yfvwa1tGsabGVNttNNzEdAn13GHGw+/u002jK2he+byqFRVojcHbPdczgYu7NMuL2vJ0PESJflctxwfu9PHR+2p4ZJ2HkkOfaHzcDB/L1fZE5pXVqLiKiOZvr8TOS4cM8Oj/IaQpaSqiNK6YiScQHPrB7kAdVp1+IvdTuhQpXQv1SZCe04oIvaB8kPvbtZoXkIHg1YBozl+8tljAzif55FaYIuV3qCVH6+BmvoVONI3mxDH4yQTWjXn4xKMb8M8/8SA++9gGbB1S7ye+i9q2lUZ0hWRpDPA7qKlDZ067Xi/06cZTgcVFEouBBSFtzP08glmZL6/ATiiJOxbW0j96cssAPnLvIN67wsFg1qB7RU4Vo13CfN3C5PNzoXduCZJxVUP+qCeVVibsVlAlTLMWFEe5BLtGLVSr05Qmc5dKBDaDpitV5wRls6nQYt4xmK6H87NjHplT3WsFQOfdNHexoDcKYHWcSRK1wTMtFDLqKWbWgiEwNYj9oZEqfnXLevzeg3fjk/esx6bREu9rM+0NPhPBdbQWnxaI4fNqXZCb0KebRkLNpTQHtC71jrunpIHVxllGAwEluZOUkcXUPPkgakGAO8cCvGtdGR9ZX8UHVtTUpDgXxyUmnqSxgrTuEpfMagb1Cdwg10qE6gIpMPKfLkTEjJGmtUpdLVyt0n/s9n02XTEFYD2j9nI1vxUzaBQZ2s2Ly4i5ZP4u0rx9s3vx+I0AWN0cfabLpcWgYY+ZupAmEYZKLh5euwIfu2sjfvXOO/DBlWNYTxO7wqS3yzlmyxZCaml9e6BpiJIcASUasdynm0gLwXstMoDjI0b18ph8owEJwp9rmj5dDFKi3zXo4wMbRvDZrauxZdTHkEupnXRgpdRVYhpqAFXmGIvZmMw052hOmiDTjtdUS6vaWV01mo+ay2gvMuv1gkmYttcJRpgYIChchbqXVMGjUVKmGa0nbIwZXPi3ufJEHR1KFQKZ1oipzKL21Tn1xtKb+F15tx14jnqv7wZ9axH4DnOOPwrzb9LmkmPFTU3I/M3MFDx8h+Yf09Y0XWUGdIFFQVsaYmHROogI3M4sRp0Ij60Zwq8+ei8+dt+deHj1CMaYXisspsXNCNnc0vhtBnXiYJTmtR6FuKbEuEnEUmA6unwoYn6ZXQ00Mdmikp2XR7d0uDItzH2DKAblhELveC7ovDJthEwZmIXxtc62pLBuV0eF5eUaHl6zDJ+6byX+6NEhPDbYwHB6HnbUNBVgZu6jJKbVliLQkiEanN0mw9BNRkQG13U6h6rcMZGqkBIbuVaYu/y7rhSEDQqBxQT5s3PYuJx4TgysVtmOn6FtR9S0NDMlWJgX6vdrQEYQm6YiJjbSxOtehTxUhUUAyy82eZaH/MwG4nDGtJ1KeBVp1fczPj6vuaKMAKNrbQLPycc2s04wTzRrxZxgMw8XQRDTCB7ENHFpAsOmoPRiAi6iud+G34oxFHsIkjparRqilg2v2cQdmMVHVtj4Z4+uwu+9dwPuu6NKQLZpU7UQ16r8JhtlhjpBG6gMVMgCrJlQj0FlcxNIr5UFg0y13TxQNjCdJm+SIaNQxEOmjoHXbvVgvs989aUZLra6oWS0GYO0a4kF/MGNQ/jNx7fhqXs2YyX9wizMUKkso/9URjjVRHt8AmUBSf6XS7bkRglWBY96Isk0NdpKDGu+ZClTwVZGuJHRbZojrl+GbbRxlUCmxpMpreuaIMC0pRbfZYqGPyaQLzUDo2TlfJAaolrWnwG/pJTUtGrBMgKVbour5V0iastZWgQtWjc0k5NagIlyillrCn50GqP5JN6zeRn+8FNP4V/+1qfw1MN30ZelCzA7zSKIUKuqW6RS1KelTOSiG0fzgaugju2bvDaeWj+ET2zdiPdt3oD19AvRbMCJY/iOD98NTMWH5XcrUOZLdIG6C1idEjMvbVLaqZ0026H6hBOoDrWvX6XvX6nD6QFY7cICbkI3IlOQcJLeZlBnDgmqbqcOA975Qou7PUArO4xAUyky/9S052jKWWpZ9en1LfrftAIiyovQbtKoOYfNOINP3zOK33r3Fnzw3lXYNERXx6NAdWJUaUHZTEMsk1pxE8A9EPfBvPTohoFXoO1te4FqkwzaxupyhkfXufjQPYN4ckMd67wmqkmT1hcZ1Csjlg9G7BrgKhjzvBvEQNzKbZTFvaRJDC7gEsA5t7nW2fHkWlQI4hr94BrBS+HFc6q8Kvw25VnhC6sH1Fz3SQUCiTsGrAWIZQ9yv8hqs88fxUJNrbqE3IzmyejOWD4FBYVjkkQ0x0OCOMWWsTI+c98qfPrBtRSky7B5yEMdbdhxiwKEZjYzWf2fldl9sC59uqFwuBzAmtNKo1Q0Ydlq4vPxNcAn7i7jI3cGuKPagZM0ECa8zx8iC8oMJLOKZ0yFmNBK7cV9g2EzrEz3LGViQrtpV18qdYzMBGRpWtU+E7iF+UyN6Jdga8E2fqOBIN0DzbWl1RgMiAlmNe0InCYwL+dALM1stsUlc03t6bJ4mFlx4CL0LYTyszuzWEFn+vFlg/iVrXfit556BE/cuRxrKg7qToJADiL/Q1o/KouUpr5NU79H87XvfJoT0H26afSW6jJ1u5um6RZSC2mJitVeiA+sy/DP3rcOT91ZwwBNOTRnmQqfzBuR+QofsOBLJk01iGQcTV4ubWQm8u4x7RIkw+KG0RmYTGnCRIHfosnwNBJJNdBqC3a1Vq2pjVZTkswOkiwVmdPGz1c+KCgiglPbbjCY4U8PzKrQyjtFRZoZEaIFu7IpIJrAsNPGu5YP4He3bMbvPLAV2+5YgbGaDw+xKXzXkxApoZPaaNJtbtHsTkxzWAHcK1EftEuDbhh450vo3r5WGoyrgwi5VRNGOWtimdvE3YMJfuWxDfj1d23BHauoiSZPUAvHcKk9HPm/GhQvnJIXtcSoZuzoDadb2iRw9UBXBPn+CcFIXUotTHOUWlhmtFWpwaIvrEnsoAEONHGL9mAJLW4IWDVDFbXL5oQBcK+22dykd3Cr3nABtaXpA9eZAWbP0OI5j3XLbHz6kU34nSe24le3rsO2QQezM5O0inOUSgFixj8120CjHTEZdZSrA4zORRQWTXq98pxPfeAuHbph4BWpsIvpcHrBQklvIPMaLUpfDBq4H8a4a6iKX3/wDvzhQ2vw2EAHA66FMp8pkQWlPGw1k5CBC01MzSKGVTvKUibxtflWBjmmhvelKWU1CLw8kvPu0Q6h5tXSoMaMNqY0tTBNaQNiaj7LtGnreZIAY/aLE4r2Ys27tK8Fxy3DYxZ59HGXUZk/uWYYv/3IXfjtJ7fhibvHsHKUeRpkBK1MdT7G4PsuyhQeFb5brT8BQ5XpK7vXZou+ybw06Nql9CaoJ7EFXk1DU8sjVMi4WpMmRZVhgAVfxiBNxa01G79yRw1/8MByjJCBavS3StTS6napXk2GabsM22O4pUxmJs00JrDkMBRNPcyG3kWe4bcQkQKwfEuNUJLmLZqSKsYvVvOSVshTO6YAXHz/ZWEuX4p9yTkt8G0xrGM+PrV2FT63bQt+68EteGzdMMaGqLtLbWRei4BlguTnUhhqJpCAQPUclpfKiBaOSwuHdtKc1r2S9u1RH8A3l94SOPQAXBR8CpfMoTWDVNSpgOnW4JAxa0mIu+sWPrNtlWlOumfEx7BPTULmSkxjJ01BamppbWM2ahyqNLri5pkCDvzjgQnz/m4GFd+rd+sbmLlKpwnKZl2bu2r6RWfyg2lGqyulQ9C5AYGsmmieyynENAmAmpIyuhRqTpJnbEsIyCfmVnHruzPVJnemsbbm4j13rsXHH7gbH9l2Jx5cVcOgq/WatOhahES9QGzFUqTF+Mtmr7BuLoZr51/xnRe3S5uKHL+Vg37nDufRW6vLxLQ2fTr6cnqRS6bQmr8Cp2pFM5mQBPZY1cG/f2o5fmerj82joalwMf6fM0y+ol8Yi4nVLpyg7HjwVQstxjFMxiD70uCje04VPHz3zQi2q3msVIPc80yZdgkcddogWGngGk9AtfDqAWTmqOI1mc2qyNKA/7RUQlaiZqZ5nUUd5AyqD/D5nEuhl0dyH6gtXb6HWAysDh4IpvArD67Eb394Kz74rrVYs8pHkjEf1XlDg+3TEvyc2t2i62J6nPOdNrd6twSlESQUlBQeRqAwL68Ezt55WVZXur7USOxwqwf99P7mk1j+phN5nm5fhoc2juJX7lmHT6wZwPL0AnBmN9M9DW9gkLy9AnG7YiqAFIyJegmRkXp26lJnKlMG0nDcMKlaW8mknSasmo9sTcOokUlmnqwY9VVjcAa0WmMH7cYsKtTUNYLenmogmO1g67Jh/I+feRc+9vhG3LO2imFZ4Jq312U+Mc6cIE8ITk0536fbh5YEeMXICRpYV0rxodV1/O5dY/jspirG6rPUGuOIwybCmFohHUSadMGryiwjli6SIEt9YMzV+ZJrqQX+6uciGQAzF6gFs8Cnt0Dft0o/eGQQWLcOs50OmgStmpLUGSOeuoD07EncVfXxuYe34V985El8/NH1eHBtCctLHWiuRztvUyhmxk2JqGU71K7RnAPep9uBlkRpyn/LosQsQbKhnOHJ1T4+c/eI6ca3mfxbStvItVAzggK0BrjFswUJtiSe0x4Nu+JgqQaz6aaR3y5Am5koqX2lJc3cWNS+drUOd3CMpi21sEtt7GuSgwxVAnPbygp+5eGN+N0nNuNj9wxjzUCAAY9+sdZO0tzSArqxQOTZ9ul2pCUBXo3McTP6fNKbdkSzL8Gj62r4rQc34RMbl2NLyUaV/psZ4laorm5lkJJPBjXcX4RboRmjgFQRBODirwtgA2KbWlgrDtBszmgDD62CNbQcpXINw/USHti8Ep/9wAP4tfdswns3+Vhbjvm8jSS2kDLkqUY70cc2gbhnoDgwnm6fbh9aEuC1adLVPPX/raNFH22Wfp7GLzy1aRk+ccd6PDxSwTIvhONoCU2xKZURmbxX61xwvkzptKiJNT7xRSAvucDkzo1V7kLYnJwLPMcgECIqY9nIegzUl6FKTbxh/Vp86hNP4TMffxT3bCyjYp8FOufQTjSn2AAzZgi2O0jzusY88cy0N04YwY8z0w7cp9uHlgR4DbPSKpZhHBHEMTVM6ml2DvLlxAzC8fOw25OoeBHNQTK9GFxsT/Dyp8vw/DHbnkZb+iQsCcwm3TpQ0ORX6kimkDuo+FU0ZlpotRPYpRpKw6NISiXM8N6OfNgKTepqldqahUnVSmVtSpXyy6z1nWkFBGOV8MSCSr4+3cq0JMCr0TOaKzhqa+FlNaaUMBFZ+P5r5/GtV17DjsPHMDkxDZCJNb5XFVZiRoG4ALKJxFCvbbUH5KUZ1ETEHQWdmDvPoI4ZCgbECTrRLEL6sJroPfRL2DfewNee243v7jyFvTM+zmMUDWsQdHc1eQa1NYUgga+BBpF6dqnvtILm2jJuRp9uF1oapamhgUELgRWiTMbrTGfYvuc0/tszz+H7h47iaCtCo5Vi9vQEUo286fq2Yn6y+JymFWgVBOBLEbEEg1Bmgo5JRuDQ56cVYgIBrC6QuRMid2OETo4GVeuFLMD+yRTfeeU4vvbCcTx3NMe5jlY6mIafzcJOGxRwDdPGK22c+S4Sj/4w9zV/Xp9uH3rLwHvRv9OMGJkZXUOI8sim1hGj6uU80hq3GTUuGUzzIY/PtLH9wGl897k9ZNDXcXSyg5ZGHZG509kZZK0Z5G36vpHmxIr5fLEygT5ElTNGEyvIQlQwx+JaBmkeE7TPU6Le/W9r0M+lRKgWf0xbN7Wm+6Ln81gdj+nPK/8yv0INPIRdZzr4xo7T+ML2c/jxkQTnWiEakebTkvCyzeAD9UhTpigbzFS0C19bkM738suY2Fe78RageUk3Av7SjL8lg37nDufRmwZvD5yXk84VnSiKrVgupEkc0vcyQ3t5j+ZGUu8iO0vgJB3koeZNquNgw8Y395/D3/ziAL6x6wymOzXePaBevvD9COXBBPnESVjTZ+A0xuF2ZuDxeU/dD/g+m0xn5n2KGcw0rXycwWgyw9AMGmiuDhFCh3JD3/C2B73ciBsGkxBTRLl6npneZ8w7Ak+3OZmLMr+wbLsoKc/CBBGRGNaW4fWsii8eGMf/+vPD+OrrwPaJGqZ4zvEqKHt6KmJ+NJg3EQJmvGqcexhVMuYYQkEnNZqL5rbmzbpa+S4pMhbWpWRSzJ9e2k123+JBP72/+fSmwbsYkl/XbHeK9Y18By7BnLVDBHS/VHnSIiO2c8esRvf6uRg/f+0knn35IHYePI3pJlAeXonBZWtRrQ4jTR20aT4Ld5psLY4jKt8O4jA0g9iNxlK3SfXdVUWOUcN8D8+bj+b7JEw0xLCYBF5pUCqXNpmacwqlYqI8gUoJ14ViIzo+0cB/fnYfvrvrNPacSTDV1lmtTk/AUlipNl9yTMIzpaViliVlBEa+KTC7cpUJtbxGPKmnV5+WPr2lpSRAub7fHUygDvLUAAx51ILjEszVAYTeAA5PpfjqLw7iey8fwcuHp3BihsC2K8i9KmLq3Vj+H01nzy+TrwS8BCmBm7TbiBlSrWqvsa/mpfwkBfUEVDAgLpjfaBQN2ePWDMXp4mCpkoSOlpZJuoDTFLP8AiMUM32T7uFHN6hTX4sH8fU9Z/GF5/fgx/tO4uRsRMAGvJ/5R2HHaIxMUwymjqHrXyg+WUcRj0xgfPEVNFqflh69tSJW4HW8Qluo3UL+LRlHM2aoK2CD/HNgvIXvv0Lgbj+Ml05M4xS1Rpug1WJeHTJpiyZ1h1pWKQ3U60gaVpyYqEq1A61On1K7p9LAMYHJa4b39GUMBstkVMOsSodMawZhWmEpk0w/s94Rw9y6RzxXwLZHFhLHR1QaxZG4hOdOtulynMXXd57Ci6ebmNS8kJZnlhvVhAcab1xMIStdzDw0wYgE7gnEdG8Y+rT06a0FrxiNfFB0aRRwGIgsLVI2EQK7Ts7iBztex7de3Ic956ZxNqTG1aiWska36HkiWasOgsC0tL6OGE7+K9HJuI0GDQnsdosAZiDQNXxOmlkjl2y7F/ihfESYviQYlN8MWpzU0CfOAXZuW0DXhF7ytaV5nFSGcDyr40enUvzdjgn8447zeOlMhAvM6ywTcLkT82bhVeN/ZbFE8ouLMbwFMzBmvbhPS57ecvBG1IgCSS6/S1OsWCU0nQC7T03jW8/vxteeew2vnp5Gx9PSmeq/S+ayyV0ZnV6b4C2RqQJphTb951myGK8zLseWk8bk09+V9kWriUyh0yJjqm9vQs0qo5F8zUcU5rDKnd4QvptGAsj1AoFk/rivI9Hc2e45A+Bcw/4mkFNQzQbDOGWN4RdTFXxhbxP/8MIRvHTkPC60mUf83lzVVhojrUrDkHkXxrApAFUfwdynnrYpN29ivvRp0fSWl1Jg8JUisXxkpQqaro9XT3bwjV/swdOvvI5951o8VzfmtfoSOGresKQqCF5pXmrbwlcjkWETrftL/9dm0PqwvKEAsEzoUOCdMTMmagysRdPapnZWTbSAa8BLFaylSYrQQ/PSJYoZ84kLaE4S0UihS+DbIfKZC8wD5l1tFBjbhNP5AL76ylH8lx+/hm++dgL7Z3LEFI5aGdDSCocsDy0epiyXFSN3RGOuvSu+sE9Ljd5S8ErjBp6FOE4wS5P4VAN45ViIr/xsN36y9xROtGyEpWFETsVMPOfEZJw01wxOQjEBzOTF1Lq07qQT4A/QfPaphV1055XgrwYBkvvkwyUFgNO22oLVBEVGNhObkzHJlCKjtfiXkuFV03rTSMm5XtDG2PvMB217gfkqjWsC71FllvLYDRwz+MjKKPTCaeYf8z0Yws5OFf+wr4O/eek0tp9s4SjLYYbPRp6DPAjoxkgIys+VW6KtQp+WOr214BVrEVSu62GqHWHHgZP45o9fxrP0c49NJ2jaFcRujUzo02RzqHDp13Yi2ASsJ82qRZCMiSdTr0QerjLSovNullGDkMcEXY9aVNa2Q2bNI/rIHWptAlcr9Bvk68YueAtQ6KcXbhbNT8PVgnBKLdkFrHK0e7LYiribMxdyzZAhrRnNohSehxtPMEP47dSuJ/Ih/KJRx3eOtvG9V3bg5cMncXw2hYZ5xBpDrAnxKMzoVRc+dh+8twS9YfCaxm+GuRpLBhV7yj+tlC9tYEw9alB1ig8JtnOdDNuPnsN3Vav86iEcmhFwy8g0TlXMKV605RNbpidWqjVsaby5Mo/NEpmFlhWTqtnHkLY81CwyqqxRKCqgeF7NQe02feAWTWhuaVLnBLGZC1nPmTgYzK5Se/GPZxjm0RVOvZ1kfNue4FGC51HvWpEvtEiY52lEfz9pw6cf7FsCoXq0eWhnJRxoOvj2gUl8Y9dp/PjAOA6O00em+ZFZJZagjTiNadUUlYOq3TZrRZlaacUzL3TL3dRGLmGay7ZbnMxn6Oey7xHrX0KXMstF0rlezynTVmqaHRi0pCSK1fNC7qu5QS+xqfRigvYETdzvHTyDv/vFPnxjzxkczOpoDa5BFAyYtJTIZFrYeZa+bRhQC5QJappyERETEshqxDBOmSqx6AtrXgib+7bLNLhkVoaI2NYsEfKH4ZR5L7VQs4G8MYNklqExa2qjydl8I9NnAKm3k2VTmt4UFm7uGBPc7tmiJg8YDNi7xzcyLIZ0nwROL/SenXeuKIuU1grzhH+J66PD7+9krpbeZTnwfNxi9k0zP4FX07vw5X02/u7n43j6lRm8fgpomaqFEgUc48poseQhQrobMY+LlRuY96Ybq6qpdQ8tHAUD7KVNvSy7lYPYUCJaf/NpAXgXQ7l8MLdMyeyppYEaNqfZa6OiGlxyTEJQZz5h5rr46o9344cv7cX+42cxrdpgcVRKBiGTaCL1iMwXigm7cb9x6mnMS0kTwYkyMnXSCRk63I+L7pPmZdrK76XNQICaYLKHHG6u6R7tKoveVDYtPRInEIxeNcAxlsVXXnsV/+GZ5/HVXacwTtPcC4bhR1U4DXWqcc1C3I7WO2KeNdshWnRpMjUqORKuLHvVSfTpptGbyn2xtyo8OgSIan7NWrJNasWERcvj2TjF7rPn8b3X9uKrL7yO5w+Nmx4/EXWbSy2pnlaORu/a9K7INMkbaLIRpoxyFF67295+L8hH9OjLGeWqDh4ELlSBxaBjWx081I9XZh/Tk9uELG/Wsiomrjngdg3p3vEtTnI8HJrSWub4rLRwI8T3Tl7Al/acwNd3XsD+szKoyhR8deafQ2HH40hzUDsoBWWCu2S6PtOgYhw0x1WYfbpp9KbAK17WkFNxtopP05FamVAQoJE42DfewXdeO4L/+vPXsPNcgtNRCW0yhCYXd11qZ3GF2ia7JqyWAVk0dd9rfub2RfOPNTUpgw7UQURgNSvBtwlgms8Es8NjA2J9gDHLlRZuTeA5faTRVAzGdlnKpDQWm2sFVSA6dkrfluauVq8oDeO8PYSXx2N87ZUj+M6uk3jpXI5JFo+qD9QHRh1slI/q4qrJ2TVbiZaf4aU+3WR6U+AVE2h5Toc+pC0/0pjRFYSphX3nYjyz/zy+vvsMvvf6JJpWHWkwQkYZKlafI1ekfMb0+On5THOgWwx1b+a/mTJ13qmi5ouB//LNTS2tKrO0lY8oG5/gVWcObW0BugvYYhXCbjw9EtMLvApLnAqP6Pp/qYSUvke10/4w4C3DhbCMl07N4tuvn8EXD53Cj053cG6aGlp5QQvG5ElC1yNsUtbRYKap5Wg+aAK5TzeP3hR4ZX5V0YAbzxj/VROkd8gPB6eA7+08gW++ehIvnE6QeqvIHHUD7JySPstdU5usThtaRMsASjJc20Xio2cmG+CKqcy2F3RcRCX/VV+nARCWRsoIwKpgo/ZFp4WcwQo7tAISKt3UdOQwk8Lz2TkMMwop3SWveBdJspZS1UArLxIaw20bbodfnJXRcOrY3ozxj0eO42937sFz+49hXB4Hsy6yHLQp+NqtWbo8CUouhXemWm26IX26afSmwGsAlzThBi7sag3TjOZVmlv/+NxB+rgHsf3YDMFD0I6s430FYLIwNLWX6mBhqf1WvQnUEeONkBA1D6SX7nePxZj8qkRMquFwBK4rAPe0ryrMpHHVgSMi87UI4g5N6Cg2vbE0JthEofhEAu4tgN6ekLlWMKQ8574lt6Hdhheq6smmoA1Yjj5O0aF95tg4/vanr+FrFMIHZoEZPpJWB+FqcXBRnmkhfgTqc9qnm0ZvCryGD+jjZnaAU3Qhf3JkGv/w3Gv4+kv78fp4i8DVchkuJXsLfkpwJOpvLDOLvrEquNwqmYjgVYcL1VDPqbpF0OX3CbBXIK0UIDfcTAUj09gMI+IFc780fYKcacpnZpHONpG3qIXJyDatAjPaSAyul/UExFImUyDXJ32PpfVRJMQcCqpyEXInoUyTMONNeQ2dbBg/ueDg7185if/+i6N45lATx1mEYWkQbWhpUL2SAlFt8H26afSmwKvHUgLw1EyMF18/je/vOIgf7D6KAxNthI6Psu+jSp/Ib0xiALFZG9CsUWTA4BM6PhlITESuo0rg3hujywF7pWNqXbXyFIPPaUSrZlm3UVvYPC/TXx030CRXyg/uaE2gmIKmq3270XR/GG59MgP61dhLsyIPckRBgo5Hi8il0GK+eJmLStuFmw1iZuQuvDrr4Dt7TuKbLx/Ez/afxLGpjmlDTpwyS9WjC3R75MutSgvA2yGzkqWRqU3AzFtTVHTIDNWgbZlMmhzteLOCFw7P4oc7juDne47ixFTTLFnpeOqZTNFMf8jWSgdG60njsqD5bzqAGB9XwOWL6MAak05hPgk0vdA7NiDqhjl1feVj1TXnFx3k4jxRq0W/int5WoCOCN6EWieWaU9fmNpYfq/T7dXFPd5PDcNb50IvrSZ9uo9BGk1hKZPSLYFp/AIjvgrhxq3ruqabqR1TcGkdpNoAEreMw5MxfrL/HL79ynH8aM95HJzIMEN/2YCXz8WgpaWKK9VdMW+UPb1uO8xYSc/i2ltCKldStzx6fJR3eUDU27tWuBXoSmktuHgezTBQB5GRmfFtwjgpwKt5GTo0NeMkQbud4ukDIb65fRw/2zeO4xMt2IGPWk3d7CI04iaaeYy0XMYF2q0NMnhMX8sAOSNQtCSHirnL+OoOeTnNz1zTv7cX5v9dFcBkTKPZBSjVljJoCCFDzn01Tan1Ut9FhxeBHcJimpP2jAkO0+kK5FLdOT1Cahs/taBOXY5GKSnwURqO/NM7CG71v06LtuW3Peir9fnXC/wcZYV5hsVrxfyChC4O0y053bYzNEspImsW3swxVPjBVmkIxzs1PHM4xj+8eA7f2n4Oe8/kmGERqmNLSE9ZnXKEUwXJfHXliGhgI+dNOvFWgber+fk5xU9XEeQ8r1Ccu35Qfix56qV3HonbLyG/MUPfr43ET5FUeLdDNifjVjMfaRTgWDPHz89N45s/fRnbXz+Fs20WoFMzvhCtaITSPm4Jtl+jwtKSkt2IbxrxG3pavkuCnLhZs3JUaF4nNJuT2Un6vxNImtOIZqeQUgsT6vA9ByXPQ0kryFfK8Cmk9Hgah6YfsSZ38+0EnkPT05K2ufVJDQFhlKPF8rTLNVSWrYI1uAzHpkN844Vd+PLPd+KZg1M4PUOBna1gObu44M1iPGe+RU1UIxe15iCyVoA25VrILOvTjacF4B0mk3vq4khGjF2aylQxGrQty/LcrIVnDpzH//f7z+MXB8/ieCNFy64iCeqU1gFSM8ZOop373HZML6Yi3rebpGkuIQNgJYZGFa+pE4cmq5MGLgUBavUaAs3g0WmgfeowOuePw2mch9+egNW8gHaHAi2lJpJpqZ5FRjPTcKTWsbMOffo2w+3RdKJvtDSjCU3eiGZ0aPn0jWuYZFnvnUrxw8MX8OWdx/DtXePYdwo40aDLYXdQDToo5XRDJmaNttVypS2qtVnacn268bQAvGp4L0l5ksnjLEYzjtFxXBwYp6n86lF87fkD+OnrU5ihqRXSnIzV91Xmr3wp024rrVbEk6sG86ZRNx2i+QLEoNoY3TxtI0zpu1klOLQWfJvmMs1nN5rCpnqOR9ZU8PgaH3cOaEwxvbiIAo1qyaxo72t8Md0ECoGEIDadTt4y+/DtJVkknqmjYEgTatOO6YOe+GVEA8twIg3wi1Oz+OJrx/C3O45i17kEzZYLm76wchVlBmJfdWMe86t8BTbr0y9PC3OVfKlC8+iHOom0p4f90zG+ufsAvvTSbjxHzTsb1+HQjNQwvkSFK7WsYLo8aiJ0rSmkpiE5QvOR8/ZRD6KGAYsDQ2a3u59rmlh/iEwW0EyUexBjjJi8f3UVH79/NX790XX4tQdW4KmNVSwfKKPM3NJMlanaSjSCKajSpZbwco0A01Q/twVRCFssz8CjleLIZ2XZxtSedDG00HlUGcCZ2MLzZ6fwDwdPGg386sEU58YpzHMKtFpOTT1Nn3gGdT4ul6tPN54WgDetlqiNyOCxDx9VTEU+vvTyHvzt8zvws+PnMJtVUPNGoVX60rRDjaQ2XAaEBEYMlyakuk2qQSjwFH0XKW8nzUNosct0mFCcM9YzyczzPLCCzGqb+Z/rxOMDG5bhV951D37j3Vvwaw+vxKfuGcaHtwzj/Xevw8ahACV+H1oNfq4cQj7g0q93SkjVhKLj24A0L3YWtVCiJVKnBvXoPhnBnLQoiskcrgRXBSmtlWONBJ9//iQ+/+I0fnzMw8FmgPNRG1E+iXKQEPzMdxlkfbrhtAC8Hdo7WTCIDk3JI+PAt58/jP/+7A7svdBCWh9BZWAYndkGoqRjTEXXzlDybdRKLs1tooISO6OUtlhiJTUb3QTszhFfbiaaowloBip0AaxaZjMBO12CvDEBRA2srHl47K51+PSTD+HX3vsgHlxdw2ovwiqvhQdXBPitx+t46o5B3FlNaFZPA7NT0IB/0xTSbSrKr1BrfiuSLQ3re2YAQtF0FtOMpr/P8k6aDTNXNjOSN9JMScvojGzA95iN/9uLx/HfXjyFk1MBas4IrNxD5lDIy5rr0w0nZ2ho6N939w39s//xXyD3POw6E+EffrYTf/ujFzFhD8IZWMnCdMjnTfK/nBn1sLHgOOp+SIBwX26vWgYyMrNZGNryyduLE7vGV7pRRL4qmpaKrZnrWSDuXpZZaGbVIGN6M6exZayM9927Bh9+aBPec+9arB+poEJzUf2e9Vw5CLA8cFB3UmqjjILAVkMI2on6aFMTGV+/SL/eeauTpeGU9OfNSoN0EUzTsCrqGLTihDmRyy92UfFpKtOCaZMPGrx/YraDqUlVUGm95SqvFW3JgQTndUhltRjqcYqlPvJ87/kmsGMyxCszMepJjeWdI3FDJpGcmC1Sctwi5Zb/6P/X3bsCeP/dn/zPePn1c/j69j347r7j2D+bIXEGmAkBfUKNe6VJ5VJ3aRZHFoiZ/oYFqpn9U7WL2j4zNGAGU3KrrU1AXwS9JeDln4BbgFelw0CbWasMCnBVWn/vWVvGRx6/Bx98aDMe3rQcawYDVAVcCp2YDCpzWGNbq8kExgIbQ8OD8KsD6BCzk80OGZw7JHVw0Cohi/vapU3qC6fWAjPpglwLfpspIeZb4XK4BLLLfHGLb6ZPTFjzz8Vs5ODYRIwjZ9X+G2G4ZmMZrRpPvLEIWgyA++AtaEGOtnnmJzv34Yc79uMoM8Ouj9H/ydFpUuPSbDJ+LLWPerEoEzWqz8yQQhcwM+BVv2aiQgVvSroLmuuEXoFcj1QLbjNe8249ayqJ+C6ixqIQ0fzD5SxFLWshyELaALpTTUKuES5aeW+AIFw54OPB9cP4ww/eh197YjPevXkZ1g951LiM1cTPOM13dOMnmOtlF/evrOFDd47iowxPLPOx2g5RSml+W0yZVnrg3aY5id+vPtKauaPocskgK8RkGE3QRf7dFDImlIQSv7s7h1gh75TfhQaWRaI5xyTE1JHHSRJTLi26DsdbGb5/eAJffu0svrVvGjvPdtCKQgpDecy2EQrKX7NapAGrck0ankqA8UkAFoGCVudNX66uWFSe6nbRgt4VveP5Ny2SdPtSDYaUT5fywwLN+9gf/Bm+8tPt2H+2jdQbYdbRB45pJNoEMkErjZTLNmbmK38Kn1LSWd0iBSKeNMzJe3nDfEa8+l+Pegm8cmDsKDNFkgl6QwEuBjEB0+QStGWmr8LCruWzJn1mqlgFwV6gdlNsGvHx2KZRfOzBdfiDd9+J5dQMZSJNzGdSQ2a1+U0agO7qkO+FU2Vk1CD8vjFq5tUlC1XGOj3dwnhoYdaqIfNrvLkNLaxGFjfCxEw9Sw1hlty0mHb6j2JEm+lWvNcLc2X3NpLwZMqOeamJBi/W8DF3zEWlSxPUsRxSukbKWwkvcz81HiJqxBzn6ezumMgx0QhxV4Xa2acprXoQFaSiZLkZpa6uWZqOiMCPEuacqhC67zCLr4if+F7bDKrQ/SQlgxojp3A538wLzTsboZ7WGSd9c7fDOFimt4XDzY/thvxH/9GcEZmsm0+vHZ/ChdA2DfNaKVMTkBnbiAVoJqFjBNlNahIRD0XS8kyDpD8RoBIsvoIWgXz12AvQcso4i2G0/BG0czIVNeOAFWHEbmK1M4snN4/idz74AD77vrsKZuySmVxvXuiR9kz/E72HweG7lg1X8MCWjXjq4bvx0LpRDGcNYOIUhsp1OOS8KI7pTlDTuARppcy0+UW+kUHt26Vii3nnUbopUF4xENyqXVa5MKPkM7faMV46dA7/y/d244eHpjFOC00NiJqm11NH3PaMyauISsJyXZTUqkSWS9WmzpAl6oAqQccXFPxbhD4t1LzR1k/j4NkZTEVkQHWEJVRKAq+ZMYOMTA2r9kyzcNeNCosmJkAaXsA1BSgkK7C0lTaK9ISFHKuHV2kFwWNRc+YIkhaq0QQeWl3BH3z0EXzi4TuwdXkJw+IHAk0AvgSs3X2d74FbXTBkcsuikMCQj1um9q0PaeVCArPdQHN6EhOTdC/4p95FmTha+oPaWgurOcZH1CyVqtAr4r0evZHcebtJmlnjtTWTpNHSSi0/S+UjHjHT9roO2vQ7T7dsjDciNBttDJYDjFSYF7TobF+rJLmIeI/snsBmCVILKyqH1olLN8yRdcf8MnNKM++llZXHqlAsNO98n5eal88XPi/N+cX6vEuaxCsFv8zXvAvAe3rdh3GhlTLD6S2Kc5hh1YA+YxwaizgzPlAB6sWx3w0kMbzMZJJM4Nw42uoYIu1LoBDYJih99D8R0YTtTGNdJcMHtq7GZ5+8F09uWYk7hgPUzWCENjVFycQnmq915wNXs3boLfKfJR6Mk09TLqCmUI/KCrXqgKeOLQmOnZ01IOcPYtnchUri02Rocl0xxawqhK4PSzHpUiazCkWqvGD+K9+UXn27caP4zepGyrJQ19mGXUMjSjE1PYvJyQk+lmJ0dITZJHOb1ggB6hJ0jtViXMotl+e6TY08Tmijmzmk6brppJyoPngvA++ZDR9GaGoGGVQ4LJha4NKE6ZgKityRXaMMkdd5fQZcFBXpWgTpRha28cO6IKIklqlmmEVpVqCU8ahtB9DC5hEXTxG4v/Lue/H+rWuwjNrSS+nDaxpYSXS3AG9P284Hbi8IvKps0Wgjm+80E+hJ45NKZD7VWi+vlTFSrWA28ZnKCG0KjlAMrYEMmrtLDiKZl6qDDCsRwP3F0KLz5u0n5bba+ZVEAUU5KO1paqkZtDVXJUyZzx1+++RsE6cvTGOiSeAxX/xSBSXPQYUmt2YVTTTqjHymOoHiDSZSJKrJKoZyMUaWm0IfvJeCN932GYKUZp6YWYEZUPIdRJEqIlgg0rwmU8nENwq8hhbDpbxHrzTAVdoIBEp3Y87KbMsUUvjUxmPhWWxbHuCz79mKX3vyPjywtmbaaVW90m53kNAXDioDjKLLIJfRfPDqPTJzxYpqYtJKEUbrSBPw+RI160jZwoqhEkZWjtAYSDE9O4lm2DGWii1/V8Clwy7rRb6izL9F0WKy5SaR8j0w7f3qGiqzllkiJWz+umVlzDWWl4BGQReGOSayspnI4cCJc6jVBzFQ9lCjlSJBIPeEkOPT1MaqoFKciod8aMl9U3noGu/og/cy8G7++B+i3WwgpGbKqCHkv6gOItE0qdyXSVRoKVM8N5CuHxuLCx4ToyYEqkGCgn4TC08z/SeNBk3kJmp5hNWlFO9enuGf/spT+NCDG7FhmP4pQZt2GojiBF6pBiuomknDfcZj4iZTXCsYiBvOLDppWPRpjTksDEqrUluUaDoPDwIDFf4Q2I1WCxMXphDOkLvIuE5QgqfnyFTquHBdulhmS5JkJqs+2GzJE3MCX7mlPOpVbKYxnLhl5n1OSwMAta7csqw+gj179qAxPW1Gdg0M1akogsJX5rOFhZUWbCchwR1pcikRlUcfvJeB91N/9Gc4e/okZpv0B72AGUCTWY3h0jgyT8nIRdW9CulG0vW5VO5UheUqhjE1t5oPi+nTighup4XVvPjAmmX40P134p9/8hHTU2qkJLNWhZ0R6DY8NyDWqBnIcT6lveLUN4nmg7UXzHkGI+n1J00tbjL2GxlKJiFJs2HKj1Mt6nDNxUCdWp33zDZauEDwOnyvVvZXU4lpv1TPrOuRXlwkYUmSeCKjUE9lIs8llFseO9SScg+UvwGzqkrwqbLKzN5Zr8KqltGYmcY082eqFWM8tNFOWFZUDjaFomSca8qH7o0sLVNQdDdSgleym0XwTgevuPASeuSOMYwFGYI8BBUJ84vMpi5yYl8VioppMVrjLSAjc3MaVqokMQDU4mQqHBeD5QruWbOSmnYr/dsHsWXVCFYOlFBWh5JYneqVZpU4QUtG0CJcqt/sUQ+svW6ApimqR7qNz0teSZtoedGQ4O8wxMyT1GFMrkfhYKFszWCZH+OuUQdPbF6H92+7B/dvWIsqGThsN9HWdDvqvXFbUAEogyQKJaKtsEaYUQWwNQIr5HeHaBGgJbk4BKWtKYPbk5J4Ziz4kbCCHxyN8PWXT+BnL+7F4RPTaLPIZNTkBG+cMc+SjgGtMDy/aN7JtEDz/sX/5S9w4sQpTFBbNCnlWuIzDYGjJDV9mVVVn2iik64uUvnpQYGJ2kQAVwcHFaq605ny1fVrkLG0ZHqyZARFzaFczOKYUYIrKsat9xK4uSVJL9Od72CySmSS1RUXT2waw4ceWIun7l+Be9f58MkYmgVDCTRmvsBpUsLA0i+0qs5fnRPma94e5+ictIwYS1eKrpcFQ5kmLIdMq1vJpfUSMFKrELguWtQw0x3N+ERzUc1GySz5XDHr/dqqCUyVcXzYNH3JPOd52aRLlpi27sebQR9MelGY2vKfZWNaBViWaZLRXfENtjUDiRnwQMCrPkBDH5qUyTOzHbSmmpiOmcNUvaUS3RotBE7Na+Jg3tjqwWdexX3Fz7wcb1jYPplg+3SCoaRmKhYTu23ucXJVIF7/b2mT0lek8Zpm8//jf/4zZpaNZkez5k/jgpaQI1MRCcwoMqsy0khBlgKpZxqZDutakYCZKT+UO8YXLXR7t0CvRdLmjEt12R41q0Op7VDqynTSSoAZ9/kC4pURsgADRlmj2bSeO09tWYHffP/d+OD9I7hzVMMRKdWtOt/KhAlcAhWD6ZbXBV8v9AB6NTLXFYydVtyrT3K57zEoF3SsK6rUalsBfWlN3t7CkJvQ/1ZvLNssCdNOHEwmPjoUhg4mmCSa3cpHS+Z/oFgNk5oKHlsmIVOoebiWKJncUNHye4tJ9IVYneySblDeq8mIwl/93zXpvmqfJdxM/vOvd0tIoB1vlbH/vGqj2/SRA9QrZZR9ujss+SRqkyeoIFgW4gNNkp8xD8dpNm+fyLBD4I0rXfC2+B55x+QopeN6YUnTxUReE7x/+q//DEPLhuCUBjFBbXHy7HlkfmAqG1RASaTufcxpAZTMahOsHk1GDSOTZJTWoDzkNQVGuIiMkYlaHxpBTBMrptBIWCheqWQ6ObS1xi7fCdeHWxpAKfQRX7iAWtrAAxtq+LUPbGW4F1vGShhksgIyuzoumuaKRdD1wPtGSDFRr5omD0udWiiEPDLX0EANYysHkXs1TE2dx9mJC4iqq5FOh4b5Sj7zkIIpmh7ndzuoD9ZpKhIQ9BEtaqbbg8QPRV4XkC1oLv912ec3VxK0wwamJiYweW4aYSNDrTSMlaM1lMmDdFiYwwSwOm+k3Cf/yed9eaKFX0w04LXJNxSaaYVCUHUd9KNvfVIeFfl0TfD+yR/9sRnLWa9XMDw4bEbUzE5Pod1smR5LuVsmkGgPChvUEuo9xGxi3stMLvakpUytPkPPiroeOYxHs3KY28nQMeNIJJJZOKZjBt/tdDJUpyNsHCrhyXuW45OPr8MHH1iBzUM5ht0MpZTmsGZxlFm9SL/yRoJX1oNF/8ymyStFLVdAU+i6zK8KLYhqyUXd7dAP7ODgRAl2jdYBLZmk02BWhgRthdsUrZmGsWz8So3KrDDQbyeaD97iSL/MLidC4s+a/gTNto3paRuT03TdGtTRVongtRGUyGkU0soVJ2yb9ZQmaBy+OhNheyNGOdXsJhnCEs11XvNi3nxdWiST3jTq5RBTei3w/vmf/EsqjMTMmDgyWMLY0JAB7tTULFodMhp1hBawljtZjO1k4Lcb10xIdWU2y6fUJZp/8wrnakGkdXQNm4rr5RjJjmIpUXaawQBulKDMdN07EuC9D27ARx7biHffvQwbBsDzDTOaiIasecYIFm4EzMWEG0f8/pRWgoSOqdiib2wW79ZUsg5qXoblNVoZ1QAn2zTv4gaiTpN5So1D6yZlnsfyDmhiu7Jo+Exyu4BX+dwN88u92C+OUtPKq3nPqBwcLb5eQSuyMDHbxMTUBIFKd6oSIChX4DMeh4JOrgeVLl6d7NDn7aCekSHobkQeLUTyo09X5danizl2TfD+xZ/+W2oP+pvMylrgYfmQj1JQQ6cTYabRoUTUlNqECTWbzGNjnho1w0DeVYO9al3V3zUNQ2buYkbPqIG+22VQBSy1rZpLamKb0rXK7XJaA5vH6vjIE6vx5IPr8eCmMawbYEFSc9lh0XnRPKOmGGGHZxZDNxa8JH6CgKvFuVL6skYAEX+q4vLd1HTmGK2VUC9VaBaPUyA2QU8OiVehltUSMIFpovNlNsf08U2l1m1A8z7DYLi339sq36gBco0CovVk08JTu3hMK2ayNYNTE+cwSwHfscpwgzJG6GqUyXuW42OKmnkHbWeZzgPxgJGdsRMzboL3thpVdB3w/tmf/5np/OBQ4lvUIgH92dXLyzRXhtAhSGZmpumX0oRmRqqmNaBP5nqabJ1mszSxAQMZT21wUWgy12g4nr1aUE+dcllr4KhGuYhDviPas/Ca01hbdvHQxlX40CN34aMfWIWNq2oY8mlCCeuZfG8yvXxw/iemNlrDExZXaDcWvOZrEOU2mcw1teLqu+tJqBhzgG4F0zZATG8bpVC0QmqWFOfDHNOhLIYalU5VYgiuKgWTEKl59jYgwwM9HVvklNkKtNoyuLlPTVmjGyG1QFHu0xpjaKOD6U4bF3j+9KyFiNp41CfPqJ2fvDrdcvHqhQ5eGW9gIBpgntu0YmT35NTO19e8Ji29BC1JUuKKBF4TvP/m3/wrA0qZrbo97XQMQJfRXB0eGkWJ/kRr+gJOnZkgc6njA8HrFn5mQkDLD57zcyUZybzXyxfVOso8NEqLN2vmQpugDVrT2Dzo4wP3bsBn3nMfPvT4CiyvRJS4psqM76dWo7SWtpfW1YJiKc0ues9w6SP1zOJrhRtK/IBc9QIeA6PW9ygItswJkx+SSRqh5WIcW9ashB1UMdGMqVlaCNVmrYH9zVmmLUWp5FMQ8P5bnZTPxb8O5v2Kuh/IjZP58FJaICy/jJDNLbWJ04ymUIZXRisJcHoyw5nzU5i5cA4xM6c8PEQrBzjQ9PFaI8VQPGi8rsSh8hCfLKK23qTlYoKWIClxRQKvCd5/+if/ivdRb3X9Ns0SOTvTgE/tumzQxYrBMmoE8GQYIEtyo4Ejglg9niTrTHMBSYDSNCm0euZefbVghsxpnSBq4IDvq/Gh5dSsD61ehk88ejc+9uhdePiOYZpKLJRwxvjj+rMICc3/JoVvkktwmL+coO72fHq7SZpEbneXJQlmMhEtFolCdfDIKGQ0RxSsiMLHQr0+jBVkwAE+M3nmGCKaiF7JowBw0dHH3WgBczNoPnjNduE36Yy6jMbMFzugHUfNKpIwpO/AUi0zT8kAFHvT7Q6Ojo9jcmoaHZb1dFTBQWJ8f2xjIJP7kaPjqFY6owX5DgLvv/iLf0d/Q50gCjNYDe0ya7Ueq0fnreZnWDZM06aykWZ0jKmZJhrqDkPt7FA6yh/uAdho8MVUNzN+aStolT5qnuWlAA+tX4OPPbYN79+2HveuqhK4IZxoFiVQsrIQixUPhFo1G/CtVHUa5G6poNUl7vpl9taQLGNTBSWfK4ZHQSSWU8WK1kiSd95h4swabk6AKkE6VnKwgq5Bnd/SoQ88RbDPqs2XFo0ZAHGLU2HldA9I83YL0ifyOzP6qblPbau5omW10V/VWkpItJVYZhm74hXH9G4bnxjHTKeBaVouh8IMB3nPIDW32pM7rprhaBkuonukSduCRC0lupjAa4L3T//izw3fS4MIuMpZPwiILwE5MSBWu2VtuEKpRmYMm6ZDR5saWHWFAqIJlKLqv6vODIV5Sj9YspDnDTtSC6k/lWqIteogqFGHCODNozU8sWk1PnDfRrxv2yrcMeZioES1mrZoUcaUyAN8lvfrn2nSrunlpCjNUEbtMHR3337i1ynz+K1Kl6vvVCcXglfugXJUnxtZdDfkD+cJqjw7osrBunoHOWiGKWYoGDvKP+a38tnlBymoA4I6q2TqJqqPVKUY89BWMxX3rhUMze3cADIFuQgy5c/N3P2XPWgu80egpbmry1ooTB1UDG9IGWQp85PuEAWcOgtpwvyw1cI082pWnV9yD20Kw0pepgsWQR17lP+2nu+93/yS5na6ZG7RySUa+PnicB3lz1wDvP/Tv/23ZBbTamu0mzqJG/9NJimZTbXHgt1YxaIZ7Zi2tzDqmI4Hrdmm8T0dMwKEzxBsMnj0Vg2BK0bSiH2V+QQuGS/PGF+UYWz2FJ5YvxyfePgufOKRTXj8zlGsqmu8LO9XWyifidUzxzQhKQp9CmWxEQLa8qTOS/JoezPIJIk/tOFNXhnTnQlS2pheJZmKwwTdpqTmmTp0xNTOFobLJYwODZs6hE5rFtPTF+gHa/mZMuFZgivrgnlh0SRMtP6PqVbXvFllAqOtFFyb+M7LYPP2kbEgemEeMU1zQQVnapuZM7xfdRdmDhPNn0bgqh5ALRBWrIkUZO2VEdoVtD0KvaCOkVKV90qJJKaiUNMeFAqoyHsDAGl0vcy8U1uzw7B0SUKvl8L54H1TbE7owYsa2Ejt++TWjfjwI1vw2J0rMUhfxYqaZjJzLYuJ8gAiSj4tVpWmfJUm6Q4GYVdo+tLMTrMO0s4FCtYZvPexO/DkY5vxyH3rsXkDC4IKFmkbYTiLWGvokol9n1raZPatTxKOWd4xIbVCmsgd8mKOsWHg7nV1vPveVbh3zSCiUyfNCB3Vpk93Msy2aQqWBlApE7TUMH7eRJ0mYp9ub1KbdTEU9yItNJv/9E+7e1cngdc2o45y1H0fI0MDWLlsFGXPMx3w1aEjaVEzSONUBVgG0yuL/ov86GYTeWcGZT/FimUlPLRlOf7pU1vxwF0rsWGsgiHiPqD09ChpfWGegFW6Uz7rmH7TjLoL4lsRzMo/TRwgf10DLXJqC/ntqnRzXQ/lkovheoAaNfFk7iNs0gduaZgb87BaN+5JEoXwaUqW0ojKJkJETXNdWupZZRRzj0G55X+R5GK/u1f8Gs1MYvl7vjpuaFYO5g95TpNJqD+7YQ3lM3e0X2jeW5FfLlL+7DUmXf+zP/sz84HXDIpOutx0sCc/0V8bqZepNaguadbEYYemNE0btfWKObUfRXDCCB7NnSDtYHnVwn0bhvC++9fhQ49uwnvvGMVKMqzWCzITtdKU1LuMb6xpUnOH5UCfT01YOt+l+fu3DNH8lX8u2abmDLklyk85AMrPkmNjwHOZpxWMjY1h9sIFNDvqxxsgU6Vgh/ClHxjwHpvgjdWZwyPjXo9uiawSMLtbUpHkYr+X/mIWkz54rwje65IygxArVrTP6cPlqNC0GxsMMFgpYajkYMC3yIA5ap6NQfppQ/R1x6hGNwyUsXXlIB7bOIon71mJJ2kePsr9MXJthdFpgTJ1JywqKZhs1RYKvPQfFdQM06NbErg9Ek+pBlp+mWErjZXW9wrAGhfM/GM+rhwSQIu5i0NaHrMdCkfNdO74FGSeUVQaqaOa6evSrZBdAh43xjopzpAMTC+S7nkHgfeS758HXmvDhg2X5IymJbkeKVvVMC7oqnLQSqlZVZHCTAzh4sx0B4dOjePwqQuY6DiYnm4ibKu/dAnLR4axbvkQVgw53HcwWleHfZtmtjSJT0WrWBk581z9nWlImuYBo5JIqlC+JfN/PvHbZPvmtDJifo8O1UrupQSlBJZhW+WDKvk6OBu7+NnRGXxvz3n85FADR2Y8ZH6dMk0VYynznuCmxXM9MhWP3f23nSRlrkcCHcEmo447POSOCd19XdA96tOsvgV6hGAt1+oYGB5BdXCQ9ziIKORstafrexMx6ELwdqF/a5AUWTe5+f/nXcUOaQF49+7d2927OinTtKin8CR5bzQlTWHzBnVvMRmYox0xg2nqaUhwFNIstC3UKBxrZTVu8DYNm0uKyqjMUZ9UIZPPi29FRT5fJB33rt3KpEp3ZpcGQKkZU2TqpZWxuibSd2pd3PZ5oD6I86mH54818N2d5/CDnZM4NGMjK9V5rWaqEtCeNo9di24F8NoEnqE+eC/SVcD7pqCgh4g/OGI05aAyxA1MCOnXtltNw3j1wII6uy2r5lg1AqwYJnArzLYsRpK0WQ58WEMMAwLXJ/s6mmI1ZuZr8APv44tMBxkGjeGMtID37UBkwtwj83XBJHYyIxh7B/xetZYktGRQHkPU7mDAbuNdG8r4jUfW4JP3juK+YRdDLgsgbpneabcDCZv6fBO0r/wgFXUCxb623dPvKJLwMgJsHr1JPaY+oyG1bgiHYEuzBCGlg0bSZH6FYGTQ5HWmiyTNQTeB6xF4bhOJ3UCqMa30iVOfHi4Bn1EPq1dyJhOQWkQhczMkmr8obyPJm4yrDcdTPettQEKqR6vDVX+rrqpVuXTLJiGDqtWWIhCtVKOMqsyhCIOYxb0UgL/62J342EObsHFEHfl5V6g7bw/qAfaa1APyO5zeJHhFzOX5ErFLWmRLM2s4xpZj9JKUkhqqVJH6p7I1VTLqcaTKBd5l1kQycVnGdHZ4rYiaJpIpTBk86l20iOaQW4SKftjFnF1mPmh9sEpDgftqB1Yeh7JsmJ9ykC1agIPcvX+dh4/dP4oPb6zi8aEIY9TKmVs1A//tLEKJQs83835ZFIiShnwPBawrN0VWksJ1yCwDc8OCibEbLqPiM4tA0ucWh/Pu7103/FME/RkTWNab2ddnqUmR++oBw5iMZUfqafFubEXMvXO3QLgavUnw8vPV4UIdMdTjynERELRFRz3yGoOsXSkYLeOoFeM1dM/NSvDzMrzMh0P1Yqm3TK7eMEWPGPVIUp2r2Fq9Y1zG6NlluFaFZ6jNNUj7tiBlO/OAuaV+QPpqg6cueJV/FeZxNdMsHASm6gRyjZKqwWWe15m5D6ykBr53EL+1qYJ3D/MhR2VBkOYR81dLm1Isqv5AfgfLwWU+qwmu4FwF/vT2DYlLumHe7o0JEr3F57HUL2VMmYLdoI1pYOBpwzfdBOrP2M66oMEaAjAPzAR+muCO+6Y3IF8gC67Y8o/3mfeYWAqaf3xLBZZXz1/vkfLzLSO9rDeN6vVCnxaStLO6SmpCPwlIWSRmQAavlSkl168axGP3b8G77lqBVeHr2LZmiN5KDdNNC81mgpIkaHsCWUTXI6gCtWWXAacbRJcf92nJ01uOmisB9UqhTwvJDGygRdNzM1STbyQwzUFp54EysHFlFR97eCP+35+6B6s6p6ixqXHL6lsaoD05YRYE9wJ6zFS6zXYKs9wPg6yi3n7vuBcMsPu05KmPmluACixR31ITG7VLM1pLa2rergpRvHHIxcc21fGbj9+B+0ZcDNkdY3s71Tp9Zj6g8cOKJY4u0bzXCn1a+tQH7xImYUh1LuokpCFyhBX/DXqpIbW0iuaojlFzEqyu2PjQ3cvxq/ctw3vX+FhTTswSpKlbMXPmE+2wnesPG+yFPi196oN3KZNBr4CrEUjaEaykfbml72sm2jRjmjNozuxVBOxnH1iB335kBR5f5aOq/m5uACvNUc0jDLiac7uIVtTbvzz06dagtxy8vcbl64U+LSS1eGiKXc9VTaMaj7rgpQ9cmNA6zpFQMzczl5ZyhOV+Ax+/exD/7H2b8O41JdgTJ8xkbVX6wunsrMG/qbjtbq8W+rT06S0Hb59+OZrzQwko6lgzfY6WU4mJME1Op8EK6rqidYAyLXzO+6ro4IGRDP/mAxvxx+9Zg7H4AuJWCLs0XDTFLCL0aenTWw7eXvvU9UKfrkAEZ57oh/vKIgZ1QChqnl1oWl0tA2PWX6JzHGtmEqcMzZu9yg/xyGAbn906hA8/sAnLRpdjOux1/Si069w+g4m/T7cU9TXvEiY6FAQZoSXQ8lhmtIL6JqgJVzN7qu1XM32qE4Z6bJlqZs1nTGAP+i7uW1XHx7Ytwye3VLBtVGOrU9MhxlUPLwLeyjp8Tp0xNXlCAstMY0Q/mWd6oUfzwf5GgiHuGO9IHSy6++b4kqCTxf7ce+eumaOLNHe+6Igxf3sxHv1c3DW9/PjNWVYMdLjpwaRucaR0p+qgMo/64F3CJIvENos+dY8ZVGDzA/UvfAJRM454UI81VU8TwFYVCIZQLwd4aAXwB/fb+B/u97Gs4kGtwCU6ym6SQIuB29CQTo0KS+FZLoNn4u6BV8GwjUmHgcLFQCa8XjCMqhpzMp/ZMlzsLdXdV+Dh3Du1P+9Y7c+Xvpo/JhT7F4HbPSZQzTkRj3uAMdMMLwjdR9/mUPxcn4ppC1MzK+Z8Uhn16RYn8cBcuXYZQ7XTktZij4FqFevWrMEHHtqC/+kDm3FnfgH2xDk6zw794BVI7FHeW0fAP0dTFE1PFnH16S0lldOcFr5GkPRS/WQhwS5SH7y3AUlDa4kPU5yqP6BtLSzH1KyJBviT1Oa7adDHb27I8MdPbMAH7lhODWwhmggJYmppf4TC3YUdUhvH1OB8RqHQZF1GuZR3+vS2kRwiDdjpHnapD97bhliUpo2HBa0+0GaKXNvMbxVFHZqqKSqIsNGfxkfuW4FPPXoHHl9Ps9qJ6O7OMHSKWT6dMoFcMUDtAbgH4jkw96gP5reFioE9Pt0jDfu5SH3w3hZUgFamsjSuap8FXC14bog2tSqnXItXvRzL6zYe31zHxx4Ywz+5s4wV/hTQPAMtbNZxS+h41UsAOxfmA7gP3BtCvay8VsjMKiABav6lo+r64L1diKWsWtRUgUA1M5EQaQ4BrLWBVUNt+jhXamjFLayuAR++t4bffHQMT60HVhPAtq1aZz7b7aUxH6jFGZKO+3TjqJu/1wqq4FMXnOVlDbq9SH3w3i7EQtboI1VcqVZSqy7K301pLqum0qZW5i+mrDJiS8ujtrGxmhrN+zvvXo+P3jeGDUN8OKMJHTcW1PbOad3L9vv01pNcnsDJsG64e6JLffDeLkQ02VSvtllqRtOfZojThGBOYdZNJpC1BGsYJqhW6ii5LuxOC5rC/YlNK/Eb79mKj24ZwUPLc4yWL84VdjloxTDmuA/gX5qYhVesXb48wApRKVHYriie61EfvLcBqfOB1qoVMwhQ6getzhue7yIIfAS+Z8YF+zShqwS3R4awLQ9a1bHslTDk+9i2ahgf3roWH9o0gHsGrSIeRd6nJUARSkFoJnGcT33w3iZkUS0KbCpQ9b7S1Do+fz0zTZFn/F0tM1ox0w11b6T21RpIaj4ccS08vKKGT987hk/cM4ItIz68pI2I2jpVbKrBTkJzLlBNtqv1cgNKDkY2LxhNTeFg5l+m1tc0rdqXYLmmRNANV7vJnOdZc+niNVkVutgTNfINc6VBH8et9i/Gd62g525cmP8dV7zee68WLchUUsxb3cuQMK9jO0DilM1+FKdY6cd4oB5jjYZlz6M+eG8DUn9n12fxkx8ugldbsbHO9IKYRDOXkFGIWK3caAYhkKG8JMGqkoXH1w7ik9tW4KOba7ijlqFE6BYgUI0nYZzFZoUMs2yplhc1c/Mybt0jxlSgJTAHYE0cIFQpih5197VR6M3eYY750wOpiY7xaFuQLuiStvThu+DV+5VG+fumWcVyebY4V8wf/PYGvfuiQCvS0QvFPcW1LPcYSnByzdbGMlOeMSNSzT3NvI2Yt0lqYXPdxQfGHKzlY/OJMfXpnUrzB4T09rVdUfOM9v2dJzZSG7uoxFMI2x1YtWVISkNozM7AbZ1FkE/zAaPu+GQBMUHNHCk6mulaInauyepNU9f3675jyROTqeSaJJNkC/T+RL1rGa2elNZPlkbwkwaGMI2RfBLVcBxonAOSyEwov2JsDGtXDBcrZ86jPnjf4SSwzgeuaJjW8LtWOvi9R1fhtx9ejsdW+qhZEdox0HG0Bq6LUtpgmOE+n+mpTrUyS8v2AExmzRin9t8IGaB2gza9CMz+LUCFACsSqyy9PIh03bcSWjaRWcK2EUagU4Lcq8DzPdSdBOsrHTy0LMa2FR5WDlCIFo/OUR+871DqAbVHPRAraFkaj1bxqnKMj2yu47MPrsD7Ng9i0EtAJ4yWsgdL60oJuAKtuMiAuLs1UQt4xQgeWtGLph5ALz5y2cM87AHj1iDlR1dAKnS1r8hJWgiSaXiBj3xwNaYqq3EiHcKZZgY7nMZDAw383uYU712Zo8byuLSVtw/ePl1GYrLcLFtB9RuHuJOm2kfvGcSvPbgS79lYR82XZrXRQZl+WamolCJI1Zva8CfBW4D6IpO+MZU5H7bFfuH3CrU61tacXrI078uLdJttQfMFj1ml36HZ7Pho5j6m1VOVPm6FmnfzaAnvWeXi/aNt3FFpU0trOd2in3qP+uB9B5PRBt3t/KCVC6d5KVZtqJNi07BNDVzDZx9YTgAPYLRs85qHdkJ1QH/NShJTmeUQXGaiWjVVMdgMjLAIb4AMewuo2ukB/yLP3wJU5KNBsT5DwqcbzHeYLLGQOCW07DraBG08PYlyawJ3llp43/oKPn7fajy2fgij6nuetOmZaPJACc6L1AfvO5zmg7YXNCdWgxYyKvSyHIemcgNrvCY+dY+HP3z3GrxnwzBGPGpo+mmOVuwTcM1Wy62oH7XWbO62NdM/drRywyLJYFSMbo6uQALAUieD2+JPZIBL30FB1Ls2Syk53uS5dhPrs9N4qnYGv7exgz9+qITPbS1hw+ggwryGKKJ2Nk9eCtc+ePu0gFxK+aqWFxU5NI8zB1GnhTHE+PA64LfvH8Ontwxi26iPiuui5NBH1q1q09WSmnGKnEGzVtrkukUzmdFMVwCnOXeVa0uQNFm+FhLghqkuQFuMrzZHBty6Xksb2GSP42MbPPzJe1fjXz+5Gr9+VwkPViIzYYKa+9zKkFlFM6EVpIXY51MfvH1aQL4VY8ieokK4gCZ9sLQ0CNsvUx1PYiSaxvvX+maK2ffdtRzVUoCypzWlHFPpnCcpsjhGyqD9YvaMGwC6WwO3XaJeFXJFBrTaXNyKdPnxdRX8q3cvw2/dX8dTG8rYNhZgVc1DzbPhUui5lIMSiHJHMsu9zOPtg7dPVyJqBa217JqF32j+qheWVyYDUb+S98YqOR5ZU6IZPYTfuGcY26o5BmQ6SzN4HlJPHQ06yFXJQpPZLEEnzjN9KqiVjEnNd0gzmdpogtwicxeqqhsMpxf7oi4WRMWu7u2G3nEv9M6bZ01k1wl6zuHr1JGCu4IF06LdLFfvsGIhM4tmhL7Jcnk/LY6E36FVHDWbp+6yed2h4HPykBZHBIv5lnh107yW0Dap8vqWSohPLG/hjza18IdbMnx8k4dHV/pYW3NR95lTEoJ8t5nOSBlmKgNzxlukcj71wdunKxDBZg/R5R1EiUyrZVXUoyov03zzq2TgHMOlFO9Z5+OPHxnGR++o4Y66j7J6XdkerIChRDAQyxlBmhPAlvF7aUoSIKZZmEcGJ4ZJuacaagWix/TO0j290P2b2zOAFesqFOdNMOdF889xc51g4lT61PtJaTSVbap6I2yYPAHayBX+pEyQatMle8zDArcCjzMiLHZsglmDQGh5pBk8PjfAn3VVCw+NWvjEegv/7G7gz7Zl+OiaBCuDFINeStDqbcwzvr+QWRKAhC/jy1UGEiAsh/lkbdiwQZ8wR3v37u3u9alPYlyZewWLXL7VyKUO+elU5OOLz0/jay8exb6zLTg1gn6wjOn2FJKkRaVG35imd5zInC5GOhlUCF/6ERLUC0vmtdZT0mm9wiBHDMsDk45CC6nbpdZrMtY49ytDoxgaXY5ytW7WenZoxicEjrS6I/Rfh0yTjelSybgFTiFVb+L7UsVD4OhUkmuKPwelPEJJXSq4tSiJUtdHx6tgyimhKRS3Y1RbsxhGE+v9Bu4laO9fXcN9a0ewfnmFAhEImSziFtLJ16NeRaJo69atZitiNH3q07Wpxzw9Bupt5YXVnDZW14EPPTKITz++EQ+vHoU/EyOZyOFrOp0aNZrbRqvdNFPyyEQ2YGQctuPC9YppaC0tqERg3xwiQGnu2jbNd+6naWKChJTjOHApfKT7Apq0AzJr4wxxO2VyHWrHkmmnjSkoQgI2mpmAF03iznqCj9w1gD9+ci3+5IlR/MadOR6uXMBwNFWAjlmY01DpCcdrhatRX/P26brUY6D5jKR9W7XLBGTDTTHr13Bk0sEvXmvh+784i93n2pgZyNGsUvNqRf4mTWmZ1QRtT5nK99Wc06B2UwVXKh+PGtiIBr3qbdK8xjZnMvReGQUpv4tvMcMoPfUko7bVIAiNqnLzmGANkGgBN/oFYRQh7szASaexvAYsHw5w73AZ942UsHG0jDuHbCzzY9Q0L7YiZ2whAR9ZgTGSfSPMrk0Slr1lcO+9916zFfU1b5/eFBlNLN84qyEg79esCdw50sBT95fw6fesxiMbBjCYU5M2GRILgVsEV36tKKWOSwhXaVy1EZOR5WXeDJJMypgG05zDPyVD5rOEhoRUxu+QJk4QI7QjtC26C7yaEj0lWg6rKy4eHPbw8TU+/mBTBb9/V4BPbXDw8DILwyXGYntoOxQs3pBZtVF9mmvJFEpZy4DyeqFn6VxOfc3bp0XRlcw3i6AElSpKCdo4jsShBsUyXAgH8exrGb76wgG8cvYCpsn4vh+oysVoqyjtaV8JgNy0Kwu8Gp4YCziK3GDn7dG8Zu4vrThBk1i14KZ7Z5f02dLECprLPvUsZFGCMlO8ohJgYz3A5kEHW+oZ7h62sH7AxUgQU2tHyNWDKnUouxgfvQdpSrWHazACUs0XRj/bvny4wbWpr3n79IbJaNrLguEew0HyW0tmrK+PCawM2vjYwzY+++4NeN/aQaykqRnNTKE9M4moRW3DJ7wggF8uE2ieqoMIHpqqizAh3wqSiaxxwFoDWX64BE3A9DmORSGgKXFbNJtD6l0e0/TXUqn3Vmfw8RWz+MMtMf7lgy5++34fj6zxMFK2EFMlt0LlkYsKrY06gVumFHASanCGkLkUOYNIneqCPL1emE998PbpTZNaZhIyZks9qqxl8O018NIKrNYEltshPrathN95fA2eumsZBks+/TvCJCEEqDI9x4MfaE0lVfrkZsK89Ara/e0grd3k0ZyVesy6nUokSNI0RkI/V4uSV2se1pZiPOY38et3DeFfv/dO/OFjq/FP1rlY687Aa0/zWd6vMR00o91y1RgPshTUL5m2ACrMq5KrnlJAO8logfxy39sHb5/eNOV2jMxvmDbdOPUQhXVY8SAqXonm4QxG7Wk8foeLjz56Bx7etg3rVq1CWeYzfd1OGKLdoTaLaULSbNWAfTNR/E0gR9qWaZb2jaIUIdPWYdrCqEPNG1ILuxgeqeP9m4bxr7cN4LfvrOHxZTAzj/gUYBJiOd1/yw0J1ibdgDZ8AlnmPf+Liq2c+UNNLDgHBHLNYbzMP7kj1wtXoz54+/RLk/xV9WE2KkVenVWWcwibmmW4bOOJdRX84QM1fHJTgK2DGQboIedRRBNSD5OhqY3Uc8lMa5OrvdVn8IpAxjcmrfGPjevI93Gf561c/qlrKro0NFEJ0AyaiUWtxpDaTBdNTXV8SNW90Pa59ajhqf3oE2uRtZIVo5K34CVTdKM7aCY5phOXFkWAsYEq3rO2RrACf3LHLH5nQ4gn15SwZQAYZkLkq6dMV8I4My2vqpQRa7IsTGJ5prtDk7fY01co/ep5ZkZd/RLUr7Dq05smVfQk9OEu98VEPY2hrdqD8yTC9uOz+NaeSfzocBu7JoHpnCCnVgO9QCQNBu5aREavwkhqSwgnyARMi4CU0VlUBBOQvKZpdiq1GmqDAygNDMAKTHWQ6bLoEiABAZLQrJdcKXpO8VECPWe6VZnl0yf1sg5y+rUdlBB7NVSrZawZ9LF1FHh8NMRjQzPYVGpSclTo9142efIVSDXEah9+K+iee+7p7vXB26dfgkwtbZpeFbxzJl+mqh7eW6pj9wTw7R0X8K3th7H92DgStwSrViUwqJMYlxOL+aWf+LwxO9X3WZPNKVIhj3EScBbtVQ1J1Dm/XEG9PohabdDsUx2bkFIrpwRS1p6FkzSpZVN4nrptqicUDfushA7t3SDvYLk1ixU1G3dRpd4z5mDzCH3ZAZrLFRslAlGf6DEtJQmU61CvieetoD54+3RDSOAUuK4F3uIeNetkcEsVeoTAvrPAj3efxPe2H8QrJ6Yw6xK89WXwpLFmJ4127Q0+F1bVkBTThE40W6UGRzg0ke2W+ity30VQGcBgfQi18oCZ6jaLKSiSDLGVIHMJOAK2EqinFGOmRm7z+kxIv5vAzd0Am0ZKeM9KYEM5wf1DIe4djLAyoBRxFX8JLWsQtAvUqo2BRYD3SjXDN4r64O3TDaEeOK+necXuqliNOyFdXA8R/drj0yGeOzSOb24/ipfOtjGelsiNAUFLc5ea2iNcHXXyUC00I4hoJmsu49ylqZ1T4ybT3FK7lauoDQxR846gSuGgMUxpRNDSVPbchMCWUe6jlTloRjmSKGb8HSwrZbhjWRnrRyu4f6yMh5ZZGKRcGPMTDLoRzWuC1/isDjKb5jSFhr5SE9Zfj94q4Ir64O3TDaMeQOczbO9cD8C5Xcy+lLYaZP4ErmujnQc41rLw48PT+Pau03j+yATGW2pLGTFmtsDrq2WV+2kSIyKCVdlkUVNa9IGzSAMePLjVOqpDwyhT85bKZVNBZSZ6p7TwnJzCwsIMsa7A06h6GdbVMjxIsD66wsaWUQubqhY1rc24pdXlg6vjYuEWaN5pWQJFTRSvmRrjm0fXBO+uXbveMme7T+8c6gFXlNH/VO8pLw1hxW0zcgi2j3YwiOORhaf3TeNpmtAvnGjjXCLwqoIqhWvnRvtmcchHOoqUvFkMVHe0vEupBHdgEB7B69VqcHwBK6OA0HKmMtdtdBLXALDMSyuqNu4c8XDfmIv7l+W4qxZhzGubphszSsALmK6SGbesFCj1Gr6o+ExtmvGllzB4f/SjH2HlSjoAferTL0nSXGbLoLomT/o3pznaahotCPqqHQLmCB3KnUcu4Du7zuAbe1todaLiOjUr0cpneBAR9FlEn5bgTAXgEuxaHf7oCNzBQXUypgucIA1bcJIOAu4nOc1sZwB3ELAPr9Sgd4fABTYO0HdVDTcBmbRbTCf9Ya8KU8ek6mhjReiAGpi7Soq+QWduLnQvBa8zNDT077v7hh577DFs2rSpe9SnPl2bpF2v5vP2yLS0amWFjPcadUbf1qeJSxNVbZ41YnTDsI/hikO/uIkK2qaDREfT6BBYcKgRZSLT3Nbqhi6ftarSuIME7hDsCkFK0OU0r52wjSFCbdRzcC/92Q/eUcMHNwT40Hobj44kuMNvopTT5BYkrZKZ6SJhfKnMZZvpURo1CiojuOVzy2hWzbX5DsH55tJf//Vfd/euAN4y/YYPf/jD3aM+9WlxdLVKmgLcpveyqXiS35o7PjlPMCB0aUr7aQHYUYJ35bIhlK0YzU6IBk3jlsxZgVfT8njqCcVQryNYtpIAriL2fXRo1kZRBCuKzYJpW8ZGcf/aMXxwfRmfWTWJB0dSbKimqNPf1fKnmu3DAJdpCYlKyRPNeKEvSCRqZB5rRhATivktHFoR2qqt+GbSfPAuMJtFfdO5T4ulnoa9pvY1PqPaa6WDHQMI3W60sOZ9pjksTZh4HsYJqtfPzuDlY9N49XQbBy6kONm0MEnfWPNIa/kUO6jCqdb5SAIfEQYIyrGShbV1F5tHytg8VsPqYeBOYv4OaxqOul3aDAZ4RVA8pncUJYralT318uKVXpKVPt2pFBstLRdgqfu8os997nP4q7/6q+5Rn/r0y5FAXGjgAuBXq5lOrRShujXSO56ka3xssoMDZ9vYPx7i6CxwIfbRyDzE6oroEHD0bZdRY6+v5Ngy6uOu5SVsGitjtGahxHgEMyeRYV6822yLt1Fw9CrUBF4KFPnXtwBdF7yiv/zLv8Tv//7vd4/61Kc3T4sFr01/FR2iNCgTdRrF7qGT2pik6zml5h5um1SCbZnffIaKFcNUhqPE3TJa4mqnhSs7uMMbiH76sVFQM23HfCn97ovgNdaAzitdxpS+2VVRi6NFgbdPferT0iaZ9X3qU59uQeqDt099ukWpD94+9ekWpT54+9SnW5KA/z+KQF2R8DJQfAAAAABJRU5ErkJggg==;" vertex="1" parent="1">
          <mxGeometry x="590" y="660" width="49.59" height="50" as="geometry" />
        </mxCell>
        <mxCell id="QjezkDxScHK8IgRQuDpO-13" value="&lt;b&gt;Remote State&lt;/b&gt;" style="ellipse;whiteSpace=wrap;html=1;" vertex="1" parent="1">
          <mxGeometry x="366.67" y="420" width="120" height="80" as="geometry" />
        </mxCell>
        <mxCell id="QjezkDxScHK8IgRQuDpO-16" style="edgeStyle=orthogonalEdgeStyle;rounded=0;orthogonalLoop=1;jettySize=auto;html=1;entryX=0.5;entryY=1;entryDx=0;entryDy=0;" edge="1" parent="1" source="QjezkDxScHK8IgRQuDpO-15" target="QjezkDxScHK8IgRQuDpO-13">
          <mxGeometry relative="1" as="geometry" />
        </mxCell>
        <mxCell id="QjezkDxScHK8IgRQuDpO-15" value="AWS Account" style="points=[[0,0],[0.25,0],[0.5,0],[0.75,0],[1,0],[1,0.25],[1,0.5],[1,0.75],[1,1],[0.75,1],[0.5,1],[0.25,1],[0,1],[0,0.75],[0,0.5],[0,0.25]];outlineConnect=0;gradientColor=none;html=1;whiteSpace=wrap;fontSize=12;fontStyle=0;container=1;pointerEvents=0;collapsible=0;recursiveResize=0;shape=mxgraph.aws4.group;grIcon=mxgraph.aws4.group_account;strokeColor=#CD2264;fillColor=none;verticalAlign=top;align=left;spacingLeft=30;fontColor=#CD2264;dashed=0;strokeWidth=2;" vertex="1" parent="1">
          <mxGeometry x="361.67" y="650" width="130" height="130" as="geometry" />
        </mxCell>
        <mxCell id="QjezkDxScHK8IgRQuDpO-18" value="&lt;b&gt;1&lt;/b&gt;" style="text;html=1;align=center;verticalAlign=middle;resizable=0;points=[];autosize=1;strokeColor=none;fillColor=none;" vertex="1" parent="1">
          <mxGeometry x="225" y="430" width="30" height="30" as="geometry" />
        </mxCell>
        <mxCell id="QjezkDxScHK8IgRQuDpO-19" value="&lt;b&gt;2&lt;/b&gt;" style="text;html=1;align=center;verticalAlign=middle;resizable=0;points=[];autosize=1;strokeColor=none;fillColor=none;" vertex="1" parent="1">
          <mxGeometry x="580" y="470" width="30" height="30" as="geometry" />
        </mxCell>
      </root>
    </mxGraphModel>
  </diagram>
</mxfile>
